<svg id="s-allergy" viewBox="0 0 56 45" fill="none" xmlns="http://www.w3.org/2000/svg">
<path d="M49.7374 23.6362C49.7374 22.5792 49.4574 21.5951 48.949 20.8653C48.3341 19.9825 47.4071 19.4965 46.3389 19.4965H44.9898L44.4801 14.7909C44.313 13.2403 44.4293 13.0598 44.9485 12.546C45.1441 12.3528 45.3637 12.1608 45.5963 11.9573C46.8603 10.8518 48.4334 9.47588 48.6476 5.95745C48.6642 5.68546 48.5503 5.42182 48.3412 5.24808C48.1321 5.07435 47.8529 5.01149 47.59 5.07904C47.0879 5.20783 46.6269 5.33252 46.2201 5.44263C43.2733 6.23985 42.4813 6.45419 39.6258 4.68593C38.6942 4.10979 37.7796 3.60811 36.907 3.19487C36.4827 2.99393 35.9768 3.17654 35.7768 3.60256C35.5769 4.02868 35.7586 4.53693 36.1827 4.73779C36.9985 5.12407 37.8573 5.59539 38.7349 6.13818C42.2145 8.29297 43.5165 7.94072 46.6617 7.08969C46.7077 7.07724 46.7544 7.06461 46.8017 7.05182C46.4145 8.97957 45.4341 9.83725 44.481 10.6709C44.2397 10.8821 43.99 11.1003 43.7572 11.3302C42.6458 12.43 42.6095 13.2852 42.7917 14.9749L43.2684 19.3768C42.6686 19.3061 42.0967 19.2395 41.548 19.1754C35.0615 18.4189 31.8057 18.0392 23.6777 15.9048C23.3223 15.8113 23.0079 15.7175 22.7038 15.6266C21.4073 15.2397 20.3832 14.9339 18.5827 15.4421C16.3003 16.0862 14.6075 16.7886 12.6229 18.4296C12.6328 15.4329 12.695 14.2519 13.086 11.604C13.3088 10.1012 14.1494 8.7811 15.3349 8.07267C16.0732 7.63129 17.2801 7.22496 18.8371 7.79462C19.1049 7.89279 19.4038 7.84921 19.6329 7.67879C19.9087 7.47384 20.1893 7.25814 20.4865 7.02973C22.6663 5.35427 25.3791 3.26916 29.2165 3.11137C29.6852 3.0921 30.0494 2.69498 30.0302 2.22426C30.0111 1.75363 29.6144 1.38849 29.1472 1.40692C24.7733 1.58671 21.6991 3.94961 19.4545 5.67497C19.2882 5.80282 19.1271 5.92657 18.9703 6.0459C17.4097 5.6 15.8263 5.79378 14.4665 6.60669C12.8475 7.5744 11.7034 9.34862 11.4062 11.3532C10.9541 14.4159 10.9249 15.5752 10.923 19.4964H9.66088C8.59261 19.4964 7.66571 19.9825 7.05086 20.8652C6.54241 21.5951 6.26245 22.5792 6.26245 23.6362C6.26245 25.6671 7.31774 27.8055 9.29763 28.4268C8.69467 29.8091 8.37854 31.3151 8.37854 32.8471C8.37854 38.7488 12.99 43.5502 18.6583 43.5502C19.8905 43.5502 20.8749 43.2273 21.6657 42.968C22.5711 42.6711 23.1103 42.5132 23.66 42.7181C25.258 43.3154 26.6371 43.5937 27.9999 43.5937C29.3628 43.5937 30.7418 43.3154 32.3391 42.7183C32.8897 42.5129 33.4288 42.6711 34.3342 42.9679C35.125 43.2273 36.1094 43.5501 37.3416 43.5501C43.0099 43.5501 47.6214 38.7487 47.6214 32.847C47.6214 31.315 47.3052 29.809 46.7023 28.4267C48.6821 27.8055 49.7374 25.6671 49.7374 23.6362ZM7.96069 23.6362C7.96069 22.9258 8.13179 22.2891 8.44231 21.8432C8.74273 21.4118 9.14131 21.2022 9.66088 21.2022H10.9227V24.7836C10.9227 25.8257 10.8954 25.8599 10.6349 26.1864C10.5033 26.3514 10.3367 26.5606 10.1322 26.8722C8.54752 26.634 7.96069 24.858 7.96069 23.6362ZM37.3415 41.8443C36.3795 41.8443 35.6077 41.5912 34.8612 41.3464C33.8877 41.0271 32.8811 40.6969 31.7476 41.1194C30.345 41.6436 29.1542 41.8878 28 41.8878C26.8458 41.8878 25.655 41.6436 24.2516 41.119C23.119 40.6969 22.1122 41.027 21.1387 41.3463C20.3922 41.5912 19.6203 41.8442 18.6584 41.8442C13.9265 41.8442 10.0769 37.8081 10.0769 32.847C10.0769 31.1894 10.5118 29.5687 11.3345 28.1601C11.6014 27.7032 11.8004 27.4536 11.9605 27.253C12.4883 26.5912 12.6211 26.2316 12.6211 24.7836V20.7122C14.9095 18.5282 16.5427 17.7896 19.0421 17.0843C20.37 16.7095 21.0272 16.9057 22.2202 17.2618C22.5227 17.3522 22.8655 17.4544 23.2481 17.5551C31.4916 19.7198 34.787 20.1042 41.3523 20.8699C41.9936 20.9447 42.6666 21.0232 43.379 21.1074V24.7837C43.379 26.2316 43.5118 26.5913 44.0396 27.2531C44.1996 27.4537 44.3987 27.7033 44.6656 28.1602C45.4883 29.5687 45.9232 31.1895 45.9232 32.8471C45.923 37.8081 42.0734 41.8443 37.3415 41.8443ZM45.8675 26.8722C45.663 26.5606 45.4965 26.3515 45.3648 26.1864C45.1043 25.8598 45.0771 25.8257 45.0771 24.7836V21.2022H46.3389C46.8584 21.2022 47.257 21.4118 47.5574 21.8432C47.868 22.2891 48.0391 22.9258 48.0391 23.6362C48.0391 24.858 47.4523 26.634 45.8675 26.8722Z" fill="#343D42"/>
<path d="M23.5629 25.153C23.2369 24.8143 22.6993 24.8053 22.3622 25.1328C21.3016 26.1631 19.5743 26.1628 18.5117 25.1323C18.1742 24.8051 17.6366 24.8145 17.311 25.1535C16.9853 25.4924 16.9947 26.0323 17.3321 26.3595C18.189 27.1904 19.3135 27.6057 20.4381 27.6057C21.5627 27.6057 22.6874 27.19 23.5429 26.359C23.8799 26.0316 23.8889 25.4916 23.5629 25.153Z" fill="#343D42"/>
<path d="M39.0494 25.153C38.7235 24.8143 38.1859 24.8053 37.8488 25.1328C36.7873 26.1639 35.0602 26.1638 33.9987 25.1328C33.6617 24.8054 33.1241 24.8144 32.798 25.153C32.4721 25.4916 32.4811 26.0315 32.8182 26.359C33.6743 27.1907 34.7991 27.6066 35.9238 27.6066C37.0485 27.6066 38.1732 27.1907 39.0294 26.359C39.3664 26.0315 39.3754 25.4916 39.0494 25.153Z" fill="#343D42"/>
<path d="M34.1545 33.1885C33.6855 33.1885 33.3054 33.5704 33.3054 34.0414V34.0609C31.8039 33.5304 30.0318 33.2436 28.1806 33.2436C26.3298 33.2436 24.5583 33.5303 23.0576 34.0606V34.0414C23.0576 33.5704 22.6775 33.1885 22.2085 33.1885C21.7395 33.1885 21.3594 33.5704 21.3594 34.0414V36.6406C21.3594 37.1117 21.7395 37.4935 22.2085 37.4935C22.6775 37.4935 23.0576 37.1117 23.0576 36.6406V35.8884C26.0005 34.6254 30.3606 34.6255 33.3054 35.8886V36.6406C33.3054 37.1117 33.6855 37.4935 34.1545 37.4935C34.6235 37.4935 35.0036 37.1117 35.0036 36.6406V34.0414C35.0036 33.5704 34.6235 33.1885 34.1545 33.1885Z" fill="#343D42"/>
<path d="M14.2866 32.0153C14.2866 31.5443 13.904 31.1624 13.4351 31.1624C12.9661 31.1624 12.5859 31.5443 12.5859 32.0153C12.5859 32.4864 12.9661 32.8682 13.4351 32.8682H13.4399C13.9088 32.8682 14.2866 32.4864 14.2866 32.0153Z" fill="#E4097F"/>
<path d="M17.864 37.3545C17.395 37.3545 17.0149 37.7363 17.0149 38.2074C17.0149 38.6785 17.395 39.0603 17.864 39.0603H17.8689C18.3378 39.0603 18.7156 38.6785 18.7156 38.2074C18.7156 37.7363 18.333 37.3545 17.864 37.3545Z" fill="#E4097F"/>
<path d="M17.6811 33.434H17.6859C18.1549 33.434 18.5326 33.0521 18.5326 32.5811C18.5326 32.11 18.1501 31.7281 17.6812 31.7281C17.2122 31.7281 16.832 32.11 16.832 32.5811C16.832 33.0521 17.2121 33.434 17.6811 33.434Z" fill="#E4097F"/>
<path d="M14.6506 35.0696C14.1817 35.0696 13.8015 35.4514 13.8015 35.9225C13.8015 36.3936 14.1817 36.7754 14.6506 36.7754H14.6555C15.1244 36.7754 15.5021 36.3936 15.5021 35.9225C15.5021 35.4514 15.1196 35.0696 14.6506 35.0696Z" fill="#E4097F"/>
<path d="M42.9282 31.1624H42.9233C42.4543 31.1624 42.0767 31.5443 42.0767 32.0153C42.0767 32.4864 42.4592 32.8682 42.9282 32.8682C43.3971 32.8682 43.7773 32.4864 43.7773 32.0153C43.7773 31.5443 43.3971 31.1624 42.9282 31.1624Z" fill="#E4097F"/>
<path d="M38.4968 37.3545H38.492C38.023 37.3545 37.6453 37.7363 37.6453 38.2074C37.6453 38.6785 38.0278 39.0603 38.4968 39.0603C38.9657 39.0603 39.3459 38.6785 39.3459 38.2074C39.3459 37.7363 38.9658 37.3545 38.4968 37.3545Z" fill="#E4097F"/>
<path d="M38.6797 31.7281H38.6749C38.2059 31.7281 37.8281 32.11 37.8281 32.5811C37.8281 33.0521 38.2107 33.434 38.6796 33.434C39.1486 33.434 39.5287 33.0521 39.5287 32.5811C39.5287 32.11 39.1487 31.7281 38.6797 31.7281Z" fill="#E4097F"/>
<path d="M41.7102 35.0696H41.7054C41.2364 35.0696 40.8586 35.4514 40.8586 35.9225C40.8586 36.3936 41.2412 36.7754 41.7101 36.7754C42.1791 36.7754 42.5593 36.3936 42.5593 35.9225C42.5593 35.4514 42.1792 35.0696 41.7102 35.0696Z" fill="#E4097F"/>
<path d="M32.9873 3.52308H32.9897C33.4587 3.52308 33.8376 3.14123 33.8376 2.67017C33.8376 2.19911 33.4563 1.81726 32.9873 1.81726C32.5183 1.81726 32.1382 2.19911 32.1382 2.67017C32.1382 3.14123 32.5183 3.52308 32.9873 3.52308Z" fill="#343D42"/>
</svg>
