<svg id="s-fiz" viewBox="0 0 56 45" fill="none" xmlns="http://www.w3.org/2000/svg">
<path d="M45.9637 26.89C47.6379 26.89 49 25.5229 49 23.8424V4.4538C49 2.77343 47.638 1.40625 45.9637 1.40625H10.0339C8.36102 1.40625 7 2.77343 7 4.4538V23.8424C7 25.5228 8.36102 26.8899 10.0339 26.8899H13.2642V38.7441C13.2642 39.1992 13.6315 39.5681 14.0845 39.5681H25.9601V41.5329C25.9601 42.6699 26.8799 43.5948 28.0105 43.5948H33.4469C34.5775 43.5948 35.4974 42.6698 35.4974 41.5329V35.9553C35.4974 34.8183 34.5775 33.8934 33.4469 33.8934H28.0105C26.8799 33.8934 25.9601 34.8184 25.9601 35.9553V37.9201H14.9048V26.89H22.0862V29.9292V30.3916C22.0862 30.8467 22.4535 31.2156 22.9065 31.2156H42.653V33.8934H40.7551C39.6245 33.8934 38.7048 34.8184 38.7048 35.9553V41.5329C38.7048 42.6699 39.6245 43.5948 40.7551 43.5948H46.1892C47.3198 43.5948 48.2396 42.6698 48.2396 41.5329V35.9553C48.2396 34.8183 47.3198 33.8934 46.1892 33.8934H44.2937V30.3916C44.2937 29.9366 43.9264 29.5677 43.4734 29.5677H23.7269V26.89H45.9637ZM27.6007 39.5682H30.7287C31.1817 39.5682 31.549 39.1993 31.549 38.7442C31.549 38.2891 31.1817 37.9202 30.7287 37.9202H27.6007V35.9554C27.6007 35.731 27.7883 35.5415 28.0105 35.5415H33.4469C33.6691 35.5415 33.8567 35.731 33.8567 35.9554V41.533C33.8567 41.7612 33.6728 41.9469 33.4469 41.9469H28.0105C27.7846 41.9469 27.6007 41.7612 27.6007 41.533V39.5682ZM43.4734 39.5682C43.9264 39.5682 44.2937 39.1993 44.2937 38.7442V35.5414H46.1892C46.4113 35.5414 46.5989 35.7309 46.5989 35.9553V41.5329C46.5989 41.7573 46.4113 41.9468 46.1892 41.9468H40.7551C40.5331 41.9468 40.3454 41.7573 40.3454 41.5329V35.9553C40.3454 35.7309 40.5331 35.5414 40.7551 35.5414H42.653V38.7442C42.653 39.1993 43.0204 39.5682 43.4734 39.5682ZM14.0845 21.5399C13.288 21.5399 12.6401 20.888 12.6401 20.0867C12.6401 19.2866 13.288 18.6357 14.0845 18.6357C14.8823 18.6357 15.5313 19.2866 15.5313 20.0867C15.5313 20.888 14.8823 21.5399 14.0845 21.5399ZM22.0862 25.242H14.9048V23.076C16.2102 22.7141 17.172 21.5114 17.172 20.0867C17.172 18.3779 15.7869 16.9877 14.0845 16.9877C12.3834 16.9877 10.9995 18.3779 10.9995 20.0867C10.9995 21.5112 11.9602 22.7136 13.2642 23.0758V25.2421H10.0339C9.26568 25.2421 8.64067 24.6142 8.64067 23.8425V4.4538C8.64067 3.68213 9.26568 3.05424 10.0339 3.05424H45.9637C46.7332 3.05424 47.3593 3.68213 47.3593 4.4538V23.8424C47.3593 24.6141 46.7332 25.2419 45.9637 25.2419H23.7269V23.0756C25.031 22.7135 25.9916 21.511 25.9916 20.0865C25.9916 18.3777 24.6077 16.9875 22.9065 16.9875C21.2041 16.9875 19.819 18.3777 19.819 20.0865C19.819 21.5113 20.7808 22.7139 22.0862 23.0758V25.242ZM22.9065 21.5399C22.1088 21.5399 21.4597 20.888 21.4597 20.0867C21.4597 19.2866 22.1088 18.6357 22.9065 18.6357C23.703 18.6357 24.351 19.2866 24.351 20.0867C24.3511 20.888 23.703 21.5399 22.9065 21.5399Z" fill="#343D42"/>
<path d="M31.6193 18.9808H31.624C32.077 18.9808 32.442 18.6119 32.442 18.1568C32.442 17.7017 32.0724 17.3328 31.6194 17.3328C31.1664 17.3328 30.7991 17.7017 30.7991 18.1568C30.7991 18.6119 31.1663 18.9808 31.6193 18.9808Z" fill="#343D42"/>
<path d="M35.9883 17.3328C35.5353 17.3328 35.168 17.7017 35.168 18.1568C35.168 18.6119 35.5353 18.9808 35.9883 18.9808H35.9953C36.4483 18.9808 36.8122 18.6119 36.8122 18.1568C36.8122 17.7017 36.4413 17.3328 35.9883 17.3328Z" fill="#343D42"/>
<path d="M40.3599 17.3328C39.9069 17.3328 39.5396 17.7017 39.5396 18.1568C39.5396 18.6119 39.9069 18.9808 40.3599 18.9808H40.3646C40.8176 18.9808 41.1826 18.6119 41.1826 18.1568C41.1826 17.7017 40.8129 17.3328 40.3599 17.3328Z" fill="#343D42"/>
<path d="M44.729 17.3328C44.276 17.3328 43.9087 17.7017 43.9087 18.1568C43.9087 18.6119 44.276 18.9808 44.729 18.9808H44.7338C45.1868 18.9808 45.5518 18.6119 45.5518 18.1568C45.5518 17.7017 45.182 17.3328 44.729 17.3328Z" fill="#869AA5"/>
<path d="M31.6193 22.7483H31.624C32.077 22.7483 32.442 22.3794 32.442 21.9243C32.442 21.4692 32.0724 21.1003 31.6194 21.1003C31.1664 21.1003 30.7991 21.4692 30.7991 21.9243C30.7991 22.3794 31.1663 22.7483 31.6193 22.7483Z" fill="#869AA5"/>
<path d="M35.9883 21.1003C35.5353 21.1003 35.168 21.4692 35.168 21.9243C35.168 22.3794 35.5353 22.7483 35.9883 22.7483H35.9953C36.4483 22.7483 36.8122 22.3794 36.8122 21.9243C36.8122 21.4692 36.4413 21.1003 35.9883 21.1003Z" fill="#869AA5"/>
<path d="M40.3599 21.1003C39.9069 21.1003 39.5396 21.4692 39.5396 21.9243C39.5396 22.3794 39.9069 22.7483 40.3599 22.7483H40.3646C40.8176 22.7483 41.1826 22.3794 41.1826 21.9243C41.1826 21.4692 40.8129 21.1003 40.3599 21.1003Z" fill="#869AA5"/>
<path d="M44.729 21.1003C44.276 21.1003 43.9087 21.4692 43.9087 21.9243C43.9087 22.3794 44.276 22.7483 44.729 22.7483H44.7338C45.1868 22.7483 45.5518 22.3794 45.5518 21.9243C45.5518 21.4692 45.182 21.1003 44.729 21.1003Z" fill="#869AA5"/>
<path d="M31.6238 14.9307H44.7289C45.1819 14.9307 45.5492 14.5618 45.5492 14.1067V9.89773C45.5492 9.44263 45.1819 9.07373 44.7289 9.07373H31.6238C31.1708 9.07373 30.8035 9.44263 30.8035 9.89773V14.1067C30.8035 14.5618 31.1707 14.9307 31.6238 14.9307ZM32.4441 10.7218H43.9086V13.2828H32.4441V10.7218Z" fill="#869AA5"/>
<path d="M31.6238 6.51518H44.7289C45.1819 6.51518 45.5492 6.14628 45.5492 5.69118C45.5492 5.23609 45.1819 4.86719 44.7289 4.86719H31.6238C31.1708 4.86719 30.8035 5.23609 30.8035 5.69118C30.8035 6.14628 31.1707 6.51518 31.6238 6.51518Z" fill="#343D42"/>
<path d="M28.6309 12.9995V6.79831C28.6309 5.73346 27.7685 4.86719 26.7084 4.86719H23.2205C22.7675 4.86719 22.4001 5.23609 22.4001 5.69118C22.4001 6.14628 22.7675 6.51518 23.2205 6.51518H26.7084C26.8611 6.51518 26.9902 6.64488 26.9902 6.79831V12.9995C26.9902 13.153 26.8612 13.2827 26.7084 13.2827H12.3687C12.2159 13.2827 12.0867 13.153 12.0867 12.9995V6.79831C12.0867 6.64488 12.2158 6.51518 12.3687 6.51518H15.8542C16.3072 6.51518 16.6745 6.14628 16.6745 5.69118C16.6745 5.23609 16.3072 4.86719 15.8542 4.86719H12.3687C11.3085 4.86719 10.446 5.73346 10.446 6.79831V12.9995C10.446 14.0644 11.3085 14.9307 12.3687 14.9307H26.7084C27.7686 14.9307 28.6309 14.0644 28.6309 12.9995Z" fill="#869AA5"/>
<path d="M19.5373 6.51518H19.542C19.995 6.51518 20.36 6.14628 20.36 5.69118C20.36 5.23609 19.9904 4.86719 19.5374 4.86719C19.0844 4.86719 18.717 5.23609 18.717 5.69118C18.717 6.14628 19.0842 6.51518 19.5373 6.51518Z" fill="#869AA5"/>
</svg>
