<svg id="s-kid" viewBox="0 0 56 45" fill="none" xmlns="http://www.w3.org/2000/svg">
<path d="M8.31557 16.6126C9.04371 18.5463 10.2255 20.2157 11.7115 21.5144C8.55866 22.1047 6.16235 24.9078 6.16235 28.2688V37.8944C6.16235 38.3146 6.49881 38.6553 6.91378 38.6553C7.32876 38.6553 7.66521 38.3146 7.66521 37.8944V28.2688C7.66521 25.3194 10.0347 22.9201 12.9472 22.9201H13.6902C15.4605 23.929 17.4901 24.4948 19.6158 24.4948C21.7414 24.4948 23.771 23.9288 25.5413 22.9201H26.2843C29.1967 22.9201 31.5663 25.3194 31.5663 28.2688V31.7309C31.5663 32.1512 31.9027 32.4919 32.3177 32.4919C32.7327 32.4919 33.0691 32.1512 33.0691 31.7309V28.2688C33.0691 24.9078 30.6728 22.1047 27.52 21.5144C29.0058 20.2157 30.1878 18.5463 30.9159 16.6126C32.5328 15.9848 33.6312 14.396 33.6312 12.6178C33.6312 10.9582 32.6724 9.45139 31.2084 8.75001C29.6909 3.57918 24.977 0 19.6156 0C14.2541 0 9.5404 3.57918 8.02308 8.7502C6.55892 9.45158 5.6001 10.9584 5.6001 12.618C5.6001 14.396 6.6985 15.9848 8.31557 16.6126ZM8.90357 10.0257L9.2744 9.89006L9.3749 9.50408C10.5994 4.80426 14.8104 1.52184 19.6156 1.52184C24.4209 1.52184 28.632 4.80426 29.8564 9.50408L29.9569 9.89006L30.3277 10.0257C31.4047 10.4197 32.1284 11.4614 32.1284 12.6178C32.1284 13.851 31.308 14.9431 30.1331 15.2732L29.7531 15.3801L29.624 15.7575C28.148 20.0733 24.126 22.9729 19.6158 22.9729C15.1055 22.9729 11.0835 20.0733 9.60747 15.7575L9.47841 15.3801L9.09837 15.2732C7.92352 14.9431 7.10296 13.8512 7.10296 12.618C7.10296 11.4614 7.82658 10.4197 8.90357 10.0257ZM12.1866 12.2474C12.1866 11.0617 13.1392 10.097 14.3101 10.097C15.481 10.097 16.4336 11.0617 16.4336 12.2474C16.4336 12.6676 16.0972 13.0083 15.6822 13.0083C15.2672 13.0083 14.9308 12.6676 14.9308 12.2474C14.9308 11.9008 14.6524 11.6189 14.3101 11.6189C13.9678 11.6189 13.6894 11.9008 13.6894 12.2474C13.6894 12.6676 13.353 13.0083 12.938 13.0083C12.523 13.0083 12.1866 12.6676 12.1866 12.2474ZM23.0721 12.2474C23.0721 11.0617 24.0248 10.097 25.1957 10.097C26.3666 10.097 27.3192 11.0617 27.3192 12.2474C27.3192 12.6676 26.9828 13.0083 26.5678 13.0083C26.1528 13.0083 25.8164 12.6676 25.8164 12.2474C25.8164 11.9008 25.5379 11.6189 25.1957 11.6189C24.8534 11.6189 24.575 11.9008 24.575 12.2474C24.575 12.6676 24.2385 13.0083 23.8236 13.0083C23.4086 13.0083 23.0721 12.6676 23.0721 12.2474ZM19.6156 18.2267C21.4192 18.2267 23.0806 17.3918 24.1741 15.936C24.4251 15.6013 24.8968 15.5363 25.227 15.791C25.5573 16.0453 25.6215 16.5228 25.3702 16.8572C23.9902 18.6947 21.8928 19.7485 19.6156 19.7485C17.3385 19.7485 15.2409 18.6947 13.8611 16.8572C13.61 16.5228 13.674 16.0453 14.0043 15.791C14.3347 15.5365 14.8062 15.6015 15.0572 15.936C16.1507 17.3918 17.8121 18.2267 19.6156 18.2267Z" fill="#343D42"/>
<path d="M19.6 32.5854C18.056 32.5854 16.8 33.8471 16.8 35.398C16.8 36.949 18.056 38.2104 19.6 38.2104C21.1439 38.2104 22.4 36.949 22.4 35.398C22.4 33.8471 21.1441 32.5854 19.6 32.5854ZM19.6 36.8904C18.7805 36.8904 18.114 36.2208 18.114 35.3979C18.114 34.5749 18.7807 33.9051 19.6 33.9051C20.4192 33.9051 21.0861 34.5749 21.0861 35.3979C21.0861 36.2208 20.4194 36.8904 19.6 36.8904Z" fill="#FFD601"/>
<path d="M50.1286 8.56532L48.6026 7.28241C48.2835 7.014 47.8097 7.05851 47.5444 7.38171C47.2794 7.7051 47.3233 8.18486 47.6425 8.45328L48.5904 9.25015L43.6969 15.219C42.6848 16.4534 40.8701 16.624 39.6509 15.5993C39.0601 15.1028 38.696 14.4031 38.625 13.6294C38.5542 12.8556 38.785 12.1 39.2753 11.5021L44.1686 5.53325L45.1168 6.33012C45.4359 6.59854 45.9097 6.55402 46.175 6.23082C46.4398 5.90743 46.3961 5.42767 46.0767 5.15926L44.5507 3.87635C44.3975 3.74737 44.2004 3.68555 44.0013 3.70419C43.8029 3.72283 43.6199 3.82061 43.4925 3.97584L38.1191 10.5302C37.3723 11.441 37.0205 12.5915 37.1289 13.7702C37.2121 14.6808 37.5647 15.522 38.1347 16.2072C36.044 19.1178 37.1013 22.1934 38.1273 25.1718C38.9917 27.6806 39.8851 30.2747 39.2736 33.1402C38.8014 35.3508 37.1516 36.6107 35.8507 37.2786C33.0576 38.7122 29.2719 38.8047 26.0177 37.5577C26.255 36.8594 26.3857 36.1114 26.3857 35.3328C26.3857 31.5527 23.3486 28.4773 19.6157 28.4773C15.8828 28.4773 12.8457 31.5527 12.8457 35.3328C12.8457 39.1128 15.8828 42.1881 19.6157 42.1881C22.0443 42.1881 24.1774 40.8858 25.3724 38.9352C27.0836 39.6067 28.9349 39.9443 30.7477 39.9443C32.8153 39.9443 34.8316 39.5079 36.53 38.6361C38.7805 37.481 40.2766 35.6434 40.7423 33.462C41.4434 30.1779 40.4355 27.252 39.5464 24.6708C38.5442 21.7614 37.7422 19.4297 39.2872 17.1903C39.9682 17.5917 40.7265 17.7905 41.4828 17.7905C42.7404 17.7905 43.9896 17.2457 44.8536 16.1916L50.227 9.63727C50.4919 9.3135 50.448 8.83393 50.1286 8.56532ZM19.6155 40.6657C16.7112 40.6657 14.3484 38.2732 14.3484 35.3322C14.3484 32.3911 16.7112 29.9985 19.6155 29.9985C22.5198 29.9985 24.8827 32.3911 24.8827 35.3322C24.8828 38.2732 22.52 40.6657 19.6155 40.6657Z" fill="#FFD601"/>
</svg>
