<svg id="s-lor" viewBox="0 0 56 45" fill="none" xmlns="http://www.w3.org/2000/svg">
<g clip-path="url(#clip0)">
<path d="M30.2585 27.4165C28.1833 28.1967 26.9176 28.1967 24.8424 27.4165C24.4189 27.2574 23.9468 27.4705 23.7873 27.8919C23.6276 28.3133 23.8414 28.7843 24.2643 28.9432C25.4774 29.3992 26.5139 29.6273 27.5506 29.6273C28.5872 29.6273 29.6237 29.3994 30.8368 28.9432C31.2598 28.7843 31.4735 28.3133 31.3138 27.8919C31.1541 27.4705 30.6818 27.2578 30.2585 27.4165Z" fill="#343D42"/>
<path d="M35.1931 34.4665C38.8173 32.3588 41.2598 28.4449 41.2598 23.9705V22.5201C40.7378 22.8591 40.191 23.1626 39.6221 23.4272V23.9705C39.6221 29.7686 34.8877 34.4857 29.0683 34.4857H26.0324C20.213 34.4857 15.4786 29.7686 15.4786 23.9705V17.5844H16.6811V18.8602C16.6811 21.3455 18.7104 23.3672 21.2049 23.3672H22.6252C23.9349 23.3672 25.1681 22.8752 26.118 22.0516C25.6731 21.7218 25.2516 21.363 24.8518 20.9816C24.224 21.4573 23.4461 21.7355 22.6252 21.7355H21.2049C19.6136 21.7355 18.3188 20.4456 18.3188 18.8602V17.5844H22.2765C21.9987 17.0598 21.7531 16.5158 21.5469 15.9527H17.5H15.4786V13.5182C15.4786 13.0872 15.5079 12.663 15.5589 12.2454H20.775C20.7584 11.9754 20.7473 11.7037 20.7473 11.4296C20.7473 11.1555 20.7586 10.8838 20.775 10.6137H15.8915C16.9358 7.0005 19.8752 4.1807 23.564 3.2959C24.1091 2.6012 24.7218 1.96218 25.3931 1.38843C18.9667 1.72089 13.8409 7.03416 13.8409 13.5182V15.9527H11.3189C10.8666 15.9527 10.5 16.318 10.5 16.7686C10.5 17.2191 10.8666 17.5844 11.3189 17.5844H13.8409V23.9707C13.8409 28.4451 16.2833 32.359 19.9076 34.4667C14.9304 34.9256 11.0204 39.1077 11.0204 44.1844C11.0204 44.635 11.387 45.0003 11.8392 45.0003C12.2914 45.0003 12.6581 44.635 12.6581 44.1844C12.6581 39.7017 16.3186 36.0548 20.8175 36.0548H21.514C21.5297 36.0548 21.5447 36.0511 21.5604 36.0503L26.9714 41.4417C27.125 41.5947 27.3334 41.6805 27.5503 41.6805C27.7673 41.6805 27.9757 41.5947 28.1293 41.4417L33.5403 36.0503C33.5558 36.0513 33.5708 36.0548 33.5867 36.0548H34.2832C38.7823 36.0548 42.4426 39.7019 42.4426 44.1844C42.4426 44.635 42.8093 45.0003 43.2615 45.0003C43.7137 45.0003 44.0803 44.635 44.0803 44.1844C44.0803 39.1075 40.1703 34.9254 35.1931 34.4665ZM27.5503 39.7102L23.7216 35.8955C24.4702 36.0393 25.2424 36.1174 26.0324 36.1174H29.0683C29.8583 36.1174 30.6305 36.0393 31.3791 35.8955L27.5503 39.7102Z" fill="#343D42"/>
<path d="M34.0287 7.17139C31.672 7.17139 29.7549 9.08151 29.7549 11.4295C29.7549 13.7776 31.672 15.6877 34.0287 15.6877C36.3853 15.6877 38.3025 13.7776 38.3025 11.4295C38.3025 9.08151 36.3851 7.17139 34.0287 7.17139ZM34.0287 14.056C32.575 14.056 31.3926 12.8779 31.3926 11.4295C31.3926 9.9812 32.575 8.8031 34.0287 8.8031C35.4823 8.8031 36.6648 9.9812 36.6648 11.4295C36.6648 12.8779 35.4821 14.056 34.0287 14.056Z" fill="#42A53B"/>
<path d="M34.0286 -0.00140381C27.7024 -0.00140381 22.5557 5.12646 22.5557 11.4296C22.5557 17.7327 27.7024 22.8605 34.0286 22.8605C40.3549 22.8605 45.5016 17.7327 45.5016 11.4296C45.5016 5.12646 40.3549 -0.00140381 34.0286 -0.00140381ZM34.0286 21.2274C28.6064 21.2274 24.1948 16.8322 24.1948 11.4296C24.1948 6.02696 28.6062 1.63174 34.0286 1.63174C39.4511 1.63174 43.8624 6.02696 43.8624 11.4296C43.8624 16.8322 39.4508 21.2274 34.0286 21.2274Z" fill="#42A53B"/>
</g>
<defs>
<clipPath id="clip0">
<rect width="56" height="45" fill="white"/>
</clipPath>
</defs>
</svg>
