<svg id="s-neuro" viewBox="0 0 56 45" fill="none" xmlns="http://www.w3.org/2000/svg">
<path fill-rule="evenodd" clip-rule="evenodd" d="M43.4445 45C42.9465 45 42.6222 44.6138 42.6185 44.0162C42.6114 42.7575 42.6124 41.4992 42.6141 40.2405L42.6154 38.8708L42.6461 38.695C42.6461 38.1959 42.6437 37.697 42.6414 37.1982C42.636 36.0863 42.6306 34.9369 42.6529 33.8075C42.6861 32.1102 43.1845 30.5267 44.1347 29.1027C45.6378 26.8498 46.5742 24.6862 46.9972 22.4889C48.0609 16.9645 46.7776 12.0089 43.183 7.7596C40.3788 4.44454 36.7077 2.44226 32.2722 1.8083C31.4907 1.69668 30.6946 1.64007 29.9054 1.64007C22.2398 1.64007 15.2099 7.00291 13.1893 14.3915C12.7785 15.8936 12.582 17.5068 12.5887 19.3232C12.5957 21.2259 12.207 23.0598 11.4002 24.9305C10.9095 26.0687 10.4228 27.2307 9.95234 28.3545L9.50214 29.4286C9.37639 29.7281 9.30045 29.9382 9.38753 30.1184C9.47365 30.2967 9.67845 30.3664 9.98115 30.4522C10.2231 30.5206 10.4654 30.5878 10.7079 30.6551C11.1811 30.786 11.6703 30.922 12.1476 31.065C13.0699 31.3421 13.5894 31.9274 13.7363 32.854L14.0214 34.6486C14.2939 36.3621 14.5666 38.0759 14.8302 39.7912C15.0107 40.9641 15.7601 41.6112 16.9406 41.6133C18.0324 41.6154 19.1247 41.6169 20.2168 41.6169C21.1014 41.6169 21.9861 41.6156 22.8707 41.6133C25.5257 41.6057 27.4105 39.8212 27.5608 37.1727C27.5911 36.6456 27.9059 36.3179 28.3827 36.3179C28.8957 36.324 29.2082 36.6791 29.2094 37.2457C29.2162 40.1844 26.7676 42.9463 23.969 43.1563C22.5396 43.2636 21.1007 43.2773 20.0067 43.2773C19.4587 43.2773 18.9103 43.2733 18.3621 43.2697C17.8133 43.2661 17.2644 43.2621 16.7162 43.2621H16.5517C16.2535 43.2621 15.913 43.1787 15.4779 42.9988C14.151 42.4508 13.4073 41.4577 13.2041 39.9624C13.0976 39.177 12.9614 38.3831 12.8297 37.615C12.6405 36.5131 12.4451 35.3732 12.336 34.2473C12.216 33.0038 11.6603 32.4208 10.4781 32.2983C10.1819 32.2675 9.87822 32.1709 9.58462 32.0777C9.49508 32.0494 9.40596 32.0209 9.31652 31.9943C8.66945 31.8012 8.16698 31.3895 7.90134 30.8351C7.63913 30.288 7.63281 29.6506 7.88334 29.0398C8.25042 28.1433 8.63389 27.2363 9.00482 26.3589C9.37297 25.4881 9.75343 24.5877 10.1183 23.6978C10.7047 22.2656 10.9829 20.7791 10.9449 19.2795C10.8371 15.0221 12.2554 10.7803 14.9379 7.33554C17.6514 3.85107 21.4834 1.42558 25.7282 0.505884C27.2773 0.170266 28.8055 0 30.2716 0C35.2195 0 39.6685 1.91416 43.4952 5.68906C47.2345 9.37819 49.0855 13.9964 48.9969 19.4157C48.9375 23.0245 47.8923 26.3737 45.8906 29.3699C44.7593 31.0632 44.2197 32.8802 44.2407 34.9249C44.2637 37.0783 44.2568 39.2684 44.2504 41.3863C44.2481 42.26 44.2452 43.1341 44.2443 44.0078C44.2439 44.6193 43.9375 44.9996 43.4445 45Z" fill="#343D42"/>
<path fill-rule="evenodd" clip-rule="evenodd" d="M32.1674 30.9373C31.6499 30.9373 31.3502 30.5766 31.3445 29.9477C31.3408 29.52 31.3422 29.0929 31.3437 28.6653C31.3445 28.2754 31.3458 27.8862 31.3433 27.4967C31.3343 26.0419 30.2372 24.9683 28.7344 24.9436C28.6022 24.9417 28.4697 24.941 28.3368 24.941C28.2075 24.941 27.6902 24.9436 27.5614 24.9436C27.0477 24.9436 26.4989 24.9331 25.9663 24.8576C24.4186 24.6385 23.3419 23.7503 22.766 22.2183C22.6516 21.915 22.5071 21.7341 22.1053 21.7061C19.3265 21.5117 16.9501 19.133 16.8077 16.4038C16.6585 13.5386 18.7147 10.9434 21.4888 10.4959C22.4178 10.3459 22.8699 10.0198 23.2809 9.20318C24.3924 6.99605 26.6517 5.625 29.1768 5.625C31.4173 5.625 33.4331 6.67036 34.7067 8.49335C34.9553 8.84837 35.2323 9.00032 35.6634 9.01764C38.7547 9.14254 41.2396 11.6902 41.2019 14.6967C41.1948 15.2931 41.3647 15.6749 41.8078 16.0578C43.3612 17.3995 43.8391 19.6553 42.9697 21.5431C42.146 23.3317 40.3672 24.4429 38.3284 24.4429C38.1648 24.4429 37.9983 24.4359 37.834 24.4215C35.815 24.2447 34.035 22.7305 33.5056 20.7388C33.4893 20.6766 33.4756 20.6138 33.4592 20.541L33.3998 20.2789L33.2629 20.2753C32.0061 20.242 31.0427 19.8182 30.3183 18.9796C29.9341 18.535 29.9281 18.0471 30.3027 17.7369C30.4497 17.6149 30.6149 17.5531 30.7935 17.5531C31.0451 17.5531 31.3082 17.6804 31.5335 17.9115C32.0163 18.406 32.5866 18.6673 33.1834 18.6673C33.4481 18.6673 33.711 18.6147 33.9647 18.5109C34.8252 18.159 35.2566 17.4334 35.2129 16.4121C35.1936 15.9716 35.3007 15.4349 35.9191 15.38C35.9514 15.3772 35.9834 15.3756 36.0146 15.3756C36.4697 15.3756 36.7603 15.6864 36.8326 16.2507C37.001 17.5693 36.5212 18.6704 35.4061 19.5234C35.1097 19.7503 35.0176 19.9995 35.0992 20.3569C35.3767 21.5776 36.5471 22.6245 37.8212 22.7915C38.0087 22.8161 38.1957 22.8287 38.3778 22.8287C39.6657 22.8287 40.7488 22.21 41.3496 21.1317C41.9838 19.9925 41.8299 18.4741 40.9835 17.5211C40.9447 17.4777 40.9036 17.4445 40.8597 17.4094C40.8405 17.3942 40.8208 17.3782 40.7997 17.36L40.6514 17.2328L40.4592 17.5022C40.411 17.5708 40.3667 17.6348 40.3185 17.6964C40.1344 17.9323 39.8791 18.0676 39.6173 18.0676C39.4791 18.0676 39.3446 18.0313 39.2181 17.96C38.8171 17.7339 38.6931 17.2811 38.9237 16.8829C39.3906 16.0771 39.594 15.248 39.5458 14.3479C39.4364 12.3314 37.4904 10.5624 35.3818 10.5624C35.2197 10.5624 35.057 10.5731 34.8977 10.594C34.7682 10.6112 34.6591 10.6195 34.5654 10.6195C34.1687 10.6195 33.9833 10.4802 33.7029 9.97168C32.6955 8.14558 31.1575 7.21974 29.131 7.21974L29.0287 7.22056C26.4396 7.26006 24.2282 9.43371 24.1994 11.9668C24.198 12.102 24.2045 12.2372 24.2109 12.3723C24.218 12.5195 24.2246 12.6586 24.2212 12.7987C24.2116 13.2143 23.9041 13.54 23.4904 13.5729C23.4674 13.5747 23.4445 13.5756 23.4219 13.5756C23.0191 13.5756 22.6802 13.2868 22.6159 12.889C22.5897 12.7269 22.5721 12.5638 22.5546 12.4033C22.5467 12.3315 22.514 12.0499 22.514 12.0499L22.3693 12.0391C22.3063 12.0345 22.2431 12.0321 22.1798 12.0321C20.447 12.0321 18.616 13.7895 18.483 15.58C18.3916 16.8182 18.7643 17.9675 19.5331 18.8163C20.2351 19.5911 21.2179 20.0517 22.3009 20.1137L22.3993 20.1193L22.4555 20.0412C22.615 19.8193 22.7637 19.5974 22.9098 19.3797C23.2258 18.908 23.5243 18.4624 23.8904 18.0832C24.5565 17.3932 25.4505 17.0433 26.548 17.0433H26.5755C27.0885 17.046 27.4189 17.3264 27.4378 17.7752C27.4623 18.3713 27.0289 18.553 26.6612 18.6002C25.0647 18.8054 24.1438 19.7367 24.1979 21.0915C24.246 22.2884 25.2878 23.2884 26.5203 23.3209C26.7203 23.3259 26.9203 23.3272 27.1209 23.3272L27.7269 23.3259C28.2966 23.3259 28.7727 23.3376 29.2445 23.396C31.4716 23.6702 32.949 25.2748 33.0079 27.4838C33.0298 28.2941 33.0188 29.0935 33.003 29.9796C32.9926 30.5754 32.6836 30.9336 32.1766 30.9375H32.1674V30.9373Z" fill="#E4097F"/>
<path fill-rule="evenodd" clip-rule="evenodd" d="M32.4929 16.1326C32.2478 16.119 32.0275 16.0111 31.8884 15.8367C31.7339 15.6432 31.6799 15.3775 31.7281 15.0476L31.7299 15.0355V15.0229C31.7366 14.0382 31.2659 13.2877 30.4371 12.9637C30.1983 12.8703 29.9572 12.8231 29.72 12.8231C29.1441 12.8231 28.5956 13.1027 28.1342 13.6319C27.8932 13.9083 27.6184 14.0602 27.3601 14.0602C27.1971 14.0602 27.0435 14.0013 26.9034 13.8849C26.3938 13.4611 26.6205 12.9336 26.9003 12.5659C27.5605 11.6984 28.6231 11.1805 29.7426 11.1805C30.1815 11.1805 30.6059 11.2604 31.0034 11.4182C32.4658 11.998 33.4742 13.5639 33.3494 15.0607C33.3221 15.3833 33.1897 16.1339 32.5423 16.1339C32.5421 16.1339 32.5094 16.1334 32.4929 16.1326Z" fill="#E4097F"/>
</svg>
