<svg id="s-trauma" viewBox="0 0 56 45" fill="none" xmlns="http://www.w3.org/2000/svg">
<g clip-path="url(#clip0)">
<path d="M41.8095 40.4225C40.4862 40.4225 39.4744 39.9979 38.8027 39.1607L38.3304 38.5982C38.013 38.2199 37.5442 38.003 37.0451 38.003C36.7319 38.003 36.4269 38.0899 36.163 38.2544C35.0486 38.9484 34.0043 39.3884 32.8761 39.6393C32.5609 39.7091 32.2428 39.7433 31.9035 39.7433C31.2416 39.7433 30.6303 39.613 30.0387 39.4869C29.4999 39.372 28.9966 39.2645 28.5056 39.2645C27.8555 39.2645 26.9086 39.4535 25.9059 39.6531C24.6061 39.912 23.1388 40.2038 21.7857 40.2038C18.9251 40.2038 17.9626 38.4084 17.9626 37.5893C17.9626 37.1144 17.9626 35.8527 24.9752 33.0076C33.539 29.5333 36.4609 26.6632 35.7978 17.4672C35.7781 17.1967 35.8967 16.9399 36.1152 16.7801C36.2488 16.6825 36.4069 16.6307 36.5724 16.6307C36.6728 16.6307 36.7712 16.6501 36.8644 16.6877L39.5395 17.7769L41.9143 16.3313C42.0358 16.2575 42.1754 16.2183 42.3175 16.2183C42.4523 16.2183 42.5855 16.254 42.7024 16.3211C42.9475 16.4618 43.0975 16.7254 43.0938 17.0085L42.9668 26.9455C42.9446 28.7005 43.4412 30.4022 44.4027 31.8664L45.1403 32.9895L45.1499 33.0006C45.8616 33.8118 46.2535 34.8678 46.2535 35.9735C46.2535 37.6817 45.3529 39.2457 43.9031 40.0547C43.8871 40.0638 43.8728 40.071 43.8582 40.078L43.602 40.1998C43.5394 40.2295 43.4728 40.2509 43.4042 40.2632C42.789 40.372 42.2822 40.4225 41.8095 40.4225ZM37.0397 36.4457C38.0027 36.4457 38.906 36.8638 39.5178 37.5925L39.9945 38.1603C40.2421 38.4706 40.6845 38.8625 41.8095 38.8625C42.1591 38.8625 42.5384 38.8263 43.0033 38.749L43.0321 38.7441L43.1613 38.6827C44.1154 38.1372 44.6994 37.1018 44.6994 35.9735C44.6994 35.2287 44.433 34.5257 43.9497 33.9942C43.9221 33.9639 43.8972 33.9317 43.875 33.8978L43.1053 32.7257C41.9717 30.9992 41.3863 28.9935 41.4127 26.9255L41.5217 18.3944L40.0107 19.3141C39.8894 19.3879 39.7501 19.427 39.608 19.427C39.5077 19.427 39.4093 19.4077 39.3161 19.3701L37.4167 18.5968L37.4259 18.9188C37.6759 27.9329 33.7976 31.1104 25.5565 34.4544C22.8301 35.5604 20.3497 36.8499 19.6583 37.5209L19.5352 37.6403L19.6272 37.7855C19.8299 38.1058 20.3806 38.6433 21.7852 38.6433C22.9889 38.6433 24.3777 38.3666 25.6033 38.1221C26.6832 37.9071 27.7034 37.704 28.5051 37.704C29.1588 37.704 29.7669 37.8335 30.3551 37.9589C30.8937 38.0741 31.4019 38.1828 31.9028 38.1828C32.1286 38.1828 32.3368 38.1607 32.5395 38.1157C33.4916 37.9041 34.3828 37.5266 35.3438 36.9282C35.8511 36.6126 36.4375 36.4457 37.0397 36.4457ZM53.8319 22.2553C53.7187 22.2553 53.6087 22.2308 53.5049 22.1825L49.5605 20.3396C49.1724 20.158 49.0035 19.6931 49.1842 19.3032C49.3112 19.029 49.5879 18.8516 49.8888 18.8516C50.0022 18.8516 50.1122 18.8764 50.2157 18.9247L54.1604 20.7676C54.5485 20.9492 54.7174 21.4141 54.5367 21.804C54.4099 22.0782 54.1332 22.2553 53.8319 22.2553ZM23.5768 22.2553C23.2754 22.2553 22.9985 22.0782 22.872 21.804C22.6915 21.4139 22.8601 20.9489 23.2485 20.7674L27.1927 18.9245C27.2965 18.8759 27.4065 18.8514 27.5197 18.8514C27.821 18.8514 28.0977 19.0285 28.2247 19.303C28.4052 19.6928 28.2363 20.1578 27.8481 20.3393L23.9035 22.1822C23.8002 22.2308 23.6902 22.2553 23.5768 22.2553ZM50.9193 15.718C50.4912 15.718 50.1427 15.368 50.1427 14.9379C50.1427 14.5079 50.4912 14.1579 50.9193 14.1579H55.2686C55.6967 14.1579 56.0451 14.5079 56.0451 14.9379C56.0451 15.368 55.6967 15.718 55.2686 15.718H50.9193ZM22.1403 15.718C21.7122 15.718 21.3638 15.368 21.3638 14.9379C21.3638 14.5079 21.7122 14.1579 22.1403 14.1579H26.4896C26.9177 14.1579 27.2662 14.5079 27.2662 14.9379C27.2662 15.368 26.9177 15.718 26.4896 15.718H22.1403ZM39.8546 15.0583C39.757 15.0583 39.6608 15.04 39.5693 15.0038L36.4511 13.7676C36.1603 13.6524 35.9677 13.3752 35.9598 13.0614L35.6614 1.16225C35.6506 0.732242 35.9902 0.37357 36.4183 0.362671C36.8562 0.362671 37.2039 0.703756 37.2143 1.12287L37.4996 12.5055L39.8026 13.4185L41.9377 12.2543L41.6519 1.41045C41.6405 0.980439 41.9799 0.621272 42.4077 0.609877C42.8526 0.609877 43.1936 0.943284 43.2045 1.36908L43.5031 12.6913C43.5105 12.9861 43.3549 13.2568 43.097 13.3977L40.225 14.9637C40.1119 15.0259 39.9839 15.0583 39.8546 15.0583ZM49.889 11.024C49.5877 11.024 49.311 10.8469 49.1842 10.5727C49.0037 10.1826 49.1724 9.71763 49.5605 9.53606L53.5049 7.69316C53.6087 7.64461 53.7187 7.62009 53.8321 7.62009C54.1332 7.62009 54.4099 7.7972 54.5367 8.07165C54.7172 8.46153 54.5485 8.92647 54.1604 9.10804L50.216 10.9509C50.1122 10.9995 50.0022 11.024 49.889 11.024ZM27.5199 11.024C27.4067 11.024 27.2967 10.9995 27.1929 10.9512L23.2488 9.10828C22.8604 8.92672 22.6915 8.46178 22.8722 8.0719C22.999 7.79769 23.2759 7.62034 23.5768 7.62034C23.69 7.62034 23.8002 7.64511 23.9038 7.69341L27.8484 9.53631C28.2365 9.71788 28.4057 10.1828 28.2249 10.5727C28.0977 10.8469 27.821 11.024 27.5199 11.024Z" fill="#343D42"/>
<path d="M4.27581 45C3.03048 45 2.03175 44.7305 1.30723 44.1989C0.710951 43.7607 0 42.9196 0 41.3984C0 40.6412 0.289756 39.9588 0.838197 39.4255C2.01276 38.2813 4.09654 38.0411 5.63779 38.0411C5.80893 38.0411 5.97588 38.044 6.1379 38.049C6.22298 38.052 6.30805 38.0532 6.39288 38.0532C7.98001 38.0532 9.51189 37.5786 10.8238 36.6809C11.7434 36.051 12.534 35.6428 13.4494 35.1702C14.3191 34.7214 15.3016 34.2148 16.6332 33.3897C20.1665 31.1314 23.0301 29.3943 26.391 27.7089C30.1684 25.8147 32.3758 21.8602 32.0145 17.6344L30.5918 0.997C30.5741 0.789426 30.638 0.587301 30.7716 0.427781C30.9053 0.268261 31.0927 0.170667 31.2996 0.152832C31.3213 0.151098 31.3432 0.150107 31.3647 0.150107C31.7652 0.150107 32.1057 0.46345 32.1398 0.863489L33.5624 17.5009C33.9787 22.3685 31.4362 26.9235 27.0849 29.1052C23.7834 30.7606 20.9539 32.4777 17.4581 34.712C16.0688 35.573 15.0562 36.0954 14.1625 36.5563C13.2563 37.0243 12.5406 37.3936 11.699 37.9695C10.1284 39.045 8.29442 39.6132 6.39535 39.6135C6.2935 39.6135 6.1919 39.6117 6.08981 39.6085C5.94259 39.6038 5.79784 39.6016 5.65579 39.6016C3.89753 39.6016 2.5358 39.9456 1.91979 40.5456C1.66998 40.7883 1.55383 41.0593 1.55383 41.3982C1.55383 42.1036 1.77331 42.6074 2.22434 42.9389C2.68302 43.2755 3.36586 43.4464 4.25411 43.4464C5.26074 43.4464 6.49818 43.2205 7.83303 42.793C8.6155 42.5423 9.42583 42.4152 10.2421 42.4152C10.5464 42.4152 10.8556 42.4331 11.1614 42.4682C13.7448 42.7642 15.4426 42.8851 17.0224 42.8851C20.0307 42.8851 22.5726 42.4336 27.5826 41.4943C28.1722 41.3838 28.7759 41.3276 29.3768 41.3276C29.8076 41.3276 30.2446 41.3563 30.6749 41.4135L31.2934 41.4955C34.8462 41.9676 38.8732 42.5024 42.1648 42.5024C46.0273 42.5024 48.2149 41.7497 48.8531 40.2008C50.6477 35.8447 49.2854 32.5886 47.8431 29.1414C46.8352 26.7325 45.7931 24.2421 45.8098 21.3098C45.8101 21.291 45.8108 21.2712 45.8123 21.2516L47.4537 0.718088C47.4852 0.315324 47.8246 0 48.2255 0C48.2465 0 48.2677 0.000743106 48.2889 0.00272472C48.4963 0.0193207 48.6842 0.115924 48.8186 0.274701C48.953 0.433478 49.0181 0.635355 49.0013 0.84293L47.3627 21.339C47.3563 23.9525 48.2879 26.1794 49.2743 28.5367C50.7766 32.1277 52.3297 35.8402 50.2874 40.7972C49.3685 43.0278 46.7652 44.0667 42.0941 44.0667C38.8012 44.0669 34.8815 43.546 31.091 43.0427L30.471 42.9604C30.108 42.9124 29.7401 42.8881 29.3771 42.8881C28.8708 42.8881 28.3626 42.9352 27.8662 43.028C22.9053 43.9582 20.17 44.4434 17.0263 44.4434C15.3916 44.4434 13.5845 44.3163 10.9843 44.0186C10.7377 43.9904 10.4879 43.976 10.2426 43.976C9.58489 43.976 8.93263 44.0778 8.30379 44.2792C6.81112 44.7575 5.45629 44.9998 4.27705 44.9998H4.27581V45Z" fill="#AA78FB"/>
</g>
<defs>
<clipPath id="clip0">
<rect width="56" height="45" fill="white"/>
</clipPath>
</defs>
</svg>
