<svg width="80" height="64" fill="none" xmlns="http://www.w3.org/2000/svg"><path d="M71.053 33.616c0-1.503-.4-2.903-1.126-3.94-.878-1.256-2.202-1.948-3.728-1.948H64.27l-.728-6.692c-.239-2.205-.072-2.462.67-3.193.279-.274.592-.548.925-.837 1.805-1.572 4.053-3.53 4.359-8.533a1.213 1.213 0 00-1.511-1.25c-.718.184-1.376.361-1.957.518-4.21 1.133-5.341 1.438-9.42-1.077a40.048 40.048 0 00-3.885-2.12 1.213 1.213 0 10-1.034 2.194 37.6 37.6 0 013.646 1.992c4.97 3.064 6.83 2.563 11.324 1.353l.2-.054c-.553 2.742-1.954 3.962-3.316 5.147-.344.3-.701.611-1.034.938-1.587 1.564-1.64 2.78-1.379 5.184l.681 6.26-2.457-.286c-9.267-1.076-13.918-1.616-25.53-4.652-.507-.133-.957-.266-1.39-.395-1.853-.55-3.316-.986-5.888-.263-3.26.916-5.679 1.915-8.514 4.249.014-4.262.103-5.942.661-9.708.319-2.137 1.52-4.014 3.213-5.022 1.055-.628 2.779-1.206 5.003-.395.383.14.81.077 1.137-.165a96.62 96.62 0 001.22-.923c3.113-2.383 6.989-5.349 12.471-5.573a1.213 1.213 0 10-.1-2.424c-6.247.256-10.64 3.616-13.846 6.07-.237.182-.467.358-.692.528-2.229-.635-4.49-.359-6.434.797-2.312 1.377-3.947 3.9-4.371 6.75-.646 4.357-.688 6.005-.69 11.582H13.8c-1.526 0-2.85.692-3.728 1.947-.727 1.038-1.127 2.438-1.127 3.94 0 2.89 1.508 5.93 4.336 6.814a15.672 15.672 0 00-1.313 6.287c0 8.393 6.588 15.222 14.686 15.222 1.76 0 3.166-.46 4.296-.828 1.294-.422 2.064-.647 2.85-.355C36.082 61.605 38.052 62 40 62s3.917-.396 6.199-1.245c.786-.292 1.557-.067 2.85.355 1.13.369 2.536.828 4.296.828 8.098 0 14.686-6.829 14.686-15.222 0-2.18-.452-4.321-1.313-6.287 2.828-.883 4.335-3.925 4.335-6.813zm-59.68 0c0-1.01.244-1.916.688-2.55.429-.614.998-.912 1.74-.912h1.803v5.094c0 1.482-.039 1.53-.411 1.995-.188.234-.426.532-.718.975-2.264-.339-3.102-2.864-3.102-4.602zm41.972 25.896c-1.374 0-2.477-.36-3.543-.708-1.39-.454-2.829-.924-4.448-.323-2.004.745-3.705 1.093-5.354 1.093s-3.35-.347-5.355-1.094c-1.618-.6-3.056-.13-4.447.324-1.066.348-2.169.708-3.543.708-6.76 0-12.26-5.74-12.26-12.796 0-2.358.622-4.663 1.797-6.666.381-.65.666-1.005.895-1.29.753-.941.943-1.453.943-3.512v-5.79c3.27-3.107 5.603-4.157 9.173-5.16 1.897-.533 2.836-.254 4.54.252.432.129.922.274 1.469.417 11.776 3.079 16.484 3.626 25.863 4.715l2.895.337v5.229c0 2.06.19 2.57.944 3.512.228.285.513.64.894 1.29a13.178 13.178 0 011.797 6.666c0 7.056-5.5 12.796-12.26 12.796zm12.18-21.294c-.292-.443-.53-.74-.718-.975-.372-.465-.411-.513-.411-1.995v-5.094h1.802c.743 0 1.312.298 1.741.912.444.634.688 1.54.688 2.55 0 1.738-.838 4.264-3.102 4.602z" fill="#343D42"/><path d="M33.661 35.773a1.213 1.213 0 00-1.715-.029c-1.515 1.466-3.983 1.465-5.5 0a1.213 1.213 0 00-1.686 1.745 6.372 6.372 0 004.437 1.772 6.364 6.364 0 004.436-1.773 1.213 1.213 0 00.028-1.715zM55.785 35.773a1.213 1.213 0 00-1.715-.029c-1.517 1.467-3.984 1.467-5.5 0a1.213 1.213 0 00-1.687 1.744 6.365 6.365 0 004.437 1.775 6.365 6.365 0 004.437-1.775 1.213 1.213 0 00.028-1.715zM48.792 47.201c-.67 0-1.213.544-1.213 1.213v.028c-2.145-.754-4.676-1.162-7.32-1.162-2.645 0-5.175.407-7.32 1.162v-.028a1.213 1.213 0 10-2.425 0v3.697a1.213 1.213 0 002.426 0v-1.07c4.204-1.796 10.433-1.796 14.64 0v1.07a1.213 1.213 0 102.425 0v-3.697c0-.67-.543-1.213-1.213-1.213z" fill="#343D42"/><path d="M20.41 45.533a1.216 1.216 0 00-2.43 0c0 .67.543 1.213 1.213 1.213h.007c.67 0 1.21-.543 1.21-1.213zM25.52 53.126a1.213 1.213 0 100 2.426h.007c.67 0 1.21-.543 1.21-1.213s-.547-1.213-1.217-1.213zM25.259 47.55h.007c.67 0 1.21-.543 1.21-1.212a1.216 1.216 0 00-2.43 0c0 .67.543 1.212 1.213 1.212zM20.93 49.877a1.213 1.213 0 000 2.426h.007c.67 0 1.21-.543 1.21-1.213s-.547-1.213-1.217-1.213zM61.326 44.32h-.007c-.67 0-1.21.543-1.21 1.213a1.216 1.216 0 002.43 0c0-.67-.543-1.213-1.213-1.213zM54.996 53.126h-.007c-.67 0-1.21.543-1.21 1.213a1.216 1.216 0 002.43 0c0-.67-.543-1.213-1.213-1.213zM55.257 45.124h-.007c-.67 0-1.21.543-1.21 1.213a1.216 1.216 0 002.43 0c0-.67-.543-1.213-1.213-1.213zM59.586 49.877h-.007c-.67 0-1.21.543-1.21 1.213a1.216 1.216 0 002.43 0c0-.67-.543-1.213-1.213-1.213z" fill="#0677EC"/><path d="M47.125 5.01h.003c.67 0 1.211-.542 1.211-1.212a1.214 1.214 0 00-2.427 0c0 .67.543 1.213 1.213 1.213z" fill="#343D42"/></svg>