<svg width="80" height="64" fill="none" xmlns="http://www.w3.org/2000/svg"><path d="M22.452 11.591l-11.93 17.437A14.382 14.382 0 008 37.178c0 7.96 6.474 14.435 14.434 14.435h.034c7.96 0 14.435-6.474 14.435-14.434 0-2.92-.872-5.74-2.521-8.15L22.452 11.59zm.017 37.957h-.034c-6.821 0-12.37-5.549-12.37-12.37 0-2.503.747-4.918 2.161-6.984l10.226-14.946 10.225 14.946a12.318 12.318 0 012.162 6.985c0 6.82-5.55 12.37-12.37 12.37z" fill="#343D42"/><path d="M14.194 37.179c0-.314.018-.625.052-.934l-2.05-.231a9.94 9.94 0 00-.067 1.165c0 5.681 4.624 10.305 10.34 10.305l-.034-2.065c-4.545 0-8.241-3.696-8.241-8.24zM15.635 32.525L13.93 31.36a10.304 10.304 0 00-1.203 2.359l1.943.693c.237-.663.56-1.298.964-1.886z" fill="#E4097F"/><path d="M72 18.58C72 8.337 63.664 0 53.42 0 43.173 0 34.838 8.336 34.838 18.58c0 8.454 5.68 15.593 13.419 17.837v2.809h-2.065v2.064h2.065v2.065h-2.065v2.064h2.065V64h10.323V45.42h2.064v-2.065h-2.064V41.29h2.064v-2.064h-2.064v-2.839C66.234 34.087 72 26.868 72 18.581zm-35.097 0c0-9.106 7.41-16.515 16.516-16.515 9.107 0 16.517 7.41 16.517 16.516 0 8.952-7.564 16.516-16.517 16.516-9.106 0-16.516-7.41-16.516-16.516zm19.613 43.356h-6.193V45.419h6.193v16.517zm0-18.581h-6.193V41.29h6.193v2.065zm0-4.13h-6.193v-2.343c1.01.17 2.04.28 3.096.28 1.054 0 2.086-.114 3.097-.293v2.357z" fill="#343D42"/><path d="M65.806 18.58h2.065A14.414 14.414 0 0057.866 4.827l-.635 1.964a12.354 12.354 0 018.575 11.79zM55.64 4.3c-.73-.114-1.476-.171-2.22-.171v2.065c.637 0 1.28.048 1.907.145l.314-2.04z" fill="#343D42"/><path d="M46.194 12.387a5.167 5.167 0 00-5.162 5.161v9.29h2.065v-6.193h6.193v6.194h2.065v-9.29a5.167 5.167 0 00-5.161-5.162zm-3.097 6.194v-1.033a3.1 3.1 0 013.096-3.096 3.1 3.1 0 013.097 3.096v1.033h-6.193zM63.742 22.71c0-1.232-.542-2.34-1.4-3.097a4.119 4.119 0 001.4-3.097 4.133 4.133 0 00-4.13-4.129H53.42V26.84h6.194a4.133 4.133 0 004.129-4.13zm-8.258-8.258h4.129c1.139 0 2.064.925 2.064 2.064a2.067 2.067 0 01-2.064 2.065h-4.13v-4.13zm0 6.193h4.129c1.139 0 2.064.926 2.064 2.065a2.067 2.067 0 01-2.064 2.064h-4.13v-4.129z" fill="#E4097F"/></svg>