<svg width="80" height="64" fill="none" xmlns="http://www.w3.org/2000/svg"><path d="M71.922 35.677a7.467 7.467 0 00-6.323-6.323v-1.94c0-5.35-4.067-9.706-9.066-9.706-4.856 0-8.92 4.224-9.067 9.416h.062l-.062.01v21.021c0 6.72-5.024 12.177-11.2 12.177-6.176 0-11.2-5.464-11.2-12.177v-1.82c1.547 0 3.2-1.121 3.2-4.267v-2.683C35.112 37.635 40 31.757 40 25.092v-2.224h-2.133l-.045-13.882a5.339 5.339 0 00-4.388-5.221 3.183 3.183 0 10-.072 2.175 3.2 3.2 0 012.324 3.052l.048 13.876H33.6v2.255a8.482 8.482 0 01-6.14 7.958 9.699 9.699 0 01-5.867 0 8.477 8.477 0 01-6.126-7.958v-2.255h-3.2V9.002a3.2 3.2 0 012.368-3.076 3.215 3.215 0 10-.067-2.167 5.333 5.333 0 00-4.435 5.243v13.866H8v2.219c0 6.672 4.89 12.552 11.733 14.298v2.683c0 3.146 1.654 4.267 3.2 4.267v1.82c0 7.894 5.98 14.31 13.333 14.31S49.6 56.042 49.6 48.156V27.186c.107-4.048 3.22-7.342 6.934-7.342 3.822 0 6.933 3.397 6.933 7.574v1.936a7.466 7.466 0 108.456 6.323zM30.4 5.802a1.067 1.067 0 110-2.134 1.067 1.067 0 010 2.134zM17.6 3.669a1.067 1.067 0 110 2.133 1.067 1.067 0 010-2.133zm-7.467 21.418v-.085h3.2v.121a10.598 10.598 0 007.614 9.987 11.87 11.87 0 007.166 0 10.6 10.6 0 007.62-9.987v-.121h2.133v.085c0 5.934-4.574 11.155-10.88 12.418a15.214 15.214 0 01-5.973-.002c-6.306-1.261-10.88-6.482-10.88-12.416zm12.8 19.114c-.96 0-1.067-1.493-1.067-2.133v-2.263c.086.01.173.015.26.023.106.012.213.02.32.03.504.045 1.013.075 1.526.076h.053c.512 0 1.02-.031 1.521-.076.107-.01.22-.018.33-.03.084-.01.172-.013.256-.023v2.263c0 .64-.107 2.133-1.067 2.133h-2.132zm41.6-2.133a5.333 5.333 0 115.333-5.333 5.34 5.34 0 01-5.334 5.333z" fill="#343D42"/><path d="M64.532 33.535a3.2 3.2 0 100 6.4 3.2 3.2 0 000-6.4zm0 4.267a1.067 1.067 0 110-2.134 1.067 1.067 0 010 2.133z" fill="#FFD601"/></svg>