<svg width="80" height="64" fill="none" xmlns="http://www.w3.org/2000/svg"><path d="M62.531 30.906h-9.08a5.44 5.44 0 001.096-3.281V9.469A5.475 5.475 0 0049.078 4h-4.156a1.094 1.094 0 000 2.188h4.156a3.285 3.285 0 013.281 3.28v18.157a3.285 3.285 0 01-3.28 3.281H30.921a3.285 3.285 0 01-3.281-3.281V9.469a3.285 3.285 0 013.28-3.281h4.157a1.094 1.094 0 000-2.188h-4.156a5.475 5.475 0 00-5.469 5.469v18.156a5.44 5.44 0 001.097 3.281h-9.081A5.475 5.475 0 0012 36.375v18.156A5.475 5.475 0 0017.469 60h18.156A5.464 5.464 0 0040 57.809 5.464 5.464 0 0044.375 60h18.156A5.475 5.475 0 0068 54.531V36.375a5.475 5.475 0 00-5.469-5.469zM35.625 57.813H17.469a3.285 3.285 0 01-3.282-3.282V36.375a3.285 3.285 0 013.282-3.281h18.156a3.285 3.285 0 013.281 3.281v18.156a3.285 3.285 0 01-3.281 3.282zm30.188-3.282a3.285 3.285 0 01-3.282 3.282H44.375a3.285 3.285 0 01-3.281-3.282V36.375a3.285 3.285 0 013.281-3.281h18.156a3.285 3.285 0 013.282 3.281v18.156z" fill="#343D42"/><path d="M61.944 36H45.056c-.583 0-1.056.473-1.056 1.056v16.888c0 .583.473 1.056 1.056 1.056h16.888c.583 0 1.056-.473 1.056-1.056V37.056c0-.583-.473-1.056-1.056-1.056zM60.89 52.889H46.11V38.11H60.89V52.89z" fill="#42A53B"/><path d="M34.944 36H18.056c-.583 0-1.056.473-1.056 1.056v16.888c0 .583.473 1.056 1.056 1.056h16.888c.583 0 1.056-.473 1.056-1.056V37.056c0-.583-.473-1.056-1.056-1.056zM33.89 52.889H19.11V38.11H33.89V52.89z" fill="#E4097F"/><path d="M30 10.056v16.888c0 .583.497 1.056 1.111 1.056H48.89c.614 0 1.111-.473 1.111-1.056V10.056C50 9.473 49.503 9 48.889 9H31.11C30.497 9 30 9.473 30 10.056zm2.222 1.055h15.556V25.89H32.222V11.11z" fill="#FFD601"/><path d="M40.91 13h-1.82c-.602 0-1.09.502-1.09 1.12 0 .62.488 1.121 1.09 1.121h.73v7.638c0 .62.488 1.121 1.09 1.121.602 0 1.09-.502 1.09-1.12v-8.76c0-.618-.488-1.12-1.09-1.12z" fill="#FFD601"/><path d="M23.9 43.981a1.114 1.114 0 001.308-.875 1.108 1.108 0 011.087-.888c.624 0 1.109.593 1.109 1.103 0 .439-.408 1.071-.763 1.573a896.207 896.207 0 01-3.084 4.346c-.245.338-.28.784-.09 1.155.19.371.574.605.993.605h4.426C29.5 51 30 50.503 30 49.89c0-.611-.499-1.108-1.114-1.108h-2.273l1.85-2.61c.607-.859 1.169-1.798 1.169-2.85 0-1.8-1.528-3.322-3.337-3.322a3.339 3.339 0 00-3.274 2.679 1.11 1.11 0 00.879 1.302z" fill="#E4097F"/><path d="M53 48.8c-.496 0-.922-.406-.99-.945A1.237 1.237 0 0152 47.7c0-.607-.448-1.1-1-1.1s-1 .493-1 1.1c0 .154.01.308.029.459C50.234 49.779 51.512 51 53 51c1.654 0 3-1.48 3-3.3 0-.845-.29-1.616-.766-2.2A3.478 3.478 0 0056 43.3c0-1.82-1.346-3.3-3-3.3-1.43 0-2.668 1.12-2.944 2.662-.106.596.247 1.174.789 1.291.541.117 1.067-.271 1.174-.867.091-.514.504-.886.981-.886.551 0 1 .493 1 1.1 0 .606-.449 1.1-1 1.1-.552 0-1 .492-1 1.1 0 .607.448 1.1 1 1.1.551 0 1 .493 1 1.1 0 .606-.449 1.1-1 1.1z" fill="#42A53B"/><path d="M40 6c.263 0 .521-.107.707-.293C40.893 5.52 41 5.263 41 5c0-.263-.107-.521-.293-.707A1.008 1.008 0 0040 4c-.263 0-.521.107-.707.293A1.008 1.008 0 0039 5c0 .263.107.521.293.707.186.186.444.293.707.293z" fill="#343D42"/></svg>