<svg width="80" height="64" fill="none" xmlns="http://www.w3.org/2000/svg"><path d="M35.939 41.141a1.016 1.016 0 100-2.031 1.016 1.016 0 000 2.031z" fill="#0677EC"/><path d="M18.063 19.812v4.063c0 .56.454 1.015 1.015 1.015h29.354c.56 0 1.015-.454 1.015-1.015v-4.063c0-.561-.455-1.016-1.015-1.016H19.078c-.56 0-1.015.455-1.015 1.016zm10.766 1.015h18.587v2.032H28.829v-2.032zm-8.735 0h6.704v2.032h-6.704v-2.032zM19.078 28.953h29.354a1.016 1.016 0 000-2.031H19.078a1.016 1.016 0 000 2.031zM19.078 33.016h29.354a1.016 1.016 0 000-2.032H19.078a1.016 1.016 0 000 2.032zM19.078 37.078h16.86a1.016 1.016 0 100-2.031h-16.86a1.016 1.016 0 000 2.031zM19.078 41.141h12.798a1.016 1.016 0 000-2.031H19.078a1.016 1.016 0 000 2.031z" fill="#343D42"/><path d="M27.813 49.267h5.18a5.087 5.087 0 004.977 4.062c2.8 0 5.078-2.278 5.078-5.078 0-2.8-2.278-5.078-5.078-5.078a5.087 5.087 0 00-4.976 4.062h-5.18a1.016 1.016 0 100 2.032zm10.157-2.032h-2.872a3.052 3.052 0 012.872-2.031 3.05 3.05 0 013.047 3.047 3.05 3.05 0 01-3.047 3.047 3.052 3.052 0 01-2.872-2.031h2.872a1.016 1.016 0 000-2.032zM48.432 14.124a1.016 1.016 0 000-2.031H46.4a1.016 1.016 0 000 2.031h2.032zM42.337 14.124a1.016 1.016 0 100-2.031h-2.03a1.016 1.016 0 000 2.031h2.03zM36.243 14.124a1.016 1.016 0 100-2.031h-2.031a1.016 1.016 0 100 2.031h2.031zM33.907 58.001a1.016 1.016 0 100-2.031 1.016 1.016 0 000 2.031z" fill="#0677EC"/><path d="M15.016 58.001h14.32a1.016 1.016 0 000-2.031H16.032V16.155h7.11c.561 0 1.016-.454 1.016-1.015V8.03h27.322v28.708a27.3 27.3 0 01-1.264 1.406l-2.153-2.153a5.074 5.074 0 00-7.182 0l-1.436 1.436a1.016 1.016 0 000 1.436l12.034 12.035v5.072h-13a1.016 1.016 0 000 2.031h14.016c.561 0 1.016-.454 1.016-1.015v-4.057l.297.298c.397.396 1.04.396 1.437 0l1.436-1.436a5.076 5.076 0 000-7.182l-2.153-2.154c1.927-1.877 6.165-4.995 8.391-5.965 3.126-1.36 4.253-5.61 1.587-8.277-2.647-2.647-6.877-1.571-8.263 1.563-.52 1.175-1.597 2.826-2.732 4.374V7.014c0-.56-.455-1.015-1.016-1.015H23.141c-.277 0-.537.116-.718.297l-8.125 8.125a1.02 1.02 0 00-.298.719v41.846c0 .56.455 1.015 1.016 1.015zm40.227-11.956a3.046 3.046 0 010 4.31l-.717.717-12.928-12.927.718-.718a3.044 3.044 0 014.31 0l8.617 8.618zm-1.953-8.306c1.76-2.123 3.93-5.154 4.81-7.141.789-1.785 3.298-2.62 4.968-.948 1.672 1.671.823 4.202-.96 4.978-2.528 1.1-6.927 4.347-9.017 6.391l-1.44-1.439a31.082 31.082 0 001.64-1.841zM22.125 9.466v4.658h-4.657l4.657-4.658z" fill="#343D42"/></svg>