<svg width="80" height="64" fill="none" xmlns="http://www.w3.org/2000/svg"><path d="M65.662 38.243A4.34 4.34 0 0070 33.91V6.334A4.34 4.34 0 0065.662 2H14.334A4.34 4.34 0 0010 6.334V33.91a4.34 4.34 0 004.334 4.334h4.615v16.86c0 .647.525 1.172 1.172 1.172h16.965v2.794a2.934 2.934 0 002.929 2.932h7.766a2.934 2.934 0 002.93-2.932v-7.933a2.934 2.934 0 00-2.93-2.932h-7.766a2.934 2.934 0 00-2.93 2.932v2.795H21.294V38.243h10.259V43.224c0 .647.525 1.172 1.172 1.172h28.209v3.808h-2.711a2.934 2.934 0 00-2.93 2.932v7.933a2.934 2.934 0 002.93 2.932h7.762a2.934 2.934 0 002.93-2.932v-7.933a2.934 2.934 0 00-2.93-2.932h-2.707v-4.98c0-.648-.525-1.172-1.172-1.172h-28.21v-3.809h31.767zM39.43 56.275h4.468a1.172 1.172 0 000-2.344H39.43v-2.794c0-.32.268-.59.585-.59h7.766c.318 0 .586.27.586.59v7.932a.588.588 0 01-.586.589h-7.766a.588.588 0 01-.585-.589v-2.794zm22.675 0c.647 0 1.172-.525 1.172-1.172v-4.555h2.707c.318 0 .586.27.586.588v7.933c0 .32-.268.589-.585.589h-7.763a.595.595 0 01-.586-.589v-7.933c0-.319.268-.588.586-.588h2.71v4.555c0 .647.526 1.172 1.173 1.172zM20.12 30.635a2.066 2.066 0 112.067-2.067 2.07 2.07 0 01-2.067 2.067zM31.55 35.9H21.294v-3.08a4.418 4.418 0 003.238-4.252 4.414 4.414 0 00-4.41-4.408 4.412 4.412 0 00-4.407 4.408 4.417 4.417 0 003.235 4.25V35.9h-4.615a1.993 1.993 0 01-1.99-1.99V6.333c0-1.097.893-1.99 1.99-1.99h51.328c1.1 0 1.994.893 1.994 1.99V33.91c0 1.098-.894 1.99-1.994 1.99H33.895v-3.08a4.417 4.417 0 003.236-4.252 4.412 4.412 0 00-4.407-4.407 4.414 4.414 0 00-4.411 4.407 4.418 4.418 0 003.239 4.252v3.08zm1.173-5.265a2.07 2.07 0 01-2.067-2.067 2.066 2.066 0 112.067 2.067z" fill="#343D42"/><path d="M45.17 26.995h.007a1.17 1.17 0 001.169-1.172 1.175 1.175 0 00-2.347 0c0 .647.524 1.172 1.171 1.172zM51.412 24.651a1.172 1.172 0 000 2.344h.01c.647 0 1.167-.525 1.167-1.172 0-.647-.53-1.172-1.177-1.172zM57.657 24.651a1.172 1.172 0 000 2.344h.007a1.17 1.17 0 001.168-1.172c0-.647-.528-1.172-1.175-1.172zM63.898 24.651a1.172 1.172 0 000 2.344h.007a1.17 1.17 0 001.169-1.172c0-.647-.528-1.172-1.175-1.172zM45.17 32.353h.007a1.17 1.17 0 001.169-1.172 1.175 1.175 0 00-2.347 0c0 .647.524 1.172 1.171 1.172zM51.412 30.01a1.172 1.172 0 000 2.343h.01c.647 0 1.167-.525 1.167-1.172 0-.647-.53-1.172-1.177-1.172zM57.657 30.01a1.172 1.172 0 100 2.343h.007a1.17 1.17 0 001.168-1.172c0-.647-.528-1.172-1.175-1.172zM63.898 30.01a1.172 1.172 0 000 2.343h.007a1.17 1.17 0 001.169-1.172c0-.647-.528-1.172-1.175-1.172zM45.177 21.235h18.721c.648 0 1.172-.525 1.172-1.172v-5.986c0-.647-.524-1.172-1.171-1.172H45.176c-.647 0-1.172.525-1.172 1.172v5.986c0 .647.525 1.172 1.172 1.172zm1.172-5.986h16.378v3.642H46.349V15.25z" fill="#0677EC"/><path d="M45.177 9.266h18.721a1.172 1.172 0 000-2.344H45.177a1.172 1.172 0 000 2.344z" fill="#343D42"/><path d="M40.901 18.488v-8.82a2.75 2.75 0 00-2.746-2.746h-4.983a1.172 1.172 0 000 2.344h4.983c.218 0 .402.185.402.403v8.82a.408.408 0 01-.402.402H17.669a.408.408 0 01-.402-.403v-8.82c0-.217.184-.402.402-.402h4.98a1.172 1.172 0 000-2.344h-4.98a2.75 2.75 0 00-2.746 2.747v8.82a2.75 2.75 0 002.746 2.746h20.486a2.75 2.75 0 002.746-2.747z" fill="#0677EC"/><path d="M27.91 9.266h.007a1.17 1.17 0 001.169-1.172 1.175 1.175 0 00-2.347 0c0 .647.524 1.172 1.171 1.172z" fill="#0677EC"/></svg>