<svg width="16" height="16" fill="none" xmlns="http://www.w3.org/2000/svg"><g clip-path="url(#clip0)" fill="#34358C"><path d="M12.152 9.783a.665.665 0 10-.307 1.296c2.07.492 2.821 1.218 2.821 1.588 0 .796-2.658 2-6.666 2-4.007 0-6.667-1.204-6.667-2 0-.37.752-1.096 2.821-1.588a.665.665 0 10-.307-1.296C1.367 10.37 0 11.395 0 12.667 0 14.855 4.025 16 8 16c3.975 0 8-1.145 8-3.333 0-1.272-1.366-2.296-3.848-2.884zM8 5.334A.667.667 0 108 4a.667.667 0 000 1.334z"/><path d="M7.132 12.422l.272.543a.667.667 0 001.193 0l.575-1.15c.699-1.399 1.562-2.754 2.396-4.065l.38-.598c.47-.744.719-1.603.719-2.485a4.675 4.675 0 00-1.56-3.483A4.673 4.673 0 007.455.032C5.38.268 3.667 1.938 3.38 4.004a4.658 4.658 0 00.86 3.423c1.131 1.532 2.014 3.237 2.892 4.995zM8 2.667c1.103 0 2 .897 2 2s-.897 2-2 2c-1.102 0-2-.897-2-2s.898-2 2-2z"/></g><defs><clipPath id="clip0"><path fill="#fff" d="M0 0h16v16H0z"/></clipPath></defs></svg>