<svg width="80" height="64" fill="none" xmlns="http://www.w3.org/2000/svg"><path d="M11.88 23.627a17.381 17.381 0 004.85 6.971c-4.504.84-7.927 4.826-7.927 9.606v13.69c0 .598.48 1.082 1.074 1.082.592 0 1.073-.484 1.073-1.082v-13.69c0-4.194 3.385-7.607 7.546-7.607h1.061a17.13 17.13 0 008.465 2.24c3.037 0 5.936-.805 8.465-2.24h1.062c4.16 0 7.546 3.413 7.546 7.607v4.924c0 .598.48 1.083 1.073 1.083s1.074-.485 1.074-1.083v-4.924c0-4.78-3.424-8.766-7.928-9.606a17.385 17.385 0 004.852-6.971 6.104 6.104 0 003.878-5.682c0-2.36-1.37-4.503-3.46-5.5C42.414 5.09 35.68 0 28.021 0c-7.66 0-14.393 5.09-16.56 12.445A6.109 6.109 0 008 17.945a6.104 6.104 0 003.88 5.682zm.84-9.368l.529-.193.144-.55c1.749-6.683 7.764-11.352 14.63-11.352 6.864 0 12.88 4.669 14.629 11.353l.143.549.53.193a3.927 3.927 0 01-.278 7.463l-.543.152-.184.537c-2.109 6.138-7.854 10.262-14.298 10.262-6.443 0-12.189-4.124-14.297-10.262l-.185-.537-.542-.152a3.927 3.927 0 01-.279-7.463zm4.69 3.16c0-1.687 1.36-3.059 3.033-3.059 1.673 0 3.034 1.372 3.034 3.059 0 .597-.481 1.082-1.074 1.082a1.078 1.078 0 01-1.073-1.082.891.891 0 00-.887-.894.891.891 0 00-.887.894c0 .597-.48 1.082-1.073 1.082a1.078 1.078 0 01-1.074-1.082zm15.55 0c0-1.687 1.36-3.059 3.034-3.059 1.672 0 3.033 1.372 3.033 3.059 0 .597-.48 1.082-1.073 1.082a1.078 1.078 0 01-1.074-1.082.891.891 0 00-.886-.894.891.891 0 00-.887.894c0 .597-.48 1.082-1.074 1.082a1.078 1.078 0 01-1.073-1.082zm-4.938 8.503c2.577 0 4.95-1.187 6.512-3.258a1.067 1.067 0 011.505-.206c.471.362.563 1.041.204 1.517-1.971 2.613-4.968 4.112-8.22 4.112-3.254 0-6.25-1.499-8.221-4.112a1.088 1.088 0 01.204-1.517 1.067 1.067 0 011.504.207c1.562 2.07 3.936 3.257 6.512 3.257z" fill="#343D42"/><path d="M28 46.344c-2.206 0-4 1.794-4 4s1.794 4 4 4 4-1.794 4-4-1.794-4-4-4zm0 6.122a2.125 2.125 0 01-2.123-2.122c0-1.17.953-2.123 2.123-2.123 1.17 0 2.123.952 2.123 2.123 0 1.17-.953 2.122-2.123 2.122z" fill="#0677EC"/><path d="M71.612 12.182l-2.18-1.825a1.068 1.068 0 00-1.511.141 1.089 1.089 0 00.14 1.524l1.354 1.134-6.99 8.489a4.087 4.087 0 01-5.781.54 4.12 4.12 0 01-1.465-2.8 4.134 4.134 0 01.928-3.027l6.991-8.489 1.354 1.134a1.068 1.068 0 001.512-.141 1.089 1.089 0 00-.14-1.524l-2.18-1.825a1.066 1.066 0 00-1.512.141l-7.676 9.322a6.292 6.292 0 00-1.415 4.608 6.277 6.277 0 001.437 3.466c-2.987 4.14-1.476 8.514-.01 12.75 1.234 3.568 2.51 7.257 1.637 11.333-.674 3.144-3.031 4.936-4.89 5.886-3.99 2.038-9.398 2.17-14.047.396a9.777 9.777 0 00.526-3.164c0-5.376-4.339-9.75-9.672-9.75-5.332 0-9.671 4.374-9.671 9.75s4.339 9.75 9.671 9.75c3.47 0 6.517-1.852 8.224-4.627a21.25 21.25 0 007.68 1.436c2.953 0 5.833-.621 8.26-1.86 3.215-1.644 5.352-4.257 6.017-7.36 1.002-4.67-.438-8.832-1.708-12.503-1.432-4.138-2.578-7.454-.37-10.639a6.222 6.222 0 007.952-1.42l7.676-9.322a1.09 1.09 0 00-.14-1.524zm-43.59 45.654c-4.149 0-7.524-3.403-7.524-7.586s3.375-7.585 7.524-7.585 7.525 3.402 7.525 7.585-3.376 7.586-7.525 7.586z" fill="#0677EC"/></svg>