<svg width="80" height="64" fill="none" xmlns="http://www.w3.org/2000/svg"><g clip-path="url(#clip0)"><path d="M43.226 38.992c-2.964 1.11-4.772 1.11-7.737 0a1.172 1.172 0 00-1.507.677c-.228.599.077 1.269.681 1.495 1.733.648 3.214.972 4.695.972 1.48 0 2.962-.324 4.695-.972.604-.226.91-.896.681-1.495a1.173 1.173 0 00-1.508-.677z" fill="#231F20"/><path d="M50.276 49.019c5.177-2.998 8.666-8.564 8.666-14.928V32.03c-.745.482-1.526.913-2.339 1.29v.772c0 8.247-6.764 14.955-15.077 14.955H37.19c-8.313 0-15.077-6.708-15.077-14.955V25.01h1.718v1.814c0 3.535 2.9 6.41 6.463 6.41h2.029a7.65 7.65 0 004.99-1.87 19.11 19.11 0 01-1.81-1.523 5.287 5.287 0 01-3.18 1.073h-2.03c-2.273 0-4.122-1.835-4.122-4.09V25.01h5.654a18.65 18.65 0 01-1.043-2.32h-8.669v-3.463c0-.613.042-1.216.115-1.81h7.451c-.023-.384-.039-.77-.039-1.16 0-.39.016-.777.04-1.161h-6.977c1.492-5.139 5.691-9.15 10.96-10.408a19.035 19.035 0 012.614-2.712c-9.18.472-16.503 8.03-16.503 17.25v3.463H16.17c-.646 0-1.17.52-1.17 1.16 0 .641.524 1.16 1.17 1.16h3.603v9.084c0 6.363 3.489 11.93 8.666 14.927-7.11.653-12.696 6.6-12.696 13.821 0 .64.524 1.16 1.17 1.16.646 0 1.17-.52 1.17-1.16 0-6.375 5.23-11.562 11.656-11.562h.995c.023 0 .044-.005.067-.006l7.73 7.667a1.175 1.175 0 001.654 0l7.73-7.667c.022.001.043.006.066.006h.995c6.427 0 11.656 5.187 11.656 11.562 0 .64.524 1.16 1.17 1.16.646 0 1.17-.52 1.17-1.16 0-7.22-5.586-13.168-12.696-13.821zm-10.918 7.458l-5.47-5.426c1.07.205 2.173.316 3.301.316h4.337c1.129 0 2.232-.111 3.301-.316l-5.47 5.426z" fill="#343D42"/><path d="M48.612 10.2c-3.367 0-6.105 2.716-6.105 6.055 0 3.34 2.739 6.056 6.105 6.056 3.367 0 6.106-2.716 6.106-6.056s-2.74-6.056-6.106-6.056zm0 9.79c-2.077 0-3.766-1.675-3.766-3.735 0-2.06 1.69-3.735 3.766-3.735 2.077 0 3.766 1.675 3.766 3.735 0 2.06-1.69 3.736-3.766 3.736z" fill="#0677EC"/><path d="M48.612-.002c-9.037 0-16.39 7.293-16.39 16.257 0 8.965 7.353 16.258 16.39 16.258 9.038 0 16.39-7.293 16.39-16.258 0-8.964-7.352-16.257-16.39-16.257zm0 30.192c-7.746 0-14.048-6.25-14.048-13.935 0-7.683 6.302-13.934 14.048-13.934S62.66 8.57 62.66 16.255c0 7.684-6.302 13.935-14.048 13.935z" fill="#0677EC"/></g><defs><clipPath id="clip0"><path fill="#fff" d="M0 0h80v64H0z"/></clipPath></defs></svg>