<svg width="80" height="64" fill="none" xmlns="http://www.w3.org/2000/svg"><path d="M35.42 46.712a1.067 1.067 0 00-1.508 0c-.1.102-10.22 9.98-23.22 1.98a1.067 1.067 0 00-1.118 1.813 21.558 21.558 0 0011.423 3.446 22.253 22.253 0 0014.424-5.734 1.067 1.067 0 000-1.505zM30.99 58.075c-.122.06-12.204 5.965-20.102-1.933a1.067 1.067 0 00-1.509 1.508A16.32 16.32 0 0021.3 62.368a26.765 26.765 0 0010.643-2.385 1.067 1.067 0 10-.953-1.908zM70.426 50.509a1.067 1.067 0 00-1.118-1.813 18.747 18.747 0 01-23.222-1.98 1.067 1.067 0 00-1.507 1.51 22.248 22.248 0 0014.424 5.733 21.559 21.559 0 0011.423-3.45zM48.056 59.983A26.757 26.757 0 0058.7 62.368a16.32 16.32 0 0011.92-4.718 1.067 1.067 0 00-1.508-1.508c-7.878 7.877-19.98 1.991-20.103 1.933a1.067 1.067 0 00-.953 1.908z" fill="#42A53B"/><path d="M37.867 1.6h-12.8c-.521 0-.966.377-1.052.89l-.762 4.55A4.267 4.267 0 0121.9 9.511c-5.838 5.227-6.012 5.578-6.124 5.803l-7.256 13.53a3.902 3.902 0 003.139 5.808l-1.062 1.975a3.888 3.888 0 003.314 5.858 3.864 3.864 0 003.626 4.982 3.762 3.762 0 003.332-1.946l.125-.197a3.791 3.791 0 006.634-.124l5.728-10.597.053 4.045A3.817 3.817 0 0040 41.25a3.824 3.824 0 006.595-2.602l.053-4.045 5.725 10.601a3.793 3.793 0 006.633.117l.08.128a3.794 3.794 0 005.494 1.354 3.963 3.963 0 001.508-4.318 3.887 3.887 0 003.319-5.85l-1.067-1.983a3.903 3.903 0 003.136-5.813L64.24 15.343c-.127-.253-.3-.6-6.139-5.83a4.267 4.267 0 01-1.354-2.472l-.762-4.55a1.067 1.067 0 00-1.052-.89h-12.8c-.589 0-1.066.478-1.066 1.067 0 2.938-.155 19.483-.584 21.25-.158.525-.32 1.081-.483 1.633-.156-.534-.32-1.075-.468-1.579-.457-1.869-.599-18.005-.599-21.304 0-.59-.477-1.067-1.066-1.067zm3.315 27.832c.044-.412.732-2.864 1.358-4.955.517-2.115.66-18.164.66-20.744h10.83l.609 3.657a6.416 6.416 0 002.04 3.712c3.87 3.466 5.493 5.013 5.667 5.226l7.253 13.522a1.852 1.852 0 01-.688 2.504 1.64 1.64 0 01-2.133-.607l-4.636-8.69a1.067 1.067 0 00-1.883 1.005c6.549 12.273 3.065 5.76 7.28 13.598.482.81.273 1.853-.484 2.415a1.694 1.694 0 01-2.396-.6c-.612-1.158 2.28 4.418-6.507-12.16a1.067 1.067 0 10-1.884.997c3.477 6.565 6.522 12.327 7.596 14.316a1.86 1.86 0 01-.477 2.418 1.682 1.682 0 01-2.454-.66c-2.856-4.503-.904-1.035-8.308-15.009a1.067 1.067 0 00-1.885 1c5.402 10.195 6.356 12.02 6.49 12.207a1.843 1.843 0 01-.544 2.208 1.693 1.693 0 01-2.435-.599l-7.68-14.22a1.067 1.067 0 00-2.006.494l-.106 8.148c-.005.458-.19.895-.516 1.216a1.697 1.697 0 01-2.876-1.247l.115-9.152zm-2.249 9.152a1.697 1.697 0 01-2.88 1.252 1.734 1.734 0 01-.515-1.215l-.106-8.15a1.067 1.067 0 00-2.006-.493l-7.68 14.204a1.692 1.692 0 01-2.438.603 1.844 1.844 0 01-.543-2.209c.133-.186 1.088-2.012 6.49-12.207a1.067 1.067 0 10-1.885-1c-7.372 13.915-5.553 10.667-8.35 15.081a1.683 1.683 0 01-2.409.589 1.86 1.86 0 01-.478-2.418c1.08-2 4.541-8.547 7.597-14.316a1.067 1.067 0 10-1.885-.998c-8.725 16.479-5.888 11.006-6.5 12.16a1.698 1.698 0 01-2.393.602 1.84 1.84 0 01-.482-2.425c4.118-7.661.88-1.6 7.275-13.59a1.067 1.067 0 00-1.883-1.004l-4.635 8.692c-.45.72-1.372.982-2.134.607a1.853 1.853 0 01-.69-2.501l7.222-13.467c.297-.352 1.936-1.909 5.699-5.28 1.08-.97 1.8-2.279 2.04-3.711l.606-3.657H36.8c0 2.468.143 18.63.674 20.8.612 2.035 1.3 4.489 1.342 4.859l.117 9.195v-.003z" fill="#343D42"/></svg>