<svg width="80" height="64" fill="none" xmlns="http://www.w3.org/2000/svg"><path fill-rule="evenodd" clip-rule="evenodd" d="M62.064 64c-.712 0-1.175-.55-1.18-1.4-.01-1.79-.009-3.579-.007-5.37l.002-1.947.044-.25c0-.71-.003-1.42-.007-2.129-.007-1.581-.015-3.216.017-4.822.047-2.414.76-4.666 2.117-6.691 2.147-3.205 3.485-6.282 4.089-9.407 1.52-7.857-.314-14.905-5.449-20.948-4.006-4.715-9.25-7.563-15.587-8.464a24.096 24.096 0 00-3.381-.24c-10.95 0-20.994 7.628-23.88 18.136-.587 2.136-.868 4.43-.858 7.014.01 2.706-.545 5.314-1.698 7.975a503.095 503.095 0 00-2.068 4.87l-.643 1.527c-.18.426-.289.725-.164.981.123.254.415.353.848.475.345.097.692.193 1.038.288.676.187 1.375.38 2.057.583 1.317.394 2.06 1.227 2.27 2.545l.407 2.552c.389 2.437.778 4.874 1.155 7.314.258 1.668 1.329 2.588 3.015 2.591 1.56.003 3.12.005 4.68.005 1.264 0 2.528-.001 3.791-.005 3.793-.01 6.486-2.548 6.7-6.315.044-.75.494-1.216 1.175-1.216.733.009 1.179.514 1.18 1.32.01 4.18-3.487 8.107-7.486 8.406-2.041.152-4.097.172-5.66.172-.783 0-1.566-.006-2.35-.01-.783-.006-1.568-.012-2.35-.012h-.236c-.426 0-.912-.118-1.534-.374-1.895-.78-2.958-2.192-3.248-4.319-.152-1.117-.347-2.246-.535-3.338-.27-1.567-.55-3.188-.705-4.79-.172-1.768-.965-2.597-2.654-2.772-.423-.043-.857-.18-1.277-.313-.127-.04-.255-.081-.383-.119-.924-.275-1.642-.86-2.021-1.649-.375-.778-.384-1.684-.026-2.553a366.208 366.208 0 011.602-3.813c.526-1.238 1.07-2.519 1.59-3.784a15.402 15.402 0 001.182-6.284c-.154-6.055 1.872-12.088 5.704-16.987 3.876-4.956 9.35-8.406 15.415-9.714C38.968.242 41.15 0 43.245 0c7.069 0 13.424 2.722 18.891 8.091 5.342 5.247 7.986 11.815 7.86 19.522-.085 5.133-1.578 9.896-4.438 14.158-1.616 2.408-2.387 4.992-2.357 7.9.033 3.063.023 6.177.014 9.19-.003 1.242-.008 2.485-.009 3.728 0 .87-.438 1.41-1.142 1.411z" fill="#343D42"/><path fill-rule="evenodd" clip-rule="evenodd" d="M45.953 44c-.739 0-1.167-.513-1.175-1.408-.005-.608-.003-1.215-.001-1.824 0-.554.003-1.108-.001-1.662-.013-2.069-1.58-3.596-3.727-3.63a38.312 38.312 0 00-.568-.004l-1.108.003c-.734 0-1.517-.015-2.278-.122-2.211-.312-3.75-1.575-4.572-3.754-.164-.43-.37-.688-.944-.728-3.97-.277-7.365-3.66-7.568-7.541-.213-4.075 2.724-7.766 6.687-8.403 1.327-.213 1.973-.677 2.56-1.838C34.846 9.949 38.074 8 41.681 8c3.2 0 6.08 1.487 7.9 4.08.355.504.75.72 1.367.745 4.416.178 7.966 3.801 7.912 8.077-.01.848.232 1.391.865 1.936 2.22 1.908 2.902 5.116 1.66 7.801-1.176 2.544-3.718 4.124-6.63 4.124-.234 0-.472-.01-.707-.03-2.884-.252-5.427-2.405-6.183-5.238-.023-.088-.043-.178-.066-.281l-.085-.373-.196-.005c-1.795-.047-3.171-.65-4.206-1.843-.55-.632-.558-1.326-.023-1.767a1.08 1.08 0 01.702-.262c.36 0 .735.181 1.057.51.69.703 1.504 1.075 2.357 1.075.378 0 .754-.075 1.116-.222 1.23-.5 1.846-1.533 1.783-2.985-.028-.627.125-1.39 1.009-1.468.046-.004.092-.006.136-.006.65 0 1.066.442 1.169 1.244.24 1.875-.445 3.442-2.038 4.655-.423.322-.555.677-.438 1.185.396 1.736 2.068 3.225 3.888 3.463.268.035.535.052.795.052 1.84 0 3.387-.88 4.246-2.413.906-1.62.686-3.78-.523-5.135a1.368 1.368 0 00-.177-.159 2.658 2.658 0 01-.086-.07l-.212-.181-.274.383c-.07.098-.132.189-.201.276-.263.336-.628.528-1.002.528-.197 0-.39-.052-.57-.153-.573-.322-.75-.965-.42-1.532.666-1.146.957-2.325.888-3.605-.156-2.868-2.936-5.384-5.949-5.384a5.34 5.34 0 00-.691.045 3.678 3.678 0 01-.475.036c-.567 0-.831-.198-1.232-.921-1.44-2.597-3.636-3.914-6.531-3.914l-.147.001c-3.698.056-6.857 3.148-6.899 6.75-.002.193.008.385.017.577.01.21.02.407.015.607a1.116 1.116 0 01-1.142 1.105 1.16 1.16 0 01-1.152-.977c-.037-.23-.062-.462-.087-.69l-.058-.503-.207-.016a3.82 3.82 0 00-.27-.01c-2.476 0-5.092 2.5-5.282 5.046-.13 1.761.402 3.396 1.5 4.603 1.003 1.102 2.407 1.757 3.954 1.845l.14.008.081-.111c.228-.316.44-.631.65-.94.45-.672.877-1.305 1.4-1.845.952-.981 2.229-1.479 3.797-1.479h.039c.733.004 1.205.403 1.232 1.041.035.848-.584 1.107-1.11 1.174-2.28.291-3.596 1.616-3.519 3.543.07 1.702 1.557 3.124 3.318 3.17.286.008.572.01.858.01l.866-.002c.814 0 1.494.016 2.168.1 3.181.39 5.292 2.671 5.376 5.813.031 1.152.016 2.29-.007 3.55-.015.847-.456 1.356-1.18 1.362h-.014z" fill="#0677EC"/><path fill-rule="evenodd" clip-rule="evenodd" d="M46.418 22.944a1.181 1.181 0 01-.863-.42c-.221-.276-.298-.654-.23-1.123l.003-.017v-.018c.01-1.4-.663-2.468-1.847-2.929a2.819 2.819 0 00-1.024-.2c-.823 0-1.606.398-2.266 1.15-.344.394-.736.61-1.105.61-.233 0-.453-.084-.653-.25-.728-.602-.404-1.352-.004-1.875.943-1.234 2.461-1.97 4.06-1.97.627 0 1.234.113 1.802.337 2.089.825 3.53 3.052 3.35 5.18-.038.46-.227 1.527-1.152 1.527 0 0-.047 0-.07-.002z" fill="#0677EC"/></svg>