<svg width="12" height="12" fill="none" xmlns="http://www.w3.org/2000/svg"><g clip-path="url(#clip0)"><path d="M11.037 7.877a6.813 6.813 0 01-2.14-.341c-.335-.114-.746-.01-.95.2l-1.35 1.019C5.032 7.92 4.068 6.956 3.244 5.403l.99-1.314a.97.97 0 00.238-.983A6.823 6.823 0 014.13.963.964.964 0 003.167 0H.963A.964.964 0 000 .963C0 7.049 4.951 12 11.037 12a.964.964 0 00.963-.963V8.84a.964.964 0 00-.963-.962z" fill="#E4097F"/></g><defs><clipPath id="clip0"><path fill="#fff" d="M0 0h12v12H0z"/></clipPath></defs></svg>