<svg width="80" height="64" fill="none" xmlns="http://www.w3.org/2000/svg"><g clip-path="url(#clip0)"><path d="M59.728 57.49c-1.89 0-3.336-.604-4.296-1.795l-.674-.8a2.393 2.393 0 00-1.836-.846c-.448 0-.884.123-1.26.357-1.593.987-3.084 1.613-4.696 1.97-.45.1-.905.148-1.39.148-.945 0-1.818-.185-2.664-.365-.77-.163-1.488-.316-2.19-.316-.928 0-2.281.269-3.714.552-1.856.369-3.953.784-5.886.784-4.086 0-5.461-2.554-5.461-3.719 0-.675 0-2.47 10.018-6.516 12.234-4.941 16.408-9.023 15.46-22.102-.027-.384.142-.75.454-.977a1.104 1.104 0 011.07-.131l3.822 1.549 3.392-2.056a1.115 1.115 0 011.126-.015c.35.2.565.575.56.978l-.182 14.132a12.377 12.377 0 002.051 6.999l1.054 1.597.014.016a6.382 6.382 0 011.576 4.228c0 2.43-1.286 4.654-3.357 5.805a.968.968 0 01-.064.033l-.366.173c-.09.042-.185.073-.283.09-.879.155-1.603.227-2.278.227zm-6.814-5.656c1.376 0 2.666.594 3.54 1.63l.681.808c.354.442.986.999 2.593.999.5 0 1.041-.051 1.705-.161l.041-.007.185-.088c1.363-.776 2.197-2.248 2.197-3.853 0-1.059-.38-2.059-1.07-2.815a1.08 1.08 0 01-.107-.137l-1.1-1.667a14.587 14.587 0 01-2.418-8.249l.156-12.133-2.159 1.308a1.11 1.11 0 01-.992.08l-2.713-1.1.013.458c.357 12.82-5.184 17.339-16.957 22.095-3.895 1.573-7.438 3.407-8.426 4.361l-.175.17.13.206c.29.456 1.077 1.22 3.084 1.22 1.72 0 3.703-.393 5.454-.741 1.543-.306 3-.595 4.146-.595.934 0 1.802.185 2.642.363.77.164 1.496.318 2.211.318.323 0 .62-.031.91-.095 1.36-.301 2.633-.838 4.006-1.689a4.596 4.596 0 012.423-.686zm23.989-20.182c-.162 0-.32-.035-.467-.104l-5.635-2.62a1.11 1.11 0 01.936-2.013l5.635 2.621a1.11 1.11 0 01-.47 2.116zm-43.222 0a1.111 1.111 0 01-.469-2.116l5.635-2.621a1.114 1.114 0 011.474.538 1.111 1.111 0 01-.538 1.474l-5.635 2.621c-.148.07-.305.104-.467.104zm39.06-9.298a1.11 1.11 0 01-1.109-1.109c0-.611.498-1.11 1.11-1.11h6.213a1.11 1.11 0 010 2.219h-6.213zm-41.112 0a1.11 1.11 0 01-1.11-1.109c0-.611.498-1.11 1.11-1.11h6.213a1.11 1.11 0 010 2.219H31.63zm25.306-.938c-.14 0-.277-.026-.407-.077l-4.455-1.758a1.107 1.107 0 01-.702-1.005l-.426-16.923A1.11 1.11 0 0152.026.516c.626 0 1.122.485 1.137 1.08l.408 16.19 3.29 1.298 3.05-1.656-.408-15.422a1.111 1.111 0 011.08-1.139c.635 0 1.122.475 1.138 1.08l.426 16.103c.01.419-.211.804-.58 1.005l-4.103 2.227a1.105 1.105 0 01-.529.134zm14.335-5.738c-.43 0-.826-.251-1.007-.641a1.111 1.111 0 01.538-1.475l5.635-2.62a1.113 1.113 0 011.474.538 1.111 1.111 0 01-.538 1.474l-5.635 2.62c-.148.07-.305.104-.467.104zm-31.956 0c-.161 0-.319-.034-.467-.103l-5.634-2.621a1.11 1.11 0 01.935-2.012l5.635 2.62a1.111 1.111 0 01-.469 2.117z" fill="#343D42"/><path d="M6.108 64c-1.779 0-3.206-.383-4.24-1.14C1.015 62.238 0 61.042 0 58.879c0-1.077.414-2.048 1.197-2.806 1.678-1.627 4.655-1.97 6.857-1.97.244 0 .483.005.714.012a11.199 11.199 0 006.694-1.946c1.314-.895 2.444-1.476 3.751-2.148 1.243-.639 2.646-1.359 4.549-2.532 5.047-3.212 9.138-5.683 13.94-8.08a14.54 14.54 0 008.033-14.328L43.703 1.418a1.103 1.103 0 01.256-.81 1.102 1.102 0 01.848-.395c.572 0 1.058.446 1.107 1.015l2.032 23.662c.595 6.923-3.037 13.401-9.253 16.504-4.717 2.354-8.759 4.797-13.753 7.974-1.985 1.225-3.431 1.968-4.708 2.623-1.294.666-2.317 1.191-3.52 2.01A13.401 13.401 0 018.7 56.332c-.21-.007-.417-.01-.62-.01-2.512 0-4.457.49-5.337 1.343-.357.345-.523.73-.523 1.212 0 1.004.313 1.72.958 2.192.655.478 1.63.721 2.9.721 1.437 0 3.205-.32 5.112-.929a11.312 11.312 0 014.755-.462c3.69.421 6.116.593 8.373.593 4.297 0 7.929-.642 15.086-1.978a14.016 14.016 0 014.417-.115l.884.117c5.075.671 10.828 1.432 15.53 1.432 5.518 0 8.644-1.07 9.555-3.274 2.564-6.195.618-10.826-1.443-15.728-1.44-3.426-2.928-6.968-2.904-11.139 0-.026.001-.055.003-.082L67.791 1.02A1.113 1.113 0 0168.984.004a1.1 1.1 0 01.757.387c.192.226.285.513.26.808l-2.34 29.15c-.01 3.717 1.322 6.884 2.73 10.237 2.147 5.107 4.366 10.387 1.448 17.437-1.313 3.172-5.032 4.65-11.705 4.65-4.704 0-10.303-.74-15.718-1.457l-.886-.117a11.815 11.815 0 00-3.721.096c-7.087 1.323-10.995 2.013-15.486 2.013-2.335 0-4.917-.18-8.631-.604a9.106 9.106 0 00-3.83.37C9.73 63.656 7.796 64 6.11 64h-.002z" fill="#0677EC"/></g><defs><clipPath id="clip0"><path fill="#fff" d="M0 0h80v64H0z"/></clipPath></defs></svg>