<svg width="170" height="20" fill="none" xmlns="http://www.w3.org/2000/svg"><g clip-path="url(#clip0)"><path fill-rule="evenodd" clip-rule="evenodd" d="M111.557 9.715c0-3.777-2.484-6.032-6.208-6.05-3.773 0-6.208 2.489-6.208 6.017 0 3.793 2.483 6.05 6.208 6.05 3.773 0 6.208-2.49 6.208-6.017zm-2.184-.017c0 2.457-1.541 4.112-4.008 4.112v-.002c-2.649-.017-4.04-1.822-4.04-4.11 0-2.44 1.525-4.094 4.008-4.11 2.649.016 4.04 1.82 4.04 4.11zM136.67 9.715c0-3.777-2.483-6.032-6.208-6.05-3.774 0-6.207 2.489-6.209 6.017 0 3.793 2.484 6.05 6.209 6.05 3.774 0 6.208-2.49 6.208-6.017zm-2.184-.017c0 2.457-1.541 4.112-4.008 4.112l.001-.002c-2.649-.017-4.04-1.822-4.04-4.11 0-2.44 1.524-4.094 4.008-4.11 2.648.016 4.039 1.82 4.039 4.11zM138.839 15.546V3.848h5.032c2.584 0 3.908.968 3.908 2.907 0 1.337-.53 2.223-1.722 2.691 1.424.25 2.07 1.17 2.07 2.69 0 2.424-1.722 3.41-4.537 3.41h-4.751zm4.735-6.752c1.308 0 2.135-.585 2.135-1.588 0-.935-.613-1.437-2.085-1.437h-2.715v3.025h2.665zm.151 4.83c1.588 0 2.317-.519 2.317-1.638 0-1.12-.827-1.555-2.284-1.555h-2.847v3.193h2.814zM154.119 7.49h-1.573V3.848h-2.068v11.698h3.661c3.377 0 5.198-1.371 5.198-4.095 0-2.64-1.543-3.96-5.218-3.96zm-1.573 6.134V9.412h1.755c2.02 0 2.897.552 2.897 1.989 0 1.588-.993 2.223-2.93 2.223h-1.722z" fill="#FF0D65"/><path d="M163.572 10.482h5.331l.002-1.922h-5.33V5.769h5.943V3.848h-8.016v11.698h8.195v-1.922h-6.125v-3.142z" fill="#FF0D65"/><path fill-rule="evenodd" clip-rule="evenodd" d="M115.792 11.902v3.644h-2.07V3.848h3.857c3.658 0 5.217 1.32 5.217 3.96 0 2.724-1.82 4.095-5.217 4.095h-1.787zm0-6.133V9.98h1.936c1.921 0 2.914-.635 2.914-2.222 0-1.437-.86-1.989-2.88-1.989h-1.97zM87.403 13.624c.662-1.588 1.142-3.794 1.192-7.353l.033-2.423h8.145v9.776h1.34v4.094h-1.936v-2.172h-8.096v2.172h-1.936v-4.094h1.258zm2.02 0h5.28V5.769h-4.187v.552c-.067 3.058-.434 5.465-1.093 7.303z" fill="#FF0D65"/><path d="M80.185 3.68c-1.838 0-3.178.552-3.84 1.036l-.002 2.908c.679-1.036 2.086-2.055 3.84-2.022 1.225.033 2.185.468 2.185 1.554 0 .87-.513 1.588-2.002 1.588h-1.74v1.721h1.755c1.805 0 2.566.485 2.566 1.52 0 1.188-1.125 1.79-2.532 1.806-2.137.017-3.643-.92-4.354-2.106v2.574c.615.701 2.217 1.47 4.32 1.454 3.113-.017 4.718-1.57 4.718-3.593 0-1.538-.858-2.474-2.646-2.741 1.341-.485 2.052-1.387 2.052-2.757 0-2.056-1.721-2.925-4.32-2.942z" fill="#FF0D65"/><path d="M31.426 13.453a4.453 4.453 0 002.155-.542l.553-.3 1.615 1.194c-1.066 1.145-2.636 1.775-4.436 1.775-1.72 0-3.292-.613-4.417-1.717S25.15 11.225 25.15 9.56c0-1.667.63-3.178 1.752-4.243 1.122-1.064 2.694-1.65 4.426-1.65 1.597 0 2.994.487 4.04 1.409l.118.1-1.79 1.325a3.8 3.8 0 00-2.271-.713c-2.25 0-3.884 1.612-3.884 3.833s1.633 3.833 3.884 3.833z" fill="#21A038"/><path fill-rule="evenodd" clip-rule="evenodd" d="M43.399 8.34H40.36V5.749h4.849l2.613-1.932h-9.958v11.61h5.209c2.923 0 4.6-1.33 4.6-3.648.002-2.216-1.517-3.437-4.275-3.437zm-.435 5.152h-2.603v-3.218h2.603c1.585 0 2.322.539 2.322 1.61 0 1.093-.784 1.608-2.322 1.608z" fill="#21A038"/><path d="M58.747 3.816l-2.614 1.932h-3.636v2.839h5.331v1.933h-5.331v2.972h6.25v1.933H50V3.815h8.746z" fill="#21A038"/><path fill-rule="evenodd" clip-rule="evenodd" d="M61.07 3.816h4.763c3.038 0 4.925 1.592 4.925 4.154 0 2.563-1.888 4.167-4.926 4.167h-2.265v3.288h-2.496V3.815zm2.497 6.388h2.212c1.6 0 2.48-.791 2.48-2.228 0-1.436-.88-2.228-2.48-2.228h-2.212v4.455z" fill="#21A038"/><path d="M17.255 3.769a9.74 9.74 0 011.154 1.927L9.633 12.21 5.966 9.895V7.111l3.667 2.314 7.622-5.656z" fill="#21A038"/><path d="M2.225 9.699c0-.125.003-.25.01-.372L.011 9.215a9.703 9.703 0 002.81 7.343l1.575-1.587A7.467 7.467 0 012.225 9.7z" fill="url(#paint0_linear)"/><path d="M9.633 2.24c.124 0 .247.005.37.01l.11-2.238a9.57 9.57 0 00-7.292 2.829l1.576 1.586A7.359 7.359 0 019.633 2.24z" fill="url(#paint1_linear)"/><path d="M9.632 17.158c-.124 0-.247-.003-.37-.01l-.11 2.238a9.57 9.57 0 007.292-2.829l-1.576-1.586a7.364 7.364 0 01-5.236 2.187z" fill="url(#paint2_linear)"/><path d="M13.809 3.542l1.873-1.39A9.548 9.548 0 009.632 0v2.24c1.549 0 2.987.481 4.177 1.302z" fill="url(#paint3_linear)"/><path d="M19.265 9.699c0-.593-.053-1.174-.155-1.738l-2.073 1.538a7.465 7.465 0 01-2.437 5.727l1.495 1.665a9.703 9.703 0 003.17-7.192z" fill="#21A038"/><path d="M9.633 17.157a7.367 7.367 0 01-5.49-2.457L2.49 16.206a9.578 9.578 0 007.143 3.192v-2.24z" fill="url(#paint4_linear)"/><path d="M4.665 4.17L3.17 2.508A9.704 9.704 0 000 9.699h2.225c.001-2.19.943-4.163 2.44-5.528z" fill="url(#paint5_linear)"/></g><defs><linearGradient id="paint0_linear" x1="3.272" y1="16.277" x2=".81" y2="9.211" gradientUnits="userSpaceOnUse"><stop offset=".144" stop-color="#F2E913"/><stop offset=".304" stop-color="#E7E518"/><stop offset=".582" stop-color="#CADB26"/><stop offset=".891" stop-color="#A3CD39"/></linearGradient><linearGradient id="paint1_linear" x1="3.457" y1="3.237" x2="9.73" y2=".863" gradientUnits="userSpaceOnUse"><stop offset=".059" stop-color="#0FA8E0"/><stop offset=".538" stop-color="#0099F9"/><stop offset=".923" stop-color="#0291EB"/></linearGradient><linearGradient id="paint2_linear" x1="9.004" y1="18.046" x2="16.09" y2="16.456" gradientUnits="userSpaceOnUse"><stop offset=".123" stop-color="#A3CD39"/><stop offset=".285" stop-color="#86C339"/><stop offset=".869" stop-color="#21A038"/></linearGradient><linearGradient id="paint3_linear" x1="9.167" y1=".751" x2="15.229" y2="2.608" gradientUnits="userSpaceOnUse"><stop offset=".057" stop-color="#0291EB"/><stop offset=".79" stop-color="#0C8ACB"/></linearGradient><linearGradient id="paint4_linear" x1="3.048" y1="15.933" x2="9.649" y2="18.383" gradientUnits="userSpaceOnUse"><stop offset=".132" stop-color="#F2E913"/><stop offset=".298" stop-color="#EBE716"/><stop offset=".531" stop-color="#D9E01F"/><stop offset=".802" stop-color="#BBD62D"/><stop offset=".983" stop-color="#A3CD39"/></linearGradient><linearGradient id="paint5_linear" x1=".829" y1="9.97" x2="3.507" y2="3.053" gradientUnits="userSpaceOnUse"><stop offset=".07" stop-color="#A3CD39"/><stop offset=".26" stop-color="#81C55F"/><stop offset=".922" stop-color="#0FA8E0"/></linearGradient><clipPath id="clip0"><path fill="#fff" d="M0 0h169.697v20H0z"/></clipPath></defs></svg>