<svg width="58" height="22" fill="none" xmlns="http://www.w3.org/2000/svg"><g clip-path="url(#clip0)"><path d="M5.7 11.99l-3.26 7.32H.062l3.58-7.829C1.96 10.626.837 9.077.837 6.217.837 2.21 3.375.205 6.395.205h3.073v19.106H7.41v-7.322H5.7zM7.41 1.941H6.315c-1.657 0-3.26 1.096-3.26 4.275 0 3.073 1.47 4.062 3.26 4.062H7.41V1.942z" fill="red"/><path d="M19.381 5.843v13.468h-2.057v-6.04h-3.1v6.04H12.14V5.843h2.084v5.719h3.1V5.843h2.057zm10.715 16.113h-1.87v-2.645h-5.772v2.645h-1.87v-4.355h.828c1.23-2.86 1.363-7.028 1.363-10.609V5.843h6.253v11.758h1.069v4.355zM26.97 7.526h-2.325v.241c0 2.833-.133 6.974-1.256 9.834h3.581V7.527zm8.872 11.972c-2.78 0-4.49-2.218-4.49-6.36 0-4.329 1.203-7.482 4.062-7.482 2.245 0 3.714 1.684 3.714 6.253v1.15h-5.611c0 3.045.855 4.649 2.511 4.649 1.176 0 2.112-.535 2.646-.909l.481 1.603a5.304 5.304 0 01-3.313 1.096zm-2.298-8.15h3.447c0-2.298-.375-3.982-1.577-3.982-1.283 0-1.737 1.577-1.87 3.982zm9.806 1.256v6.707h-2.084V5.843h2.084v6.226l3.233-6.226h2.111l-3.34 6.333 3.821 7.135h-2.27l-3.555-6.707zm6.093-.027c0-4.222 1.63-6.92 4.783-6.92 1.202 0 1.897.32 2.485.694l-.294 1.977c-.561-.48-1.363-.935-2.218-.935-1.496 0-2.565 1.684-2.565 5.077 0 3.367.801 5.29 2.485 5.29a3.403 3.403 0 002.271-.827l.481 1.55a4.077 4.077 0 01-2.806 1.015c-2.886 0-4.622-2.325-4.622-6.92z" fill="#000"/></g><defs><clipPath id="clip0"><path fill="#fff" d="M0 0h57.037v22H0z"/></clipPath></defs></svg>