<svg width="24" height="24" fill="none" xmlns="http://www.w3.org/2000/svg"><path d="M23.928 7.052c-.059-1.277-.261-2.15-.558-2.912a5.88 5.88 0 00-1.384-2.126A5.883 5.883 0 0019.86.63c-.763-.297-1.635-.5-2.912-.557C15.668.013 15.258 0 12 0 8.741 0 8.332.014 7.052.072 5.775.131 4.903.333 4.14.63c-.801.301-1.526.774-2.126 1.384A5.882 5.882 0 00.63 4.14c-.297.764-.5 1.636-.557 2.913C.013 8.332 0 8.741 0 12c0 3.259.014 3.668.073 4.948.058 1.277.26 2.149.557 2.912a5.88 5.88 0 001.384 2.126c.6.61 1.325 1.082 2.126 1.384.763.297 1.635.5 2.913.558C8.333 23.986 8.74 24 12 24c3.26 0 3.668-.014 4.948-.072 1.277-.059 2.15-.261 2.912-.558a6.135 6.135 0 003.51-3.51c.297-.763.5-1.635.558-2.912.058-1.28.072-1.69.072-4.948 0-3.26-.014-3.668-.072-4.948zm-2.16 9.797c-.053 1.17-.25 1.806-.413 2.228a3.974 3.974 0 01-2.278 2.278c-.423.164-1.058.36-2.228.413-1.265.058-1.645.07-4.849.07-3.205 0-3.584-.012-4.85-.07-1.169-.053-1.804-.249-2.227-.413a3.72 3.72 0 01-1.38-.898 3.718 3.718 0 01-.898-1.38c-.164-.422-.36-1.058-.413-2.228-.058-1.265-.07-1.645-.07-4.849s.012-3.584.07-4.849c.054-1.17.249-1.805.413-2.228.193-.522.5-.993.898-1.38a3.715 3.715 0 011.38-.898c.423-.164 1.058-.36 2.228-.413 1.265-.058 1.645-.07 4.849-.07s3.584.012 4.849.07c1.17.054 1.805.25 2.228.413.521.193.993.5 1.38.898.398.387.705.858.898 1.38.164.423.36 1.058.413 2.228.057 1.265.07 1.645.07 4.849s-.012 3.584-.07 4.85z" fill="url(#paint0_linear)"/><defs><linearGradient id="paint0_linear" x1="2.014" y1="21.986" x2="21.986" y2="2.014" gradientUnits="userSpaceOnUse"><stop stop-color="#FFD600"/><stop offset=".5" stop-color="#FF0100"/><stop offset="1" stop-color="#D800B9"/></linearGradient></defs></svg>