<svg width="65" height="22" fill="none" xmlns="http://www.w3.org/2000/svg"><g clip-path="url(#clip0)"><path d="M27.488 11.127c0 3.042-2.38 5.284-5.3 5.284s-5.3-2.242-5.3-5.284c0-3.063 2.38-5.283 5.3-5.283s5.3 2.22 5.3 5.283zm-2.32 0c0-1.9-1.38-3.201-2.98-3.201-1.601 0-2.98 1.3-2.98 3.201 0 1.882 1.379 3.202 2.98 3.202 1.6 0 2.98-1.322 2.98-3.202z" fill="#EA4335"/><path d="M38.923 11.127c0 3.042-2.38 5.284-5.3 5.284-2.921 0-5.301-2.242-5.301-5.284 0-3.06 2.38-5.283 5.3-5.283s5.3 2.22 5.3 5.283zm-2.32 0c0-1.9-1.38-3.201-2.98-3.201-1.602 0-2.98 1.3-2.98 3.201 0 1.882 1.378 3.202 2.98 3.202 1.6 0 2.98-1.322 2.98-3.202z" fill="#FBBC05"/><path d="M49.88 6.163v9.486c0 3.902-2.3 5.495-5.021 5.495-2.56 0-4.102-1.712-4.683-3.113l2.02-.841c.36.86 1.24 1.875 2.66 1.875 1.742 0 2.821-1.075 2.821-3.097v-.76h-.08c-.52.64-1.52 1.2-2.783 1.2-2.642 0-5.063-2.3-5.063-5.262 0-2.982 2.42-5.302 5.063-5.302 1.26 0 2.26.56 2.782 1.181h.081v-.86h2.204v-.002zm-2.038 4.983c0-1.86-1.242-3.22-2.821-3.22-1.6 0-2.942 1.36-2.942 3.22 0 1.842 1.341 3.183 2.942 3.183 1.58 0 2.82-1.341 2.82-3.183z" fill="#4285F4"/><path d="M53.514.603v15.484H51.25V.603h2.264z" fill="#34A853"/><path d="M62.332 12.866l1.801 1.2c-.581.86-1.982 2.342-4.402 2.342-3.002 0-5.243-2.32-5.243-5.283 0-3.142 2.26-5.284 4.983-5.284 2.742 0 4.083 2.182 4.522 3.361l.24.6-7.063 2.926c.54 1.06 1.382 1.6 2.561 1.6 1.182 0 2.001-.58 2.601-1.462zm-5.543-1.9l4.721-1.961c-.26-.66-1.04-1.12-1.96-1.12-1.18 0-2.82 1.041-2.761 3.08z" fill="#EA4335"/><path d="M8.321 9.753V7.51h7.554c.074.39.112.853.112 1.353 0 1.682-.46 3.762-1.942 5.243-1.44 1.501-3.282 2.302-5.722 2.302C3.802 16.409 0 12.726 0 8.204 0 3.683 3.802 0 8.323 0c2.502 0 4.284.981 5.622 2.26l-1.581 1.582c-.96-.9-2.261-1.6-4.043-1.6-3.302 0-5.884 2.66-5.884 5.962 0 3.302 2.582 5.963 5.884 5.963 2.142 0 3.361-.86 4.143-1.642.633-.633 1.05-1.538 1.214-2.775l-5.357.003z" fill="#4285F4"/></g><defs><clipPath id="clip0"><path fill="#fff" d="M0 0h64.233v22H0z"/></clipPath></defs></svg>