<svg width="132" height="40" fill="none" xmlns="http://www.w3.org/2000/svg"><path fill-rule="evenodd" clip-rule="evenodd" d="M132 12.965c0 3.05-.935 5.656-2.805 7.824h.007c-1.188 1.375-2.65 2.41-4.4 3.099-1.708.674-3.655 1.007-5.855 1.007h-5.378a1.264 1.264 0 01-1.272-1.258V2.286c0-.695.569-1.258 1.272-1.258h5.378c2.003 0 3.81.292 5.419.869a11.606 11.606 0 014.267 2.64 10.865 10.865 0 012.53 3.78c.556 1.403.837 2.953.837 4.648zm-24.103 11.93h-11.57a1.265 1.265 0 01-1.272-1.258V2.286c0-.695.57-1.258 1.272-1.258h11.57c.703 0 1.272.563 1.272 1.258v1.71c0 .694-.569 1.257-1.272 1.257h-8.196v4.315h7.852a1.27 1.27 0 011.279 1.257v1.71c0 .701-.576 1.264-1.279 1.264h-7.852v6.872h8.196c.703 0 1.272.562 1.272 1.257v1.71c0 .694-.569 1.257-1.272 1.257zm-16.814 0h-1.94a1.264 1.264 0 01-1.272-1.202l-1.497-11.437-6.087 12.764a1.273 1.273 0 01-1.688.605 1.254 1.254 0 01-.611-.605l-6.073-12.763-1.512 11.54a1.262 1.262 0 01-1.258 1.098h-1.94a1.265 1.265 0 01-1.244-1.522l2.91-22.108c.092-.688.732-1.168 1.427-1.084.464.062.83.36 1.005.75l7.838 16.571L87.006.896a1.27 1.27 0 012.405.369l2.93 22.213c.092.688-.4 1.313-1.096 1.403a1.17 1.17 0 01-.162.014zm36.151-11.93c0-1.209-.189-2.279-.569-3.21a6.636 6.636 0 00-1.673-2.404 7.49 7.49 0 00-2.657-1.563c-1.047-.355-2.249-.535-3.606-.535h-1.778V20.67h1.778c1.504 0 2.805-.195 3.909-.591 1.061-.382 1.947-.945 2.663-1.695l.007-.007a6.484 6.484 0 001.434-2.314c.331-.896.492-1.932.492-3.099z" fill="#31A128"/><path fill-rule="evenodd" clip-rule="evenodd" d="M64.352 3.245L60.246 9.88a1.282 1.282 0 01-1.672.459l-1.027-.459a1.268 1.268 0 01-.632-1.66l3.247-7.094A1.275 1.275 0 0161.842.5c.029.007.064.028.092.042l1.898.924a1.248 1.248 0 01.52 1.779z" fill="#009EE0"/><path fill-rule="evenodd" clip-rule="evenodd" d="M55.502 20.045c0 1.334-.429 2.495-1.3 3.481-.007.014-.022.021-.029.035A5.369 5.369 0 0152.051 25c-.809.305-1.715.458-2.735.458a7.33 7.33 0 01-1.518-.16 5.969 5.969 0 01-1.413-.5h-.007a5.71 5.71 0 01-1.736-1.39 7.213 7.213 0 01-1.195-2 1.26 1.26 0 01.633-1.613l1.462-.764a1.28 1.28 0 011.722.521c.042.084.077.16.098.244.092.257.197.486.323.687.127.195.268.362.436.507.029.021.05.042.07.063.162.132.331.236.52.306.226.083.493.118.795.118.563 0 .97-.132 1.21-.404.006-.013.02-.02.027-.034.197-.222.296-.535.296-.931 0-.535-.401-.952-1.21-1.25-.695-.216-1.082-.327-1.166-.355-.218-.07-.485-.153-.787-.257a7.893 7.893 0 01-1.441-.612 4.944 4.944 0 01-1.23-.903c-.401-.41-.71-.876-.914-1.397a4.596 4.596 0 01-.324-1.75c0-.73.14-1.41.422-2.03a4.48 4.48 0 011.251-1.632 5.428 5.428 0 011.8-1 6.61 6.61 0 012.094-.32c.478 0 .95.048 1.399.146.464.097.893.25 1.28.451l.084.042c.54.292 1.019.667 1.448 1.133a6.759 6.759 0 011.103 1.653c.296.612.05 1.341-.548 1.654l-1.385.736a1.282 1.282 0 01-1.722-.52c-.021-.036-.035-.07-.049-.105l-.007.007a2.025 2.025 0 00-.316-.55 1.785 1.785 0 00-.394-.367 1.59 1.59 0 00-.478-.23 2.043 2.043 0 00-.57-.076c-.337 0-.597.083-.773.257a.631.631 0 00-.175.243.851.851 0 00-.057.355c0 .16.021.285.07.368.05.083.127.153.24.222.056.021.225.084.52.18.386.14.914.32 1.588.536.612.194 1.167.417 1.652.66.528.257.963.535 1.315.834a4.607 4.607 0 011.307 1.688c.295.646.436 1.355.436 2.126z" fill="#FFCB00"/><path fill-rule="evenodd" clip-rule="evenodd" d="M40.13 24.902H38.4c-.45 0-.85-.236-1.082-.59l-.422.25a7.351 7.351 0 01-1.673.66 6.905 6.905 0 01-1.764.23 8.912 8.912 0 01-3.051-.515 7.968 7.968 0 01-2.587-1.556c-.007-.008-.02-.015-.028-.028a7.562 7.562 0 01-1.94-2.786c-.429-1.064-.64-2.245-.64-3.544 0-1.181.19-2.28.57-3.28a8.09 8.09 0 011.736-2.73 7.697 7.697 0 012.706-1.82c.998-.397 2.102-.598 3.297-.598 1.005 0 1.933.173 2.776.528l.007.007v-.007c.24.104.471.222.696.347V1.257A1.27 1.27 0 0138.281 0h1.848c.703 0 1.273.563 1.273 1.257v22.388c0 .694-.57 1.257-1.273 1.257zm-3.01-7.879c0-.667-.09-1.279-.273-1.82a4.375 4.375 0 00-.795-1.439 3.257 3.257 0 00-1.11-.896c-.415-.195-.886-.292-1.42-.292-.626 0-1.174.111-1.638.34a3.268 3.268 0 00-1.195 1.008c-.316.43-.555.896-.71 1.397a5.666 5.666 0 00-.239 1.702c0 .68.091 1.3.274 1.848.176.535.443 1.008.788 1.425.323.395.703.687 1.131.875.436.201.95.299 1.526.299.562 0 1.054-.098 1.483-.278.415-.181.794-.459 1.124-.834.345-.39.605-.84.78-1.369.183-.563.275-1.216.275-1.966z" fill="#E30079"/><path fill-rule="evenodd" clip-rule="evenodd" d="M23.33 5.92c0 .368-.07.716-.211 1.049-.14.333-.352.632-.626.882-.541.487-1.16.73-1.862.73-.338 0-.668-.056-.992-.18a2.66 2.66 0 01-.878-.536 2.474 2.474 0 01-.626-.896 2.73 2.73 0 01-.197-1.05c0-.333.057-.66.183-.979.12-.32.302-.604.541-.862.26-.278.563-.479.914-.618.33-.132.682-.194 1.055-.194.365 0 .71.055 1.026.18.351.139.646.327.9.584.26.25.45.542.583.882.127.313.19.653.19 1.008zm-1.772 18.989H19.71c-.71 0-1.28-.563-1.28-1.258V11.075c0-.695.57-1.257 1.28-1.257h1.848c.71 0 1.28.562 1.28 1.257v12.577c0 .694-.57 1.257-1.28 1.257z" fill="#F07C00"/><path fill-rule="evenodd" clip-rule="evenodd" d="M15.85 24.902h-2.804c-.401 0-.76-.18-.991-.466l-7.402-7.941v7.15c0 .694-.57 1.257-1.272 1.257H1.286a1.265 1.265 0 01-1.272-1.258V2.294c0-.695.57-1.258 1.272-1.258H3.38c.703 0 1.272.563 1.272 1.258v6.795l7.472-7.67c.253-.25.583-.383.92-.383h2.588c.702 0 1.272.563 1.272 1.258 0 .375-.169.708-.43.945l-9.327 9.415 9.623 10.137c.485.5.457 1.3-.05 1.772-.245.229-.561.34-.87.34z" fill="#009EE0"/><path fill-rule="evenodd" clip-rule="evenodd" d="M130.229 34.178v-1.306h-.696c-.661 0-.991.222-.991.653 0 .437.33.653.991.653h.696zm0 1.098h-.387l-1.581 2.014c-.12.16-.225.264-.31.313-.112.07-.26.097-.443.097-.232 0-.421-.07-.562-.215-.141-.153-.204-.285-.204-.403 0-.243.085-.466.267-.668l1.104-1.236c-.893-.18-1.343-.73-1.343-1.647 0-1.167.83-1.765 2.488-1.765h1.716c.393 0 .667.09.808.264.127.153.183.438.183.841v3.71c0 .744-.288 1.12-.872 1.12-.295 0-.52-.119-.668-.355-.133-.202-.196-.452-.196-.764v-1.306zm-7.704-.07v1.3h.703c.66 0 .991-.216.991-.647 0-.278-.106-.458-.317-.563-.133-.062-.358-.09-.674-.09h-.703zm0-1.112c.991 0 1.617.021 1.876.063.795.125 1.287.43 1.484.924.084.216.126.473.126.778 0 .702-.267 1.189-.808 1.453-.387.208-.984.305-1.786.305h-1.637c-.668 0-.998-.375-.998-1.111v-3.634c0-.737.295-1.105.878-1.105.577 0 .865.368.865 1.105v1.222zm-6.193 1.175v1.299h.703c.661 0 .991-.215.991-.646 0-.271-.105-.459-.316-.556-.134-.07-.358-.097-.675-.097h-.703zm-.745 2.41c-.668 0-.998-.375-.998-1.111v-3.696c0-.737.33-1.105.998-1.105h1.56c.788 0 1.371.104 1.744.305.506.278.759.758.759 1.453 0 .493-.246.868-.724 1.118.597.313.893.737.893 1.279 0 .702-.267 1.188-.809 1.459-.386.201-.984.299-1.785.299h-1.638zm.745-4.808v1.3h.703c.281 0 .485-.035.612-.105.175-.097.26-.277.26-.542 0-.43-.309-.653-.942-.653h-.633zm-6.755 1.835c0 .389.091.73.267 1.014.218.341.513.507.886.507.372 0 .668-.166.885-.507.183-.285.274-.625.274-1.014 0-.375-.098-.709-.281-.987-.218-.326-.513-.486-.878-.486-.373 0-.668.16-.886.486-.176.271-.267.605-.267.987zm-1.806.02c0-.861.273-1.59.829-2.174.548-.598 1.258-.89 2.13-.89.885 0 1.603.292 2.137.883.541.584.815 1.313.815 2.182 0 .868-.267 1.59-.801 2.167-.555.598-1.272.89-2.151.89-.872 0-1.589-.299-2.151-.903-.534-.577-.808-1.293-.808-2.154zm-4.682.112c0 .382.092.702.274.945.211.284.506.423.886.423.386 0 .682-.153.892-.465.183-.271.275-.605.275-.994 0-.375-.099-.702-.288-.966-.204-.312-.5-.465-.879-.465-.316 0-.591.104-.816.313-.231.208-.344.611-.344 1.209zm.042 2.453h-.042v1.486c0 .813-.274 1.223-.83 1.223-.59 0-.885-.417-.885-1.243V33.01c0-.834.295-1.244.885-1.244.345 0 .626.18.83.549.352-.396.837-.59 1.441-.59.802 0 1.462.312 1.961.937.464.577.696 1.265.696 2.064 0 .597-.14 1.146-.422 1.646a2.768 2.768 0 01-1.223 1.181c-.33.16-.674.244-1.033.244-.527 0-.984-.167-1.378-.508zm-6.783-2.585c0 .389.092.73.274 1.014.218.341.513.507.886.507s.668-.166.886-.507c.175-.285.267-.625.267-1.014 0-.375-.092-.709-.282-.987-.21-.326-.506-.486-.871-.486-.373 0-.668.16-.886.486-.182.271-.274.605-.274.987zm-1.8.02c0-.861.275-1.59.823-2.174.555-.598 1.266-.89 2.137-.89.886 0 1.603.292 2.144.883.541.584.808 1.313.808 2.182 0 .868-.267 1.59-.794 2.167-.555.598-1.28.89-2.158.89-.872 0-1.588-.299-2.151-.903-.541-.577-.808-1.293-.808-2.154zm-1.764 2.891h-3.978c0 .493-.007.778-.021.855-.063.34-.253.507-.563.507-.54 0-.808-.278-.808-.834v-1.098c0-.354.085-.576.26-.653.148-.034.302-.062.464-.09.176-.077.26-.292.26-.646v-2.154c0-.632.169-1.084.52-1.369.317-.243.802-.368 1.47-.368h2.172c.351 0 .59.118.717.361.098.174.14.445.14.806v3.412c.506 0 .76.243.76.73v1.07c0 .555-.268.833-.809.833-.302 0-.485-.174-.555-.521-.021-.09-.029-.368-.029-.841zm-2.959-1.272h1.877v-3.21h-1.308c-.267 0-.4.132-.4.39v2.133c0 .215-.056.444-.169.687zm-6.509-1.618c0-.369.281-.556.83-.556.393 0 .646-.02.76-.063.224-.076.336-.27.336-.584 0-.305-.098-.52-.28-.632-.141-.076-.374-.111-.697-.111a2.31 2.31 0 00-.766.132c-.281.097-.492.153-.633.153-.429 0-.64-.195-.64-.584 0-.549.725-.82 2.173-.82.808 0 1.406.111 1.8.34.52.293.78.8.78 1.522 0 .494-.24.869-.725 1.119.577.306.865.73.865 1.279 0 1.236-.907 1.862-2.72 1.862-1.554 0-2.327-.292-2.327-.883 0-.354.204-.535.605-.535.126 0 .351.048.674.16.324.104.668.153 1.048.153.618 0 .928-.25.928-.758 0-.23-.057-.396-.176-.493-.112-.104-.337-.153-.675-.16-.422-.007-.682-.028-.78-.055-.253-.063-.38-.222-.38-.486zm-9.588.11c0 .383.092.703.275.946.21.284.506.423.892.423.38 0 .682-.153.886-.465.182-.271.274-.605.274-.994 0-.375-.092-.702-.281-.966a1.003 1.003 0 00-.879-.465c-.323 0-.597.104-.822.313-.225.208-.344.611-.344 1.209zm.05 2.453h-.05v1.487c0 .813-.274 1.223-.829 1.223-.59 0-.886-.417-.886-1.243V33.01c0-.834.296-1.244.886-1.244.344 0 .626.18.83.549.358-.396.836-.59 1.44-.59.81 0 1.463.312 1.969.937.457.577.689 1.265.689 2.064 0 .597-.14 1.146-.422 1.646a2.774 2.774 0 01-1.223 1.181c-.33.16-.675.244-1.034.244-.527 0-.984-.167-1.37-.508zm-5.87-4.05h-.745c-.73 0-1.096-.243-1.096-.73 0-.5.365-.743 1.096-.743h3.22c.73 0 1.096.243 1.096.743 0 .486-.366.73-1.103.73h-.752v3.21c0 .826-.289 1.25-.858 1.25-.576 0-.858-.423-.858-1.25v-3.21zm-5.981 2.029v1.174c0 .834-.282 1.258-.851 1.258-.59 0-.886-.424-.886-1.251v-3.44c0-.833.296-1.243.886-1.243.57 0 .85.41.85 1.244v1.055h1.927v-1.055c0-.834.288-1.244.857-1.244.577 0 .858.41.858 1.244v3.439c0 .826-.281 1.25-.858 1.25-.57 0-.857-.423-.857-1.257v-1.174h-1.926zm-6.58-1.182h2.299a1.011 1.011 0 00-.352-.73 1.111 1.111 0 00-.766-.284c-.309 0-.57.09-.78.278-.21.188-.344.43-.4.736zm.021 1.119c.036.326.176.584.422.758.246.173.542.263.9.263.295 0 .647-.09 1.068-.277.415-.188.675-.279.774-.279.464 0 .695.216.695.66a.8.8 0 01-.196.508c-.232.312-.598.549-1.104.715a4.222 4.222 0 01-1.328.209c-.865 0-1.582-.292-2.158-.875-.577-.584-.865-1.3-.865-2.148 0-.847.274-1.563.83-2.16.548-.605 1.25-.904 2.108-.904.422 0 .808.077 1.153.23.5.222.907.563 1.223 1.007.316.445.478.924.478 1.445 0 .285-.105.5-.316.646-.176.132-.415.202-.71.202h-2.974zm-6.494 1.14h1.911v-3.329c0-.834.289-1.25.858-1.25.576 0 .858.416.858 1.25v3.328c.506 0 .759.244.759.73v1.07c0 .556-.267.834-.809.834-.302 0-.485-.174-.555-.521-.021-.09-.028-.369-.028-.841h-3.634a.95.95 0 01-.808-.396c-.183-.243-.268-.535-.268-.876v-3.328c0-.834.282-1.25.858-1.25.57 0 .858.416.858 1.25v3.328zm-9.216-5.073c-.492 0-.892-.125-1.209-.368-.295-.23-.443-.48-.443-.75 0-.362.17-.535.514-.535.196 0 .365.104.513.312a.73.73 0 00.625.32c.282 0 .486-.111.626-.32.133-.208.295-.312.485-.312.352 0 .527.173.527.534 0 .362-.19.647-.57.855a2.187 2.187 0 01-1.068.264zm-2.79 5.177v-3.44c0-.375.05-.66.14-.854.14-.257.387-.39.745-.39.352 0 .598.126.725.383.084.18.133.465.133.862v1.896l2.095-2.605c.28-.354.569-.535.864-.535.359 0 .605.125.731.382.092.18.134.465.134.862v3.439c0 .39-.042.674-.134.854-.126.264-.372.397-.724.397-.358 0-.604-.133-.73-.397-.092-.18-.134-.465-.134-.861v-1.744l-2.102 2.473c-.295.355-.576.529-.857.529-.59 0-.886-.425-.886-1.251zm-4.836-1.543l2.101-1.896c0-.397.042-.681.127-.862.134-.257.38-.382.738-.382.359 0 .605.125.731.382.092.18.134.465.134.862v3.439c0 .389-.042.674-.134.854-.126.264-.365.396-.724.396-.358 0-.604-.132-.731-.396-.084-.18-.127-.465-.127-.861v-1.668l-2.108 1.668c0 .389-.05.674-.134.861-.133.264-.372.396-.724.396-.597 0-.893-.424-.893-1.25v-3.44c0-.375.05-.66.141-.854.14-.258.387-.39.745-.39.359 0 .598.126.724.383.092.18.134.465.134.862v1.896zm-5.525.327l-.26.194v1.015c0 .834-.288 1.258-.865 1.258-.583 0-.871-.424-.871-1.251v-3.426c0-.84.288-1.257.871-1.257.443 0 .71.243.809.736.042.146.056.556.056 1.223l1.49-1.487c.31-.312.611-.472.9-.472a.8.8 0 01.52.18c.14.118.21.285.21.48 0 .285-.147.555-.442.827l-1.174 1.063 1.63 1.868c.233.264.345.542.345.834a.61.61 0 01-.253.5.974.974 0 01-.57.181c-.344 0-.646-.167-.906-.514l-1.49-1.952zm-7.824-.507c0-.89.274-1.62.823-2.189.548-.57 1.272-.854 2.179-.854.478 0 .893.069 1.244.208.478.201.71.5.71.896a.693.693 0 01-.204.515.672.672 0 01-.52.215c-.134 0-.31-.049-.534-.132a1.799 1.799 0 00-.696-.132c-.394 0-.703.146-.914.444-.197.264-.295.598-.295 1 0 .425.098.758.302 1.015.232.278.555.417.97.417.246 0 .478-.041.682-.125a1.5 1.5 0 01.52-.125c.204 0 .366.07.492.216.127.145.19.319.19.52 0 .348-.246.64-.738.883-.352.174-.787.257-1.314.257-.88 0-1.59-.291-2.116-.882-.52-.563-.78-1.279-.78-2.147zm-3.795-1.487h-.745c-.725 0-1.09-.243-1.09-.73 0-.5.365-.743 1.09-.743h3.219c.738 0 1.104.243 1.104.743 0 .486-.373.73-1.111.73h-.752v3.21c0 .826-.282 1.25-.858 1.25-.57 0-.857-.423-.857-1.25v-3.21zm-5.989.847h2.305a1.039 1.039 0 00-.351-.73 1.142 1.142 0 00-.773-.284c-.31 0-.57.09-.78.278-.211.188-.345.43-.401.736zm.021 1.119c.035.326.176.584.422.758.246.173.548.263.9.263.295 0 .653-.09 1.068-.277.415-.188.675-.279.78-.279.457 0 .689.216.689.66 0 .174-.063.34-.197.508-.225.312-.597.549-1.096.715a4.288 4.288 0 01-1.329.209c-.864 0-1.589-.292-2.165-.875-.576-.584-.865-1.3-.865-2.148 0-.847.275-1.563.83-2.16.548-.605 1.251-.904 2.109-.904.428 0 .815.077 1.16.23.492.222.9.563 1.215 1.007.317.445.479.924.479 1.445 0 .285-.106.5-.317.646-.175.132-.414.202-.71.202H8.92zm-3.557 2.411H1.392c0 .493-.007.778-.021.855-.07.34-.253.507-.563.507-.54 0-.808-.278-.808-.834v-1.098c0-.354.084-.576.253-.653.155-.034.31-.062.464-.09.176-.077.26-.292.26-.646v-2.154c0-.632.176-1.084.52-1.369.316-.243.809-.368 1.47-.368h2.171c.352 0 .598.118.724.361.092.174.14.445.14.806v3.412c.507 0 .76.243.76.73v1.07c0 .555-.274.833-.815.833-.303 0-.485-.174-.549-.521-.02-.09-.035-.368-.035-.841zm-2.96-1.272h1.885v-3.21H2.98c-.267 0-.4.132-.4.39v2.133c0 .215-.057.444-.176.687z" fill="#003288"/></svg>