<svg width="181" height="16" fill="none" xmlns="http://www.w3.org/2000/svg"><g clip-path="url(#clip0)"><path fill-rule="evenodd" clip-rule="evenodd" d="M35.722.458c-2.292.763-2.954 1.6-3.04 4.502-.042 1.586-.139 6.296.122 7.618.785 3.776 7.731 3.905 11.22 2.86 2.243-.677 2.68-1.636 2.723-4.434.042-2.066 0-3.917.042-5.473 0-3.074-.686-4.962-3.999-5.337-2.084-.252-5.22-.344-7.074.264h.006zM44.06 11.65V4.714c.055-1.95-2.814-1.698-4.254-1.698-1.58 0-4.34-.166-4.34 1.698v6.936c0 .971 1.216 1.334 2.596 1.432 1.265.045 2.532.008 3.792-.11 1.289-.098 2.127-.461 2.182-1.335l.024.013zM18.423.063c3.355 0 7.127-.232 9.2.194 2.074.426 3.16 1.742 3.16 4.387 0 4.387-1.375 5.64-4.423 5.96a1.708 1.708 0 01-.264 0c-1.803.157-4.183 0-7.194 0v3.93c0 .388-.151.761-.42 1.036a1.42 1.42 0 01-1.015.43 1.42 1.42 0 01-1.015-.43 1.483 1.483 0 01-.42-1.037v-2.506c-.056-1.843 0-4.024 0-5.847 0-1.486.055-3.078 0-4.563a1.345 1.345 0 01.238-.979 1.298 1.298 0 01.847-.519c.43-.063.866-.082 1.3-.056h.006zm7.735 2.958h-7.25v4.688h6.379c1.84 0 2.784-.126 2.864-2.269.08-2.143-.54-2.375-1.993-2.419z" fill="#EC2327"/><path d="M14.16 14.526V5.618c.012-3.123-.703-5.04-4.017-5.423-2.079-.245-5.23-.358-7.09.27C.777 1.232.11 2.08.025 5.034c0 1.137-.054 3.852 0 5.826v3.65c.001.194.038.385.11.563.072.178.178.34.31.476.132.136.289.243.461.316a1.398 1.398 0 001.546-.319c.266-.273.418-.646.42-1.035V4.782c0-1.89 2.77-1.721 4.357-1.721 1.412 0 4.205-.252 4.15 1.722v9.753c.002.193.039.384.11.562.073.178.178.34.31.476.132.136.29.243.461.316a1.387 1.387 0 001.541-.32c.266-.273.36-.655.36-1.044z" fill="#EC2327"/><path fill-rule="evenodd" clip-rule="evenodd" d="M48.636 14.532a1.51 1.51 0 01.423-1.046 1.42 1.42 0 011.014-.435h.953L57.243.8c.134-.263.341-.48.595-.62.253-.142.542-.202.829-.174a1.4 1.4 0 01.82.176c.25.141.454.356.586.618l6.216 12.25h.611c.381.002.745.158 1.014.435.27.278.421.653.423 1.046a1.514 1.514 0 01-.423 1.04A1.394 1.394 0 0166.9 16H50.072a1.394 1.394 0 01-1.014-.426 1.514 1.514 0 01-.423-1.04zM58.666 4.38l-4.406 8.67h8.796l-4.39-8.67zM87.775.056c.207 0 .412.04.603.114.192.074.365.183.51.32.147.136.262.298.34.476.079.178.12.37.118.562v4.32l8.503-5.58a1.702 1.702 0 011.18-.248c.412.063.783.274 1.031.587a1.378 1.378 0 01.043 1.638c-.11.163-.256.305-.427.416l-8.091 5.336 8.091 5.336c.343.226.576.568.648.953.073.385-.023.781-.264 1.101a1.633 1.633 0 01-1.03.592 1.71 1.71 0 01-1.181-.241l-8.503-5.587v4.384c0 .192-.04.381-.12.558a1.451 1.451 0 01-.34.472c-.147.135-.32.242-.51.315a1.67 1.67 0 01-.6.108 1.65 1.65 0 01-1.115-.424 1.42 1.42 0 01-.47-1.029V1.528c.003-.39.171-.762.468-1.037a1.662 1.662 0 011.116-.435zM110.805 2.948v11.59a1.449 1.449 0 01-.449 1.032 1.558 1.558 0 01-1.654.32 1.513 1.513 0 01-.494-.316 1.426 1.426 0 01-.446-1.036V2.949h-4.029c-.406 0-.794-.154-1.082-.43a1.459 1.459 0 01-.454-1.038c.004-.391.166-.766.454-1.043A1.574 1.574 0 01103.733 0h11.102c.201 0 .399.04.585.115.185.074.352.184.494.321.141.138.253.3.329.48a1.443 1.443 0 01-.331 1.602c-.286.275-.673.43-1.077.43h-4.03zM169.908 6.425h5.798c2.047 0 2.824.07 2.824-1.678 0-1.258-.468-1.792-2.824-1.792h-5.798v3.47zm0 6.633h7.311c1.056-.227 1.311-.755 1.311-1.679 0-1.748-.777-1.672-2.824-1.672h-5.798v3.363-.012zM177.356 16h-9.121c-.367.002-.72-.15-.982-.424a1.521 1.521 0 01-.413-1.035V1.477c.002-.39.148-.764.408-1.04.261-.277.613-.434.981-.437h7.803c2.534 0 4.961 1.037 4.961 4.162.04 1.02-.09 2.04-.386 3.011-.062.169-.14.331-.231.484a.859.859 0 00.071.893c.076.161.144.327.201.497.263.935.379 1.91.345 2.885a4.271 4.271 0 01-1.08 2.775 3.82 3.82 0 01-2.564 1.274l.007.019zM73.276.458c-2.291.763-2.954 1.6-3.039 4.502-.042 1.586-.14 6.296.122 7.618.784 3.776 7.737 3.905 11.225 2.86 2.237-.677 2.674-1.636 2.717-4.434.043-2.066 0-3.917.043-5.473 0-3.074-.687-4.962-4-5.337-2.084-.252-5.22-.344-7.074.264h.006zm8.339 11.192V4.714c.054-1.95-2.815-1.698-4.255-1.698-1.58 0-4.339-.166-4.339 1.698v6.936c0 .971 1.215 1.334 2.595 1.432 1.265.045 2.532.008 3.792-.11 1.289-.098 2.128-.461 2.183-1.335l.024.013zM121.299.458c-2.285.763-2.961 1.6-3.045 4.502-.043 1.586-.135 6.296.139 7.618.768 3.776 7.747 3.905 11.229 2.86 2.241-.677 2.686-1.636 2.741-4.434V5.531c.03-3.074-.688-4.962-4.001-5.337-2.082-.252-5.219-.344-7.088.264h.025zm8.342 11.192V4.714c.055-1.95-2.825-1.698-4.263-1.698-1.577 0-4.347-.166-4.347 1.698v6.936c0 .971 1.217 1.334 2.618 1.432 1.261.045 2.525.008 3.781-.11 1.298-.098 2.132-.461 2.192-1.335l.019.013zM153.922.458c-2.298.763-2.955 1.6-3.04 4.502-.037 1.586-.134 6.296.128 7.618.784 3.776 7.733 3.905 11.223 2.86 2.244-.677 2.682-1.636 2.724-4.434.036-2.066 0-3.917.036-5.473 0-3.074-.687-4.962-3.994-5.337-2.091-.252-5.223-.344-7.077.264zm8.366 11.192V4.714c.054-1.95-2.821-1.698-4.256-1.698-1.581 0-4.348-.166-4.348 1.698v6.936c0 .971 1.217 1.334 2.603 1.432 1.264.045 2.529.008 3.788-.11 1.295-.098 2.134-.461 2.189-1.335l.024.013zM136.817.047c3.363 0 6.925-.2 8.995.226 2.071.426 3.175 1.743 3.175 4.39 0 4.389-1.373 5.643-4.418 5.97a1.79 1.79 0 01-.264 0c-1.838.156-4.197.03-7.187.03v3.87c0 .389-.151.762-.42 1.037-.269.275-.633.43-1.013.43-.381 0-.745-.155-1.014-.43a1.485 1.485 0 01-.421-1.037v-2.509c-.066-1.843-.036-4.026 0-5.857 0-1.486.044-3.072 0-4.558-.05-.347.035-.7.239-.983.203-.282.508-.47.846-.522.426-.06.857-.079 1.287-.057h.195zm7.501 2.985h-7.206v4.69h6.36c1.838 0 2.794-.125 2.88-2.263.085-2.138-.545-2.383-2.041-2.427h.007z" fill="#117DC1"/></g><defs><clipPath id="clip0"><path fill="#fff" d="M0 0h181v16H0z"/></clipPath></defs></svg>