<svg width="413" height="531" fill="none" xmlns="http://www.w3.org/2000/svg"><path d="M207.679-26.961c28.025 10.41 52.353 27.121 73.214 48.466 21.658 22.16 41.781 46.582 49.058 76.643 7.613 31.448 4.154 64.608-7.558 94.781-12.072 31.103-33.016 57.682-59.527 78.055-27.937 21.47-60.015 42.845-95.251 40.891-34.706-1.924-62.323-28.141-88.36-51.073-22.711-20.003-38.265-45.218-51.701-72.285C13.884 160.982-3.397 132.783.58 102.323 4.56 71.853 29.574 49.867 48.8 25.835 68.618 1.062 84.47-30.227 114.64-40.252c30.334-10.08 63.077 2.161 93.038 13.29z" fill="#E3EEF4"/><path d="M243.647 200.326c52.559-1.745 110.417 2.279 143.642 43.083 33.56 41.215 29.655 100.022 14.339 150.936-13.966 46.429-48.379 80.995-91.024 103.99-45.97 24.787-98.75 44.526-146.898 24.3-50.642-21.273-83.552-71.463-93.903-125.455-9.948-51.885 7.166-105.044 42.123-144.628 32.908-37.263 82.062-50.577 131.721-52.226z" fill="#E3EEF4"/></svg>