<svg width="323" height="378" fill="none" xmlns="http://www.w3.org/2000/svg"><path d="M232.463 18.85c43.922 22.868 77.541 62.484 87.164 111.031 9.867 49.78-1.708 103.73-37.449 139.782-33.775 34.068-85.126 35.41-133.006 32.154-46.417-3.158-94.769-12.647-123.04-49.571-29.125-38.039-31.7-89.265-18.517-135.314C20.717 71.17 51.04 31.816 94.695 12.774 139.018-6.561 189.573-3.48 232.463 18.85z" fill="#E3EEF4"/><path d="M157.817 168.545c31.1 11.324 48.073 42.036 59.612 72.966 11.535 30.917 20.056 65.939 2.687 94.016-17.211 27.821-52.464 34.478-84.948 38.961-32.814 4.528-69.536 8.591-93.354-14.354-23.772-22.901-21.088-59.597-17.402-92.342 3.567-31.685 11.507-63.965 37.144-83.038 27.436-20.411 64.103-27.919 96.261-16.209z" fill="url(#paint0_linear)"/><defs><linearGradient id="paint0_linear" x1="126" y1="163" x2="126" y2="378" gradientUnits="userSpaceOnUse"><stop stop-color="#F2F6F9"/><stop offset="1" stop-color="#F2F6F9" stop-opacity="0"/></linearGradient></defs></svg>