<svg width="56" height="59" fill="none" xmlns="http://www.w3.org/2000/svg"><path d="M34.82 2.824c4.7 1.725 8.778 4.495 12.276 8.032 3.631 3.673 7.005 7.72 8.225 12.702 1.277 5.212.697 10.708-1.267 15.708-2.024 5.155-5.536 9.56-9.98 12.937-4.685 3.558-10.063 7.1-15.97 6.776-5.82-.319-10.45-4.664-14.816-8.464C9.48 47.2 6.873 43.02 4.62 38.535 2.328 33.972-.57 29.298.097 24.25c.668-5.05 4.861-8.693 8.085-12.676 3.323-4.106 5.98-9.291 11.04-10.953 5.085-1.67 10.575.358 15.598 2.203z" fill="#E3EEF4"/></svg>