<svg width="312" height="546" fill="none" xmlns="http://www.w3.org/2000/svg"><path d="M229.311-11.767c40.115 20.905 70.82 57.122 79.608 101.503 9.012 45.509-1.559 94.829-34.202 127.787-30.847 31.145-77.747 32.373-121.476 29.395-42.394-2.886-86.554-11.562-112.374-45.317-26.6-34.775-28.953-81.606-16.912-123.703C35.92 36.063 63.615.086 103.486-17.322c40.481-17.676 86.653-14.858 125.825 5.555zM184.661 291.449c34.141 18.668 47.438 58.801 53.678 97.287 6.074 37.464 2.777 76.436-20.684 106.223-24.963 31.695-62.832 53.218-103.042 50.865-39.711-2.322-73.085-29.023-94.804-62.438C-.53 452.094-4.996 413.717 5.44 377.863c10.25-35.217 35.167-63.315 68.14-79.214 35.181-16.963 76.808-25.939 111.08-7.2z" fill="#E3EEF4"/></svg>