<svg width="334" height="356" fill="none" xmlns="http://www.w3.org/2000/svg"><path d="M207.679 17.039c28.025 10.41 52.353 27.121 73.214 48.466 21.658 22.16 41.781 46.582 49.058 76.643 7.613 31.448 4.154 64.608-7.558 94.781-12.072 31.103-33.016 57.682-59.527 78.055-27.937 21.47-60.015 42.845-95.251 40.891-34.706-1.924-62.323-28.141-88.36-51.073-22.711-20.003-38.265-45.218-51.701-72.285C13.884 204.982-3.397 176.783.58 146.323 4.56 115.854 29.574 93.867 48.8 69.835 68.618 45.062 84.47 13.774 114.64 3.748c30.334-10.08 63.077 2.161 93.038 13.29z" fill="url(#paint0_linear)"/><defs><linearGradient id="paint0_linear" x1="167" y1="0" x2="167" y2="356" gradientUnits="userSpaceOnUse"><stop stop-color="#E3EEF4"/><stop offset="1" stop-color="#E3EEF4" stop-opacity="0"/></linearGradient></defs></svg>