<svg width="14" height="14" fill="none" xmlns="http://www.w3.org/2000/svg"><path d="M2.413 6.62s.372-.042 1.077-1.234c0 0 .016-.02.042-.06.35 1.63 2.033 1.365 2.033 1.365l.161-.632c-1.13.247-1.145-1.094-1.145-1.094l1.733.601c.154-.17.251-.38.293-.607a6.115 6.115 0 01-.19 1.732s1.047-.4 1.771.298c0 0-.069-1.213-.43-2.468.207-.128.65-.317.73.352.102.878 1.277 2.096 2.378.585 0 0-.69.401-1.072-.431-.357-.779-.496-1.8-1.461-1.5.552-.44 1.07-1.152.418-1.814-.868-.883-2.22.171-2.46.37a1.78 1.78 0 00-.506-.231s.559.962.756 2.35a1.623 1.623 0 00-.8-.901c-.486-.252-1.132-.206-1.61.13.101-.84.078-1.966-.27-3.408L2.179.907s1.312 2.63.117 4.377c0 0-1.527-.966-.568-2.918L.75 2.18s-.505.597-.441 1.536c.074 1.085.795 2.553 2.105 2.902zM8.09 2.294c.382.492-.19.933-.686 1.029 0 0-.09-.581-.42-.96 0 0 .724-.561 1.106-.069zM5.578 3.747c.317.113.49.488.43.88L4.74 4.145c.184-.333.529-.507.838-.397zm6.076 1.372h.021c-.188.678-.523 1.065-.941 1.346-.764.514-1.762.226-1.762.226.225.658 2.682 1.89 3.446-.287.763-2.179-.617-3.668-.617-3.668.071.901.043 1.584-.061 2.112-.202.03-1.27.094-.79-2.153l-1.097-.432s-.548 3.082 1.801 2.856zM12.447 8.294c-1.302-.329-2.134.093-2.134.093s.783.256.92 1.582c.137 1.325-1.243 2.24-1.243 2.24s1.527.298 2.672-.206c1.146-.503 1.175-1.736 1.175-1.91 0-.176-.088-1.47-1.39-1.799zm-.33 2.795a.627.627 0 01-.068 0c.2-.216.321-.555.306-.933-.019-.46-.236-.845-.532-1.01a.713.713 0 01.213-.045c.46-.02.85.408.872.957.023.55-.331 1.011-.79 1.031zm-1.486-.962c0-.995-.78-1.802-1.74-1.802-.095 0-.189.008-.28.024-.251-.647-.856-1.103-1.563-1.103-.86 0-1.568.674-1.674 1.545-.745.144-1.552.641-1.82 2.046l.895.216s.179-.523.658-.994l.017.054s.118 1.54-1.071 1.726c-1.19.185-1.91-1.187-1.542-2.096.367-.91 1.116-.668 1.116-.668l1.448-1.428-.543-.236C3 6.845 1.028 7.893.91 10.19c-.117 2.296 2.335 3.699 4.038 2.527.923-.634 1.104-1.567 1.077-2.289a1.63 1.63 0 001.242.348c.252.674.884 1.153 1.624 1.153.96 0 1.74-.806 1.74-1.802zm-3.209-.966a.6.6 0 01-.543.35.59.59 0 01-.39-.148c.12-.02.248-.033.383-.036l-.044-.463s-.22-.07-.548-.104c.05-.3.3-.527.6-.527.336 0 .609.286.609.64a.66.66 0 01-.067.288zm1.094 1.491a.602.602 0 01-.457-.214c.322-.253.555-.624.64-1.051a.645.645 0 01.434.618c0 .357-.276.647-.617.647z" fill="#fff"/></svg>