<svg id="bubble-left-grey-1" viewBox="0 0 56 59" fill="none" xmlns="http://www.w3.org/2000/svg">
<path d="M34.8204 2.82381C39.5192 4.54913 43.5982 7.31868 47.0959 10.8562C50.7271 14.5289 54.101 18.5763 55.3212 23.5583C56.5976 28.7701 56.0175 34.2657 54.0539 39.2663C52.0298 44.4211 48.5183 48.826 44.0734 52.2025C39.3893 55.7607 34.0109 59.3032 28.1032 58.9794C22.2842 58.6604 17.6538 54.3154 13.2884 50.5149C9.48034 47.1998 6.87264 43.0209 4.61976 38.5352C2.32784 33.9717 -0.569636 29.2982 0.0973311 24.2501C0.764503 19.2005 4.95847 15.5566 8.18198 11.5737C11.5048 7.46819 14.1627 2.28269 19.2213 0.621086C24.3071 -1.04945 29.7971 0.979296 34.8204 2.82381Z" fill="#E3EEF4"/>
</svg>
