<svg width="80" height="64" viewBox="0 0 80 64" fill="none" xmlns="http://www.w3.org/2000/svg">
<path d="M71.0535 33.6159C71.0535 32.1127 70.6536 30.7131 69.9272 29.6751C69.0489 28.4196 67.7246 27.7283 66.1986 27.7283H64.2712L63.5432 21.0359C63.3043 18.8306 63.4705 18.5739 64.2123 17.8432C64.4916 17.5685 64.8054 17.2953 65.1377 17.006C66.9434 15.4337 69.1907 13.4768 69.4967 8.47282C69.5204 8.08598 69.3577 7.71104 69.0589 7.46394C68.7603 7.21685 68.3614 7.12745 67.9858 7.22352C67.2685 7.40669 66.6099 7.58403 66.0288 7.74063C61.8191 8.87445 60.6877 9.17929 56.6084 6.66444C55.2776 5.84504 53.9709 5.13153 52.7244 4.54382C52.1183 4.25803 51.3955 4.51774 51.1099 5.12365C50.8242 5.72968 51.0838 6.45252 51.6897 6.73819C52.8551 7.28757 54.0819 7.95789 55.3357 8.72986C60.3066 11.7945 62.1665 11.2935 66.6597 10.0831C66.7254 10.0654 66.7921 10.0475 66.8597 10.0293C66.3066 12.7709 64.906 13.9908 63.5444 15.1764C63.1996 15.4767 62.843 15.7871 62.5104 16.114C60.9227 17.6782 60.8709 18.8946 61.1311 21.2977L61.8122 27.5581C60.9553 27.4576 60.1383 27.3628 59.3545 27.2717C50.088 26.1958 45.4368 25.6557 33.8254 22.6201C33.3177 22.4872 32.8685 22.3537 32.4341 22.2246C30.5819 21.6742 29.119 21.2393 26.5468 21.9621C23.2863 22.8781 20.868 23.8772 18.0328 26.211C18.047 21.949 18.1359 20.2694 18.6944 16.5034C19.0127 14.3662 20.2136 12.4887 21.9071 11.4811C22.9618 10.8534 24.686 10.2755 26.9102 11.0857C27.2928 11.2253 27.7198 11.1633 28.0472 10.921C28.441 10.6295 28.842 10.3227 29.2665 9.99784C32.3805 7.61496 36.256 4.64947 41.738 4.42506C42.4075 4.39765 42.9279 3.83286 42.9005 3.16339C42.8731 2.49405 42.3064 1.97475 41.6389 2.00095C35.3906 2.25666 30.9988 5.61723 27.7922 8.07106C27.5547 8.2529 27.3246 8.42891 27.1005 8.59861C24.8711 7.96444 22.6092 8.24004 20.6665 9.39617C18.3536 10.7725 16.7193 13.2958 16.2948 16.1468C15.6488 20.5027 15.6071 22.1514 15.6044 27.7282H13.8014C12.2753 27.7282 10.9511 28.4196 10.0728 29.675C9.34641 30.7131 8.94647 32.1127 8.94647 33.6159C8.94647 36.5043 10.454 39.5456 13.2824 40.4292C12.4211 42.3951 11.9695 44.537 11.9695 46.7158C11.9695 55.1094 18.5573 61.938 26.6549 61.938C28.4151 61.938 29.8214 61.4789 30.9512 61.11C32.2445 60.6879 33.0148 60.4632 33.8001 60.7546C36.083 61.6042 38.0531 61.9999 40 61.9999C41.9469 61.9999 43.917 61.6042 46.1988 60.7549C46.9853 60.4628 47.7556 60.6877 49.0489 61.1099C50.1788 61.4789 51.585 61.9379 53.3452 61.9379C61.4428 61.9379 68.0306 55.1093 68.0306 46.7157C68.0306 44.5369 67.579 42.395 66.7177 40.4291C69.546 39.5456 71.0535 36.5043 71.0535 33.6159ZM11.3725 33.6159C11.3725 32.6056 11.617 31.7 12.0606 31.0658C12.4897 30.4524 13.0591 30.1542 13.8014 30.1542H15.6039V35.2477C15.6039 36.7298 15.565 36.7785 15.1928 37.2429C15.0048 37.4775 14.7668 37.7751 14.4747 38.2182C12.2109 37.8795 11.3725 35.3536 11.3725 33.6159ZM53.3451 59.5119C51.9709 59.5119 50.8682 59.1519 49.8019 58.8038C48.4111 58.3496 46.9731 57.8801 45.3538 58.4809C43.3501 59.2265 41.649 59.5738 40.0001 59.5738C38.3512 59.5738 36.6501 59.2265 34.6452 58.4804C33.0273 57.8801 31.589 58.3495 30.1982 58.8037C29.1319 59.1519 28.0291 59.5118 26.655 59.5118C19.8951 59.5118 14.3956 53.7715 14.3956 46.7157C14.3956 44.3582 15.017 42.0532 16.1923 40.0499C16.5735 39.4001 16.8578 39.0451 17.0865 38.7598C17.8405 37.8186 18.0302 37.3071 18.0302 35.2477V29.4574C21.2993 26.3512 23.6326 25.3008 27.2032 24.2977C29.1001 23.7646 30.039 24.0436 31.7433 24.5502C32.1754 24.6786 32.6651 24.8241 33.2116 24.9672C44.9881 28.046 49.6958 28.5926 59.0749 29.6816C59.9909 29.788 60.9524 29.8996 61.9701 30.0194V35.2479C61.9701 37.3072 62.1598 37.8188 62.9139 38.7599C63.1424 39.0452 63.4268 39.4002 63.8081 40.05C64.9834 42.0533 65.6047 44.3584 65.6047 46.7158C65.6045 53.7715 60.105 59.5119 53.3451 59.5119ZM65.5251 38.2182C65.233 37.7751 64.995 37.4776 64.807 37.2429C64.4349 36.7783 64.3959 36.7298 64.3959 35.2477V30.1542H66.1985C66.9407 30.1542 67.5101 30.4524 67.9393 31.0658C68.383 31.7 68.6273 32.6056 68.6273 33.6159C68.6275 35.3536 67.7891 37.8795 65.5251 38.2182Z" fill="#343D42"/>
<path d="M33.6613 35.7731C33.1956 35.2914 32.4277 35.2787 31.9461 35.7444C30.4309 37.2097 27.9634 37.2093 26.4453 35.7436C25.9632 35.2783 25.1952 35.2918 24.73 35.7738C24.2647 36.2559 24.2782 37.0238 24.7602 37.4891C25.9843 38.6708 27.5907 39.2614 29.1974 39.2614C30.8039 39.2614 32.4106 38.6702 33.6327 37.4883C34.1141 37.0227 34.127 36.2547 33.6613 35.7731Z" fill="#343D42"/>
<path d="M55.7851 35.7731C55.3194 35.2914 54.5515 35.2787 54.0699 35.7444C52.5535 37.2109 50.0862 37.2108 48.5698 35.7444C48.0883 35.2788 47.3204 35.2915 46.8546 35.7731C46.3889 36.2547 46.4017 37.0226 46.8833 37.4883C48.1064 38.6713 49.7132 39.2627 51.32 39.2627C52.9266 39.2627 54.5334 38.6713 55.7565 37.4883C56.2379 37.0226 56.2508 36.2547 55.7851 35.7731Z" fill="#343D42"/>
<path d="M48.7924 47.2014C48.1224 47.2014 47.5794 47.7445 47.5794 48.4145V48.4421C45.4344 47.6876 42.9028 47.2797 40.2583 47.2797C37.6142 47.2797 35.0835 47.6875 32.9397 48.4418V48.4145C32.9397 47.7445 32.3966 47.2014 31.7267 47.2014C31.0567 47.2014 30.5136 47.7445 30.5136 48.4145V52.1111C30.5136 52.781 31.0567 53.3241 31.7267 53.3241C32.3966 53.3241 32.9397 52.781 32.9397 52.1111V51.0413C37.1438 49.245 43.3725 49.2452 47.5794 51.0415V52.1111C47.5794 52.781 48.1224 53.3241 48.7924 53.3241C49.4624 53.3241 50.0054 52.781 50.0054 52.1111V48.4145C50.0054 47.7445 49.4624 47.2014 48.7924 47.2014Z" fill="#343D42"/>
<path d="M20.4096 45.5329C20.4096 44.8629 19.8631 44.3199 19.1932 44.3199C18.5232 44.3199 17.9802 44.8629 17.9802 45.5329C17.9802 46.2028 18.5232 46.7459 19.1932 46.7459H19.2001C19.8699 46.7459 20.4096 46.2028 20.4096 45.5329Z" fill="#0677EC"/>
<path d="M25.5201 53.1263C24.8501 53.1263 24.307 53.6694 24.307 54.3394C24.307 55.0093 24.8501 55.5524 25.5201 55.5524H25.527C26.1969 55.5524 26.7366 55.0093 26.7366 54.3394C26.7366 53.6694 26.19 53.1263 25.5201 53.1263Z" fill="#0677EC"/>
<path d="M25.2588 47.5505H25.2657C25.9357 47.5505 26.4754 47.0074 26.4754 46.3375C26.4754 45.6675 25.9289 45.1245 25.2589 45.1245C24.589 45.1245 24.0459 45.6675 24.0459 46.3375C24.0459 47.0074 24.5888 47.5505 25.2588 47.5505Z" fill="#0677EC"/>
<path d="M20.9296 49.8767C20.2597 49.8767 19.7166 50.4198 19.7166 51.0898C19.7166 51.7597 20.2597 52.3028 20.9296 52.3028H20.9366C21.6065 52.3028 22.1461 51.7597 22.1461 51.0898C22.1461 50.4198 21.5996 49.8767 20.9296 49.8767Z" fill="#0677EC"/>
<path d="M61.3261 44.3199H61.3192C60.6492 44.3199 60.1097 44.8629 60.1097 45.5329C60.1097 46.2028 60.6561 46.7459 61.3261 46.7459C61.9961 46.7459 62.5391 46.2028 62.5391 45.5329C62.5391 44.8629 61.9961 44.3199 61.3261 44.3199Z" fill="#0677EC"/>
<path d="M54.9957 53.1263H54.9888C54.3189 53.1263 53.7792 53.6694 53.7792 54.3394C53.7792 55.0093 54.3256 55.5524 54.9956 55.5524C55.6656 55.5524 56.2086 55.0093 56.2086 54.3394C56.2086 53.6694 55.6657 53.1263 54.9957 53.1263Z" fill="#0677EC"/>
<path d="M55.2569 45.1245H55.25C54.5801 45.1245 54.0404 45.6675 54.0404 46.3375C54.0404 47.0074 54.5869 47.5505 55.2568 47.5505C55.9268 47.5505 56.4699 47.0074 56.4699 46.3375C56.4699 45.6675 55.9269 45.1245 55.2569 45.1245Z" fill="#0677EC"/>
<path d="M59.5862 49.8767H59.5793C58.9093 49.8767 58.3696 50.4198 58.3696 51.0898C58.3696 51.7597 58.9161 52.3028 59.586 52.3028C60.256 52.3028 60.7991 51.7597 60.7991 51.0898C60.7991 50.4198 60.2561 49.8767 59.5862 49.8767Z" fill="#0677EC"/>
<path d="M47.1247 5.01059H47.1281C47.7981 5.01059 48.3394 4.46752 48.3394 3.79756C48.3394 3.12761 47.7947 2.58453 47.1247 2.58453C46.4548 2.58453 45.9117 3.12761 45.9117 3.79756C45.9117 4.46752 46.4548 5.01059 47.1247 5.01059Z" fill="#343D42"/>
</svg>
