<svg width="80" height="64" viewBox="0 0 80 64" fill="none" xmlns="http://www.w3.org/2000/svg">
<path d="M22.4516 11.5912L10.5217 29.0282C8.87248 31.4395 8 34.2586 8 37.1789C8 45.1386 14.4743 51.6129 22.434 51.6129H22.4682C30.4289 51.6129 36.9032 45.1386 36.9032 37.1789C36.9032 34.2586 36.0307 31.4395 34.3816 29.0282L22.4516 11.5912ZM22.4693 49.5484H22.435C15.6139 49.5484 10.0645 43.999 10.0645 37.1789C10.0645 34.6754 10.812 32.2601 12.2263 30.1935L22.4516 15.2475L32.6769 30.1935C34.0912 32.2601 34.8387 34.6754 34.8387 37.1789C34.8387 43.999 29.2893 49.5484 22.4693 49.5484Z" fill="#343D42"/>
<path d="M14.1935 37.1789C14.1935 36.8649 14.2122 36.5544 14.246 36.2455L12.1961 36.0136C12.1507 36.3987 12.129 36.7868 12.129 37.1789C12.129 42.8604 16.7525 47.4839 22.4693 47.4839L22.435 45.4194C17.8901 45.4194 14.1935 41.7228 14.1935 37.1789Z" fill="#E4097F"/>
<path d="M15.6346 32.5252L13.9315 31.3589C13.4295 32.0928 13.0242 32.8856 12.7278 33.7178L14.6714 34.4113C14.9078 33.7475 15.2319 33.1129 15.6346 32.5252Z" fill="#E4097F"/>
<path d="M72 18.5806C72 8.33568 63.6643 0 53.4193 0C43.1744 0 34.8387 8.33568 34.8387 18.5806C34.8387 27.0338 40.5181 34.1729 48.258 36.4168V39.2258H46.1935V41.2903H48.258V43.3548H46.1935V45.4194H48.258V64H58.5806V45.4194H60.6451V43.3548H58.5806V41.2903H60.6451V39.2258H58.5806V36.3871C66.2338 34.0862 72 26.8684 72 18.5806ZM36.9032 18.5806C36.9032 9.47429 44.313 2.06452 53.4193 2.06452C62.5257 2.06452 69.9355 9.47429 69.9355 18.5806C69.9355 27.5333 62.372 35.0968 53.4193 35.0968C44.313 35.0968 36.9032 27.687 36.9032 18.5806ZM56.5161 61.9355H50.3226V45.4194H56.5161V61.9355ZM56.5161 43.3548H50.3226V41.2903H56.5161V43.3548ZM56.5161 39.2258H50.3226V36.8815C51.3321 37.0519 52.3624 37.1613 53.4193 37.1613C54.4733 37.1613 55.5045 37.0479 56.5161 36.8689V39.2258Z" fill="#343D42"/>
<path d="M65.8064 18.5806H67.8709C67.8709 12.2868 63.8493 6.75906 57.8664 4.82559L57.2313 6.79031C62.3599 8.44807 65.8064 13.185 65.8064 18.5806Z" fill="#343D42"/>
<path d="M55.6406 4.29939C54.9098 4.18598 54.1638 4.12903 53.4194 4.12903V6.19354C54.0575 6.19354 54.6996 6.24193 55.3271 6.33921L55.6406 4.29939Z" fill="#343D42"/>
<path d="M46.1935 12.3871C43.3478 12.3871 41.0322 14.7026 41.0322 17.5484V26.8387H43.0967V20.6451H49.2903V26.8387H51.3548V17.5484C51.3548 14.7026 49.0393 12.3871 46.1935 12.3871ZM43.0967 18.5806V17.5484C43.0967 15.8412 44.4864 14.4516 46.1935 14.4516C47.9007 14.4516 49.2903 15.8412 49.2903 17.5484V18.5806H43.0967Z" fill="#E4097F"/>
<path d="M63.742 22.7097C63.742 21.4783 63.2001 20.3694 62.3412 19.6129C63.2001 18.8563 63.742 17.7475 63.742 16.5161C63.742 14.2389 61.8901 12.3871 59.6129 12.3871H53.4194V26.8387H59.6129C61.8901 26.8387 63.742 24.9869 63.742 22.7097ZM55.4839 14.4516H59.6129C60.7515 14.4516 61.6774 15.3775 61.6774 16.5161C61.6774 17.6547 60.7515 18.5806 59.6129 18.5806H55.4839V14.4516ZM55.4839 20.6451H59.6129C60.7515 20.6451 61.6774 21.5711 61.6774 22.7097C61.6774 23.8483 60.7515 24.7742 59.6129 24.7742H55.4839V20.6451Z" fill="#E4097F"/>
</svg>
