<svg width="80" height="64" viewBox="0 0 80 64" fill="none" xmlns="http://www.w3.org/2000/svg">
<path d="M71.9225 35.6769C71.4496 32.4005 68.8756 29.8265 65.5991 29.3536V27.4144C65.5991 22.0641 61.532 17.7079 56.5326 17.7079C51.6772 17.7079 47.6122 21.9318 47.4661 27.1243H47.5279L47.4661 27.1349V48.1554C47.4661 54.8753 42.4421 60.3323 36.2662 60.3323C30.0903 60.3323 25.0664 54.8679 25.0664 48.1554V46.3347C26.6131 46.3347 28.2664 45.2136 28.2664 42.0681V39.3854C35.1121 37.6351 39.9995 31.7567 39.9995 25.0923V22.8683H37.8662L37.8214 8.98588C37.806 6.41618 35.962 4.22208 33.4332 3.76462C32.8878 2.09358 31.0909 1.18106 29.4197 1.72665C27.7486 2.27211 26.8361 4.06902 27.3817 5.74019C27.9272 7.41123 29.7241 8.32375 31.3952 7.77816C32.29 7.48603 33.0096 6.81284 33.3607 5.93952C34.7272 6.32832 35.6739 7.5715 35.6849 8.99228L35.7329 22.8683H33.5996V25.1232C33.5145 28.8335 31.0271 32.0577 27.46 33.0815C25.5513 33.6871 23.502 33.6871 21.5934 33.0815C18.0304 32.0542 15.5486 28.8305 15.4666 25.1232V22.8683H12.2666V9.00188C12.2727 7.56016 13.2423 6.30045 14.6346 5.92566C15.2838 7.5783 17.1497 8.39162 18.8024 7.74243C20.455 7.09324 21.2683 5.22713 20.6191 3.57462C19.97 1.92211 18.1038 1.10866 16.4513 1.75785C15.5559 2.10971 14.865 2.84397 14.5684 3.75929C12.0121 4.19608 10.1404 6.40845 10.1333 9.00188V22.8683H8V25.087C8 31.7589 12.8906 37.6393 19.7332 39.3854V42.0681C19.7332 45.2136 21.3865 46.3347 22.9331 46.3347V48.1554C22.9331 56.0487 28.9138 62.4656 36.2662 62.4656C43.6187 62.4656 49.5994 56.0412 49.5994 48.1554V27.1861C49.706 23.1382 52.8185 19.8444 56.5326 19.8444C60.3555 19.8444 63.4658 23.2406 63.4658 27.4176V29.3536C59.3844 29.9426 56.5534 33.7288 57.1425 37.8103C57.7315 41.8917 61.5177 44.7227 65.5991 44.1336C69.6805 43.5446 72.5116 39.7582 71.9225 35.6769ZM30.3997 5.80192C29.8106 5.80192 29.333 5.32433 29.333 4.73527C29.333 4.14621 29.8106 3.66862 30.3997 3.66862C30.9887 3.66862 31.4663 4.14621 31.4663 4.73527C31.4663 5.32433 30.9887 5.80192 30.3997 5.80192ZM17.5999 3.66862C18.1889 3.66862 18.6665 4.14621 18.6665 4.73527C18.6665 5.32433 18.1889 5.80192 17.5999 5.80192C17.0108 5.80192 16.5332 5.32433 16.5332 4.73527C16.5332 4.14621 17.0108 3.66862 17.5999 3.66862ZM10.1333 25.087V25.0016H13.3333V25.1232C13.4133 29.7593 16.4976 33.8052 20.947 35.1103C23.2786 35.8485 25.7812 35.8485 28.1128 35.1103C32.5643 33.807 35.6515 29.7609 35.7329 25.1232V25.0016H37.8662V25.087C37.8662 31.0208 33.2924 36.242 26.9864 37.5049C25.5056 37.8014 23.9888 37.8759 22.4862 37.7257C21.9915 37.6777 21.4998 37.6033 21.0131 37.5028C14.7071 36.242 10.1333 31.0208 10.1333 25.087ZM22.9331 44.2014C21.9731 44.2014 21.8665 42.708 21.8665 42.0681V39.8046C21.9518 39.8153 22.0393 39.8196 22.1257 39.8281C22.2323 39.8398 22.339 39.8484 22.4457 39.858C22.9502 39.9028 23.459 39.9326 23.972 39.9337H24.0254C24.5374 39.9337 25.0451 39.9028 25.5464 39.858C25.6531 39.8484 25.7661 39.8398 25.876 39.8281C25.9603 39.8185 26.0477 39.8153 26.132 39.8046V42.0681C26.132 42.708 26.0253 44.2014 25.0653 44.2014H22.9331ZM64.5325 42.0681C61.5871 42.0681 59.1992 39.6802 59.1992 36.7348C59.1992 33.7894 61.5871 31.4015 64.5325 31.4015C67.4779 31.4015 69.8657 33.7894 69.8657 36.7348C69.8623 39.6789 67.4764 42.0646 64.5325 42.0681Z" fill="#343D42"/>
<path d="M64.5325 33.5349C62.7652 33.5349 61.3326 34.9675 61.3326 36.7348C61.3326 38.5021 62.7652 39.9347 64.5325 39.9347C66.2998 39.9347 67.7325 38.5021 67.7325 36.7348C67.7325 34.9675 66.2998 33.5349 64.5325 33.5349ZM64.5325 37.8015C63.9435 37.8015 63.4659 37.3239 63.4659 36.7348C63.4659 36.1457 63.9435 35.6682 64.5325 35.6682C65.1216 35.6682 65.5992 36.1457 65.5992 36.7348C65.5992 37.3239 65.1216 37.8015 64.5325 37.8015Z" fill="#FFD601"/>
</svg>
