<svg width="80" height="64" viewBox="0 0 80 64" fill="none" xmlns="http://www.w3.org/2000/svg">
<path d="M35.9387 41.1411C36.4996 41.1411 36.9543 40.6864 36.9543 40.1254C36.9543 39.5645 36.4996 39.1097 35.9387 39.1097C35.3777 39.1097 34.923 39.5645 34.923 40.1254C34.923 40.6864 35.3777 41.1411 35.9387 41.1411Z" fill="#0677EC"/>
<path d="M18.0627 19.8119V23.8746C18.0627 24.4355 18.5175 24.8903 19.0784 24.8903H48.4316C48.9924 24.8903 49.4472 24.4355 49.4472 23.8746V19.8119C49.4472 19.2509 48.9924 18.7962 48.4316 18.7962H19.0784C18.5175 18.7962 18.0627 19.2509 18.0627 19.8119ZM28.8289 20.8275H47.4159V22.8589H28.8289V20.8275ZM20.0941 20.8275H26.7976V22.8589H20.0941V20.8275Z" fill="#343D42"/>
<path d="M19.0784 28.953H48.4316C48.9924 28.953 49.4472 28.4982 49.4472 27.9373C49.4472 27.3763 48.9924 26.9216 48.4316 26.9216H19.0784C18.5175 26.9216 18.0627 27.3763 18.0627 27.9373C18.0627 28.4982 18.5175 28.953 19.0784 28.953Z" fill="#343D42"/>
<path d="M19.0784 33.0157H48.4316C48.9924 33.0157 49.4472 32.561 49.4472 32C49.4472 31.439 48.9924 30.9843 48.4316 30.9843H19.0784C18.5175 30.9843 18.0627 31.439 18.0627 32C18.0627 32.561 18.5175 33.0157 19.0784 33.0157Z" fill="#343D42"/>
<path d="M19.0784 37.0784H35.9387C36.4997 37.0784 36.9544 36.6237 36.9544 36.0627C36.9544 35.5017 36.4997 35.047 35.9387 35.047H19.0784C18.5175 35.047 18.0627 35.5017 18.0627 36.0627C18.0627 36.6237 18.5175 37.0784 19.0784 37.0784Z" fill="#343D42"/>
<path d="M19.0784 41.1411H31.876C32.4369 41.1411 32.8917 40.6864 32.8917 40.1254C32.8917 39.5645 32.4369 39.1097 31.876 39.1097H19.0784C18.5175 39.1097 18.0627 39.5645 18.0627 40.1254C18.0627 40.6864 18.5175 41.1411 19.0784 41.1411Z" fill="#343D42"/>
<path d="M27.8133 49.2666H32.9939C33.4657 51.5818 35.5175 53.3293 37.9701 53.3293C40.7703 53.3293 43.0485 51.0511 43.0485 48.2509C43.0485 45.4507 40.7703 43.1725 37.9701 43.1725C35.5176 43.1725 33.4657 44.92 32.9939 47.2352H27.8133C27.2523 47.2352 26.7976 47.6899 26.7976 48.2509C26.7976 48.8118 27.2523 49.2666 27.8133 49.2666ZM37.9701 47.2352H35.0977C35.517 46.0531 36.6459 45.2038 37.9701 45.2038C39.6502 45.2038 41.0171 46.5707 41.0171 48.2509C41.0171 49.931 39.6502 51.2979 37.9701 51.2979C36.646 51.2979 35.517 50.4487 35.0977 49.2666H37.9701C38.5309 49.2666 38.9858 48.8118 38.9858 48.2509C38.9858 47.6899 38.531 47.2352 37.9701 47.2352Z" fill="#0677EC"/>
<path d="M48.4316 14.124C48.9924 14.124 49.4472 13.6693 49.4472 13.1084C49.4472 12.5474 48.9924 12.0927 48.4316 12.0927H46.4002C45.8393 12.0927 45.3845 12.5474 45.3845 13.1084C45.3845 13.6693 45.8393 14.124 46.4002 14.124H48.4316Z" fill="#0677EC"/>
<path d="M42.3374 14.124C42.8983 14.124 43.3531 13.6693 43.3531 13.1084C43.3531 12.5474 42.8983 12.0927 42.3374 12.0927H40.3061C39.7452 12.0927 39.2904 12.5474 39.2904 13.1084C39.2904 13.6693 39.7452 14.124 40.3061 14.124H42.3374Z" fill="#0677EC"/>
<path d="M36.2433 14.124C36.8043 14.124 37.259 13.6693 37.259 13.1084C37.259 12.5474 36.8043 12.0927 36.2433 12.0927H34.212C33.651 12.0927 33.1963 12.5474 33.1963 13.1084C33.1963 13.6693 33.651 14.124 34.212 14.124H36.2433Z" fill="#0677EC"/>
<path d="M33.9073 58.0014C34.4682 58.0014 34.923 57.5467 34.923 56.9857C34.923 56.4248 34.4682 55.97 33.9073 55.97C33.3463 55.97 32.8916 56.4248 32.8916 56.9857C32.8916 57.5467 33.3463 58.0014 33.9073 58.0014Z" fill="#0677EC"/>
<path d="M15.0157 58.0014H29.3368C29.8977 58.0014 30.3524 57.5467 30.3524 56.9857C30.3524 56.4248 29.8977 55.97 29.3368 55.97H16.0314V16.1554H23.1411C23.7021 16.1554 24.1568 15.7007 24.1568 15.1397V8.02996H51.4786V36.7383C51.0179 37.2835 50.5876 37.7621 50.2154 38.1439L48.0621 35.9907C46.078 34.0053 42.8646 34.0043 40.8798 35.9905L39.4436 37.4267C39.047 37.8233 39.047 38.4664 39.4436 38.863L51.4785 50.8979V55.97H38.4778C37.9168 55.97 37.4621 56.4248 37.4621 56.9857C37.4621 57.5467 37.9168 58.0014 38.4778 58.0014H52.4942C53.055 58.0014 53.5098 57.5467 53.5098 56.9857V52.9293L53.8073 53.2268C54.204 53.6231 54.8472 53.6234 55.2438 53.2268L56.68 51.7906C58.6644 49.8062 58.6648 46.5933 56.68 44.6085L54.527 42.4555C56.4537 40.5782 60.6916 37.46 62.9183 36.4902C66.0437 35.1297 67.1715 30.8802 64.5049 28.2135C61.8583 25.5657 57.6277 26.6416 56.2417 29.776C55.7219 30.9507 54.645 32.6024 53.5099 34.1502V7.01428C53.5099 6.45332 53.0551 5.9986 52.4943 5.9986H23.1411C22.8641 5.9986 22.6038 6.1154 22.4229 6.29609L14.2975 14.4215C14.1138 14.6049 14 14.8641 14 15.1397V56.9857C14 57.5467 14.4547 58.0014 15.0157 58.0014ZM55.2435 46.0449C56.4342 47.2355 56.4344 49.1634 55.2435 50.3542L54.5256 51.0722L41.5983 38.1449L42.3164 37.4267C43.507 36.2355 45.4343 36.2349 46.6256 37.4269L55.2435 46.0449ZM53.2904 37.7389C55.0505 35.616 57.2202 32.5846 58.0994 30.5977C58.8889 28.8125 61.3979 27.9786 63.0684 29.6498C64.7396 31.321 63.8906 33.8516 62.1074 34.6278C59.5801 35.7286 55.1812 38.9749 53.0906 41.019L51.6519 39.5803C52.1334 39.0876 52.696 38.456 53.2904 37.7389ZM22.1254 9.46633V14.124H17.4677L22.1254 9.46633Z" fill="#343D42"/>
</svg>
