<svg width="80" height="64" viewBox="0 0 80 64" fill="none" xmlns="http://www.w3.org/2000/svg">
<path d="M62.5312 30.9062H53.4502C54.1384 29.9915 54.5469 28.8552 54.5469 27.625V9.46875C54.5469 6.45328 52.0936 4 49.0781 4H44.9219C44.3178 4 43.8281 4.48978 43.8281 5.09375C43.8281 5.69772 44.3178 6.1875 44.9219 6.1875H49.0781C50.8874 6.1875 52.3594 7.65947 52.3594 9.46875V27.625C52.3594 29.4343 50.8874 30.9062 49.0781 30.9062H30.9219C29.1126 30.9062 27.6406 29.4343 27.6406 27.625V9.46875C27.6406 7.65947 29.1126 6.1875 30.9219 6.1875H35.0781C35.6822 6.1875 36.1719 5.69772 36.1719 5.09375C36.1719 4.48978 35.6822 4 35.0781 4H30.9219C27.9064 4 25.4531 6.45328 25.4531 9.46875V27.625C25.4531 28.8552 25.8616 29.9915 26.5498 30.9062H17.4688C14.4533 30.9062 12 33.3595 12 36.375V54.5312C12 57.5467 14.4533 60 17.4688 60H35.625C37.4121 60 39.0014 59.1383 40 57.8087C40.9986 59.1383 42.5879 60 44.375 60H62.5312C65.5467 60 68 57.5467 68 54.5312V36.375C68 33.3595 65.5467 30.9062 62.5312 30.9062ZM35.625 57.8125H17.4688C15.6595 57.8125 14.1875 56.3405 14.1875 54.5312V36.375C14.1875 34.5657 15.6595 33.0938 17.4688 33.0938H35.625C37.4343 33.0938 38.9062 34.5657 38.9062 36.375V54.5312C38.9062 56.3405 37.4343 57.8125 35.625 57.8125ZM65.8125 54.5312C65.8125 56.3405 64.3405 57.8125 62.5312 57.8125H44.375C42.5657 57.8125 41.0938 56.3405 41.0938 54.5312V36.375C41.0938 34.5657 42.5657 33.0938 44.375 33.0938H62.5312C64.3405 33.0938 65.8125 34.5657 65.8125 36.375V54.5312Z" fill="#343D42"/>
<path d="M61.9444 36H45.0556C44.4726 36 44 36.4727 44 37.0556V53.9444C44 54.5273 44.4726 55 45.0556 55H61.9444C62.5274 55 63 54.5273 63 53.9444V37.0556C63 36.4727 62.5274 36 61.9444 36ZM60.8889 52.8889H46.1111V38.1111H60.8889V52.8889Z" fill="#42A53B"/>
<path d="M34.9444 36H18.0556C17.4726 36 17 36.4727 17 37.0556V53.9444C17 54.5273 17.4726 55 18.0556 55H34.9444C35.5274 55 36 54.5273 36 53.9444V37.0556C36 36.4727 35.5274 36 34.9444 36ZM33.8889 52.8889H19.1111V38.1111H33.8889V52.8889Z" fill="#E4097F"/>
<path d="M30 10.0556V26.9444C30 27.5273 30.4974 28 31.1111 28H48.8889C49.5026 28 50 27.5273 50 26.9444V10.0556C50 9.47268 49.5026 9 48.8889 9H31.1111C30.4974 9 30 9.47268 30 10.0556ZM32.2222 11.1111H47.7778V25.8889H32.2222V11.1111Z" fill="#FFD601"/>
<path d="M40.9103 13H39.0897C38.4879 13 38 13.5018 38 14.1206C38 14.7394 38.4879 15.2412 39.0897 15.2412H39.8205V22.8794C39.8205 23.4982 40.3084 24 40.9103 24C41.5121 24 42 23.4982 42 22.8794V14.1206C42 13.5017 41.5121 13 40.9103 13Z" fill="#FFD601"/>
<path d="M23.8997 43.981C24.5032 44.0988 25.0891 43.7075 25.2077 43.1065C25.3093 42.5917 25.7666 42.2181 26.2953 42.2181C26.9195 42.2181 27.4036 42.8112 27.4036 43.3214C27.4036 43.7597 26.9959 44.3922 26.6406 44.8943C23.8959 48.773 23.5696 49.2238 23.5574 49.2405C23.3119 49.5781 23.2772 50.024 23.4675 50.3952C23.6578 50.7664 24.0412 51 24.4598 51H28.8859C29.5012 51 30 50.5034 30 49.8909C30 49.2785 29.5012 48.7819 28.8859 48.7819H26.6135C27.057 48.1563 27.6555 47.3114 28.4622 46.1716C29.0697 45.3132 29.6318 44.3737 29.6318 43.3214C29.6318 41.5211 28.1037 40 26.2952 40C24.7044 40 23.3275 41.1266 23.0211 42.6788C22.9025 43.2798 23.2959 43.8629 23.8997 43.981Z" fill="#E4097F"/>
<path d="M53 48.8C52.5038 48.8 52.078 48.3938 52.0097 47.8547C52.0033 47.8042 52 47.752 52 47.7C52 47.0926 51.5523 46.6 51 46.6C50.4477 46.6 50 47.0926 50 47.7C50 47.8536 50.0097 48.0081 50.0289 48.1589C50.2344 49.7787 51.5117 51 53 51C54.6542 51 56 49.5196 56 47.7C56 46.8554 55.7098 46.0843 55.2337 45.5C55.7098 44.9157 56 44.1446 56 43.3C56 41.4804 54.6542 40 53 40C51.5697 40 50.3316 41.1194 50.0562 42.6616C49.9498 43.2578 50.3028 43.8359 50.8447 43.953C51.3865 44.0698 51.9122 43.6816 52.0187 43.0856C52.1104 42.5723 52.523 42.1999 53 42.1999C53.5514 42.1999 54 42.6933 54 43.2999C54 43.9064 53.5514 44.3999 53 44.3999C52.4477 44.3999 52 44.8925 52 45.4999C52 46.1073 52.4477 46.5999 53 46.5999C53.5514 46.5999 54 47.0933 54 47.6999C54 48.3064 53.5514 48.8 53 48.8Z" fill="#42A53B"/>
<path d="M40 6C40.263 6 40.521 5.893 40.707 5.7069C40.893 5.521 41 5.263 41 5C41 4.737 40.893 4.479 40.707 4.293C40.521 4.107 40.263 4 40 4C39.737 4 39.479 4.1069 39.293 4.293C39.107 4.479 39 4.737 39 5C39 5.263 39.107 5.521 39.293 5.7069C39.479 5.893 39.737 6 40 6Z" fill="#343D42"/>
</svg>
