<svg id="i-geo-2" viewBox="0 0 16 16" fill="none" xmlns="http://www.w3.org/2000/svg">
<g clip-path="url(#clip0)">
<path d="M12.1524 9.78279C11.7951 9.69613 11.4351 9.91944 11.3504 10.2774C11.2651 10.6354 11.4871 10.9948 11.8451 11.0794C13.9157 11.5708 14.6664 12.2974 14.6664 12.6667C14.6664 13.4634 12.0078 14.6667 7.99984 14.6667C3.99258 14.6667 1.33332 13.4634 1.33332 12.6667C1.33332 12.2974 2.08465 11.5708 4.15392 11.0794C4.51257 10.9948 4.73391 10.6354 4.64856 10.2774C4.56391 9.91944 4.20392 9.6961 3.84658 9.78279C1.36597 10.3708 0 11.3948 0 12.6667C0 14.8547 4.02526 16 7.99984 16C11.9751 16 15.9997 14.8547 15.9997 12.6667C15.9997 11.3948 14.6337 10.3708 12.1524 9.78279Z" fill="#E4097F"/>
<path d="M8.00063 5.33365C8.36862 5.33365 8.66727 5.035 8.66727 4.66701C8.66727 4.29902 8.36862 4.00037 8.00063 4.00037C7.63263 4.00037 7.33398 4.29902 7.33398 4.66701C7.33398 5.035 7.63263 5.33365 8.00063 5.33365Z" fill="#E4097F"/>
<path d="M7.13243 12.4222L7.40377 12.9648C7.51711 13.1908 7.74777 13.3335 8.00042 13.3335C8.25307 13.3335 8.48375 13.1908 8.59706 12.9648L9.17171 11.8155C9.87104 10.4162 10.7337 9.0609 11.5677 7.75024L11.9477 7.15225C12.4183 6.40827 12.667 5.54894 12.667 4.66696C12.667 3.33898 12.0983 2.06966 11.107 1.18437C10.1164 0.29973 8.78375 -0.124231 7.45512 0.0317664C5.38047 0.267762 3.66719 1.93839 3.37985 4.00369C3.20985 5.22766 3.51585 6.44298 4.24049 7.42697C5.37116 8.9589 6.25379 10.6636 7.13243 12.4222ZM8.00042 2.66703C9.10305 2.66703 10.0004 3.56435 10.0004 4.66699C10.0004 5.76962 9.10305 6.66695 8.00042 6.66695C6.89778 6.66695 6.00046 5.76962 6.00046 4.66699C6.00046 3.56435 6.89778 2.66703 8.00042 2.66703Z" fill="#E4097F"/>
</g>
<defs>
<clipPath id="clip0">
<rect width="16" height="16" fill="white"/>
</clipPath>
</defs>
</svg>
