<svg width="16" height="16" viewBox="0 0 16 16" fill="none" xmlns="http://www.w3.org/2000/svg">
<g clip-path="url(#clip0)">
<path d="M12.1525 9.78277C11.7952 9.69612 11.4352 9.91943 11.3506 10.2774C11.2652 10.6354 11.4872 10.9947 11.8452 11.0794C13.9158 11.5707 14.6665 12.2974 14.6665 12.6667C14.6665 13.4634 12.0079 14.6667 7.99997 14.6667C3.9927 14.6667 1.33344 13.4634 1.33344 12.6667C1.33344 12.2974 2.08477 11.5707 4.15404 11.0794C4.51269 10.9947 4.73403 10.6354 4.64869 10.2774C4.56403 9.91943 4.20404 9.69609 3.8467 9.78277C1.3661 10.3708 0.00012207 11.3947 0.00012207 12.6667C0.00012207 14.8547 4.02539 16 7.99997 16C11.9752 16 15.9998 14.8547 15.9998 12.6667C15.9998 11.3947 14.6338 10.3708 12.1525 9.78277Z" fill="#34358C"/>
<path d="M8.00026 5.33368C8.36825 5.33368 8.6669 5.03503 8.6669 4.66703C8.6669 4.29904 8.36825 4.00039 8.00026 4.00039C7.63227 4.00039 7.33362 4.29904 7.33362 4.66703C7.33362 5.03503 7.63227 5.33368 8.00026 5.33368Z" fill="#34358C"/>
<path d="M7.13231 12.4222L7.40365 12.9648C7.51699 13.1908 7.74764 13.3335 8.0003 13.3335C8.25295 13.3335 8.48363 13.1908 8.59694 12.9648L9.17158 11.8155C9.87091 10.4162 10.7336 9.06091 11.5675 7.75025L11.9475 7.15226C12.4182 6.40828 12.6669 5.54895 12.6669 4.66697C12.6669 3.33899 12.0982 2.06968 11.1069 1.18438C10.1163 0.299741 8.78362 -0.124219 7.45499 0.0317778C5.38035 0.267773 3.66707 1.9384 3.37973 4.0037C3.20973 5.22768 3.51573 6.443 4.24037 7.42698C5.37103 8.95892 6.25367 10.6636 7.13231 12.4222ZM8.0003 2.66704C9.10293 2.66704 10.0003 3.56436 10.0003 4.667C10.0003 5.76963 9.10293 6.66696 8.0003 6.66696C6.89766 6.66696 6.00033 5.76963 6.00033 4.667C6.00033 3.56436 6.89766 2.66704 8.0003 2.66704Z" fill="#34358C"/>
</g>
<defs>
<clipPath id="clip0">
<rect width="16" height="16" fill="white"/>
</clipPath>
</defs>
</svg>
