<svg width="80" height="64" viewBox="0 0 80 64" fill="none" xmlns="http://www.w3.org/2000/svg">
<path d="M11.8793 23.6268C12.9194 26.3769 14.6077 28.7513 16.7305 30.5983C12.2265 31.4378 8.80322 35.4244 8.80322 40.2044V53.8942C8.80322 54.4919 9.28387 54.9764 9.87669 54.9764C10.4695 54.9764 10.9502 54.4919 10.9502 53.8942V40.2044C10.9502 36.0098 14.3351 32.5974 18.4959 32.5974H19.5572C22.0863 34.0324 24.9858 34.837 28.0224 34.837C31.0589 34.837 33.9584 34.0321 36.4875 32.5974H37.5489C41.7094 32.5974 45.0946 36.0098 45.0946 40.2044V45.1284C45.0946 45.7261 45.5752 46.2106 46.168 46.2106C46.7608 46.2106 47.2415 45.7261 47.2415 45.1284V40.2044C47.2415 35.4244 43.8182 31.4378 39.3142 30.5983C41.4367 28.7513 43.1253 26.3769 44.1655 23.6268C46.4753 22.734 48.0444 20.4744 48.0444 17.9453C48.0444 15.585 46.6747 13.442 44.5833 12.4445C42.4154 5.09039 35.6813 0 28.0221 0C20.3629 0 13.629 5.09039 11.4614 12.4447C9.36975 13.4422 8 15.5853 8 17.9455C8 20.4744 9.56914 22.734 11.8793 23.6268ZM12.7192 14.2588L13.249 14.0659L13.3926 13.5169C15.1418 6.83272 21.1575 2.16439 28.0221 2.16439C34.8869 2.16439 40.9027 6.83272 42.6519 13.5169L42.7955 14.0659L43.3252 14.2588C44.8638 14.8191 45.8975 16.3006 45.8975 17.9453C45.8975 19.6992 44.7255 21.2525 43.0472 21.7219L42.5043 21.8739L42.3199 22.4107C40.2113 28.5486 34.4656 32.6726 28.0224 32.6726C21.5791 32.6726 15.8334 28.5486 13.7248 22.4107L13.5404 21.8739L12.9975 21.7219C11.3192 21.2525 10.1469 19.6995 10.1469 17.9455C10.1469 16.3006 11.1807 14.8191 12.7192 14.2588ZM17.4092 17.4185C17.4092 15.7322 18.7701 14.3602 20.4429 14.3602C22.1156 14.3602 23.4765 15.7322 23.4765 17.4185C23.4765 18.0162 22.9958 18.5007 22.403 18.5007C21.8102 18.5007 21.3295 18.0162 21.3295 17.4185C21.3295 16.9256 20.9318 16.5246 20.4429 16.5246C19.9539 16.5246 19.5562 16.9256 19.5562 17.4185C19.5562 18.0162 19.0755 18.5007 18.4827 18.5007C17.8899 18.5007 17.4092 18.0162 17.4092 17.4185ZM32.9601 17.4185C32.9601 15.7322 34.3209 14.3602 35.9937 14.3602C37.6664 14.3602 39.0273 15.7322 39.0273 17.4185C39.0273 18.0162 38.5467 18.5007 37.9538 18.5007C37.361 18.5007 36.8804 18.0162 36.8804 17.4185C36.8804 16.9256 36.4826 16.5246 35.9937 16.5246C35.5047 16.5246 35.107 16.9256 35.107 17.4185C35.107 18.0162 34.6263 18.5007 34.0335 18.5007C33.4407 18.5007 32.9601 18.0162 32.9601 17.4185ZM28.0221 25.9224C30.5987 25.9224 32.9721 24.735 34.5343 22.6645C34.8928 22.1886 35.5667 22.096 36.0385 22.4583C36.5103 22.82 36.6021 23.4991 36.243 23.9747C34.2716 26.588 31.2752 28.0868 28.0221 28.0868C24.7692 28.0868 21.7726 26.588 19.8015 23.9747C19.4427 23.4991 19.5342 22.82 20.006 22.4583C20.478 22.0963 21.1516 22.1888 21.5102 22.6645C23.0723 24.735 25.4458 25.9224 28.0221 25.9224Z" fill="#343D42"/>
<path d="M27.9999 46.3438C25.7943 46.3438 24 48.138 24 50.3439C24 52.5497 25.7943 54.3438 27.9999 54.3438C30.2055 54.3438 32 52.5497 32 50.3439C32 48.138 30.2057 46.3438 27.9999 46.3438ZM27.9999 52.4664C26.8293 52.4664 25.8771 51.514 25.8771 50.3436C25.8771 49.1733 26.8295 48.2206 27.9999 48.2206C29.1703 48.2206 30.1229 49.1733 30.1229 50.3436C30.1229 51.514 29.1705 52.4664 27.9999 52.4664Z" fill="#0677EC"/>
<path d="M71.6122 12.1818L69.4323 10.3572C68.9763 9.97544 68.2995 10.0388 67.9205 10.4984C67.5419 10.9583 67.6047 11.6407 68.0606 12.0224L69.4148 13.1557L62.4241 21.6448C60.9781 23.4004 58.3857 23.6431 56.644 22.1856C55.8 21.4795 55.2799 20.4844 55.1785 19.3841C55.0773 18.2835 55.4071 17.2088 56.1075 16.3585L63.098 7.86949L64.4524 9.00282C64.9084 9.38456 65.5852 9.32126 65.9641 8.86159C66.3425 8.40166 66.28 7.71933 65.8238 7.33759L63.6438 5.513C63.4249 5.32957 63.1433 5.24164 62.8589 5.26816C62.5755 5.29467 62.3141 5.43373 62.1321 5.6545L54.4557 14.9763C53.389 16.2717 52.8863 17.9079 53.0412 19.5843C53.1601 20.8794 53.6638 22.0758 54.478 23.0503C51.4914 27.1897 53.0017 31.5639 54.4676 35.7999C55.7023 39.3679 56.9787 43.0574 56.1051 47.1327C55.4305 50.2767 53.0737 52.0686 51.2152 53.0185C47.2251 55.0573 41.817 55.1888 37.168 53.4154C37.507 52.4222 37.6938 51.3584 37.6938 50.251C37.6938 44.8749 33.3551 40.501 28.0224 40.501C22.6896 40.501 18.3509 44.8749 18.3509 50.251C18.3509 55.6271 22.6896 60.0008 28.0224 60.0008C31.4918 60.0008 34.5391 58.1486 36.2462 55.3744C38.6908 56.3295 41.3355 56.8097 43.9253 56.8097C46.8789 56.8097 49.7593 56.189 52.1856 54.9491C55.4007 53.3063 57.5379 50.6928 58.2032 47.5904C59.2048 42.9197 57.765 38.7584 56.4948 35.0873C55.0631 30.9495 53.9174 27.6334 56.1245 24.4485C57.0973 25.0193 58.1807 25.3021 59.2611 25.3021C61.0576 25.3021 62.8422 24.5272 64.0765 23.0281L71.7528 13.7063C72.1312 13.2458 72.0684 12.5638 71.6122 12.1818ZM28.0221 57.8356C23.8731 57.8356 20.4976 54.4329 20.4976 50.2502C20.4976 46.0673 23.8731 42.6646 28.0221 42.6646C32.171 42.6646 35.5466 46.0673 35.5466 50.2502C35.5468 54.4329 32.1713 57.8356 28.0221 57.8356Z" fill="#0677EC"/>
</svg>
