<svg width="80" height="64" viewBox="0 0 80 64" fill="none" xmlns="http://www.w3.org/2000/svg">
<path d="M35.4208 46.7125C35.0043 46.2961 34.3291 46.2961 33.9125 46.7125C33.8123 46.8139 23.6917 56.6923 10.6923 48.6912C10.1945 48.4203 9.57182 48.586 9.27444 49.0684C8.97706 49.5508 9.10879 50.1815 9.5744 50.5045C12.982 52.7051 16.9413 53.8997 20.9973 53.9509C26.3376 53.8324 31.457 51.7971 35.4208 48.2165C35.8344 47.8005 35.8344 47.1286 35.4208 46.7125Z" fill="#42A53B"/>
<path d="M30.9899 58.0747C30.8683 58.1355 18.7861 64.0395 10.8875 56.1419C10.4689 55.7377 9.80364 55.7434 9.39219 56.1549C8.98074 56.5663 8.97496 57.2316 9.3792 57.6502C12.5429 60.7831 16.8494 62.4874 21.3003 62.368C24.9741 62.312 28.5971 61.5001 31.9435 59.983C32.2875 59.8144 32.5146 59.4743 32.5387 59.092C32.5627 58.7097 32.3799 58.3439 32.0597 58.1336C31.7395 57.9233 31.3312 57.9008 30.9899 58.0747Z" fill="#42A53B"/>
<path d="M70.4256 50.5088C70.8913 50.1858 71.023 49.555 70.7256 49.0726C70.4282 48.5902 69.8056 48.4246 69.3078 48.6955C62.0477 53.5117 52.4265 52.6914 46.0865 46.7157C45.6676 46.3118 45.0023 46.318 44.5912 46.7298C44.18 47.1415 44.1747 47.8068 44.5793 48.2251C48.5428 51.8061 53.6624 53.8415 59.0027 53.9595C63.0592 53.9069 67.0185 52.7109 70.4256 50.5088Z" fill="#42A53B"/>
<path d="M48.0565 59.983C51.4028 61.5003 55.0258 62.3122 58.6997 62.368C63.1506 62.4874 67.457 60.7831 70.6207 57.6502C71.025 57.2316 71.0192 56.5663 70.6077 56.1549C70.1963 55.7434 69.531 55.7377 69.1125 56.1419C61.2341 64.0192 49.1317 58.1334 49.009 58.0747C48.4846 57.8275 47.8588 58.0445 47.5999 58.5632C47.3409 59.0819 47.5437 59.7124 48.0565 59.983Z" fill="#42A53B"/>
<path d="M37.8667 1.60001H25.0667C24.5456 1.60016 24.1009 1.97675 24.0149 2.49067L23.2533 7.04001C23.0948 7.99349 22.6171 8.86488 21.8987 9.51147C16.0608 14.7381 15.8869 15.0891 15.7749 15.3141L8.51948 28.8437C7.86186 30.0113 7.84934 31.4345 8.48631 32.6134C9.12329 33.7923 10.3206 34.5619 11.6576 34.6517L10.5963 36.6272C9.893 37.8236 9.88072 39.3041 10.5641 40.512C11.2474 41.7198 12.5227 42.4719 13.9104 42.4853C13.5601 43.6436 13.7726 44.8991 14.4847 45.8774C15.1968 46.8558 16.3262 47.444 17.536 47.4667C18.9201 47.4805 20.2 46.7332 20.8683 45.5211L20.9931 45.3237C21.683 46.5181 22.9673 47.2435 24.3464 47.2178C25.7255 47.192 26.9817 46.4193 27.6267 45.2L33.3547 34.6027L33.408 38.6485C33.4154 40.209 34.3719 41.6077 35.8234 42.1806C37.2749 42.7534 38.9289 42.3849 40 41.2501C41.0737 42.3794 42.7251 42.7443 44.1746 42.1725C45.6241 41.6007 46.5816 40.2067 46.5952 38.6485L46.6485 34.6027L52.3733 45.2043C53.0208 46.421 54.2773 47.1908 55.6554 47.215C57.0335 47.2391 58.3162 46.5139 59.0059 45.3205L59.0869 45.4485C59.593 46.4029 60.4818 47.0962 61.5305 47.3549C62.5793 47.6135 63.6886 47.4128 64.5803 46.8032C65.9463 45.8283 66.5501 44.0986 66.0875 42.4853C67.4738 42.4727 68.7484 41.7227 69.4326 40.5169C70.1168 39.3112 70.107 37.8323 69.4069 36.6357L68.3403 34.6517C69.6779 34.5614 70.8755 33.7908 71.5121 32.611C72.1487 31.4311 72.1352 30.007 71.4763 28.8395L64.24 15.3419C64.1131 15.0891 63.9392 14.7413 58.1013 9.51147C57.3829 8.86488 56.9053 7.99349 56.7467 7.04001L55.9851 2.49067C55.8991 1.97675 55.4544 1.60016 54.9333 1.60001H42.1333C41.5442 1.60001 41.0667 2.07757 41.0667 2.66667C41.0667 5.60534 40.912 22.1504 40.4832 23.9168C40.3253 24.4416 40.1632 24.9984 40 25.5499C39.8443 25.0165 39.68 24.4747 39.5317 23.9712C39.0752 22.1024 38.9333 5.96587 38.9333 2.66667C38.9333 2.07757 38.4558 1.60001 37.8667 1.60001V1.60001ZM41.1819 29.4325C41.2256 29.0197 41.9136 26.5675 42.5397 24.4768C43.0571 22.3616 43.2 6.31254 43.2 3.73334H54.0299L54.6389 7.38987C54.879 8.82239 55.598 10.1311 56.6784 11.1019C60.5483 14.5685 62.1717 16.1152 62.3456 16.3285L69.5989 29.8496C70.0917 30.7323 69.7855 31.8471 68.9109 32.3541C68.1501 32.7365 67.2232 32.4728 66.7776 31.7472L62.1419 23.0571C61.9624 22.7208 61.6171 22.5058 61.2361 22.4931C60.8551 22.4803 60.4963 22.6719 60.2948 22.9955C60.0933 23.3191 60.0797 23.7256 60.2592 24.0619C66.8075 36.3349 63.3237 29.8219 67.5382 37.6597C68.021 38.4694 67.8122 39.5132 67.0549 40.0747C66.6615 40.3276 66.1809 40.4066 65.7271 40.2929C65.2734 40.1791 64.8869 39.8828 64.6592 39.4741C64.0469 38.3168 66.9387 43.8933 58.1525 27.3141C57.9787 26.9693 57.632 26.7454 57.2461 26.7287C56.8603 26.7121 56.4956 26.9053 56.2926 27.2338C56.0897 27.5624 56.0802 27.975 56.2677 28.3125C59.7451 34.8768 62.7904 40.6389 63.8645 42.6283C64.3387 43.4393 64.1337 44.4767 63.3867 45.0464C62.9824 45.3187 62.4798 45.4023 62.0092 45.2754C61.5385 45.1485 61.146 44.8237 60.9333 44.3851C58.0768 39.8827 60.0288 43.3515 52.6251 29.3771C52.3491 28.8566 51.7034 28.6584 51.1829 28.9344C50.6625 29.2104 50.4643 29.8561 50.7403 30.3765C56.1419 40.5717 57.0965 42.3979 57.2299 42.5835C57.5788 43.3573 57.3542 44.2693 56.6859 44.7925C56.2896 45.0591 55.7993 45.146 55.3356 45.0318C54.8719 44.9177 54.4779 44.6131 54.2507 44.1931L46.5707 29.9733C46.3398 29.5455 45.8489 29.3279 45.3769 29.4441C44.9048 29.5604 44.5711 29.9811 44.5653 30.4672L44.4587 38.6155C44.4539 39.0729 44.2688 39.5099 43.9435 39.8315C43.4503 40.3086 42.7182 40.4417 42.0886 40.1688C41.459 39.8959 41.0557 39.2707 41.0667 38.5845L41.1819 29.4325ZM38.9333 38.5845C38.9474 39.2728 38.5443 39.9014 37.9129 40.1758C37.2814 40.4501 36.5468 40.3158 36.0533 39.8357C35.7282 39.5145 35.5431 39.0779 35.5381 38.6208L35.4315 30.4715C35.4257 29.9854 35.092 29.5646 34.62 29.4484C34.1479 29.3321 33.657 29.5498 33.4261 29.9776L25.7461 44.1824C25.5198 44.6042 25.1254 44.9104 24.6608 45.0252C24.1961 45.1401 23.7045 45.0528 23.3077 44.7851C22.6401 44.2613 22.416 43.3496 22.7648 42.576C22.8981 42.3904 23.8528 40.5643 29.2544 30.3691C29.433 30.0324 29.4183 29.626 29.216 29.3031C29.0137 28.9801 28.6544 28.7896 28.2736 28.8033C27.8927 28.8171 27.5482 29.0329 27.3696 29.3696C19.9979 43.2843 21.8165 40.0363 19.0197 44.4501C18.7925 44.863 18.4026 45.1617 17.9448 45.2736C17.487 45.3856 17.0033 45.3004 16.6112 45.0389C15.8641 44.4692 15.6591 43.4319 16.1333 42.6208C17.2128 40.6208 20.6741 34.0736 23.7301 28.3051C23.9177 27.9675 23.9082 27.5549 23.7053 27.2263C23.5023 26.8978 23.1376 26.7046 22.7518 26.7213C22.3659 26.7379 22.0192 26.9618 21.8453 27.3067C13.12 43.7856 15.9573 38.3125 15.3451 39.4667C15.1169 39.8738 14.7312 40.1691 14.2786 40.2831C13.826 40.3971 13.3464 40.3198 12.9525 40.0693C12.1914 39.5054 11.9828 38.4558 12.4704 37.6437C16.5877 29.9829 13.3504 36.0437 19.7451 24.0544C20.0225 23.5345 19.826 22.8881 19.3061 22.6107C18.7863 22.3332 18.1399 22.5297 17.8624 23.0496L13.2267 31.7419C12.7766 32.4615 11.8549 32.7237 11.0933 32.3488C10.2204 31.8422 9.91356 30.7301 10.4032 29.8475L17.6245 16.3808C17.9221 16.0288 19.5605 14.4725 23.3237 11.1019C24.4041 10.1311 25.1232 8.82239 25.3632 7.38987L25.9701 3.73334H36.8C36.8 6.20054 36.9429 22.3637 37.4741 24.5333C38.0864 26.5685 38.7744 29.0219 38.816 29.392L38.9333 38.5867V38.5845Z" fill="#343D42"/>
</svg>
