<svg width="80" height="64" viewBox="0 0 80 64" fill="none" xmlns="http://www.w3.org/2000/svg">
<path fill-rule="evenodd" clip-rule="evenodd" d="M62.0636 64C61.3522 64 60.8889 63.4507 60.8837 62.6008C60.8734 60.8106 60.875 59.0211 60.8774 57.2309L60.8793 55.283L60.923 55.0329C60.923 54.323 60.9197 53.6136 60.9163 52.9041C60.9086 51.3228 60.901 49.688 60.9328 48.0818C60.9803 45.6678 61.6923 43.4158 63.0497 41.3905C65.197 38.1864 66.5347 35.1093 67.139 31.9842C68.6584 24.1273 66.8253 17.0793 61.6901 11.0359C57.6841 6.32112 52.4397 3.47344 46.1032 2.57181C44.9867 2.41305 43.8495 2.33254 42.722 2.33254C31.7713 2.33254 21.7285 9.95969 18.8419 20.468C18.2551 22.6042 17.9743 24.8986 17.984 27.4818C17.9939 30.1879 17.4386 32.7962 16.2861 35.4567C15.5851 37.0756 14.8898 38.7281 14.2177 40.3264L13.5746 41.854C13.3949 42.2799 13.2864 42.5788 13.4108 42.835C13.5339 43.0886 13.8264 43.1878 14.2589 43.3098C14.6045 43.407 14.9507 43.5027 15.2971 43.5984C15.9731 43.7845 16.672 43.9779 17.3538 44.1813C18.6713 44.5754 19.4135 45.4079 19.6234 46.7256L20.0306 49.278C20.4199 51.7151 20.8094 54.1524 21.186 56.5919C21.4439 58.2601 22.5145 59.1804 24.201 59.1833C25.7607 59.1863 27.321 59.1885 28.8812 59.1885C30.145 59.1885 31.4088 59.1867 32.6725 59.1833C36.4654 59.1725 39.1579 56.6346 39.3726 52.8678C39.4159 52.1182 39.8656 51.6522 40.5467 51.6522C41.2797 51.6608 41.726 52.1658 41.7277 52.9717C41.7375 57.1511 38.2395 61.0792 34.2414 61.3779C32.1996 61.5304 30.1439 61.5499 28.5811 61.5499C27.7983 61.5499 27.0148 61.5443 26.2317 61.5391C25.4476 61.5341 24.6635 61.5283 23.8804 61.5283H23.6453C23.2193 61.5283 22.7329 61.4097 22.1113 61.1538C20.2157 60.3745 19.1533 58.9621 18.863 56.8354C18.7109 55.7184 18.5163 54.5893 18.3282 53.4969C18.0579 51.9297 17.7788 50.3086 17.623 48.7072C17.4514 46.9388 16.6576 46.1096 14.9687 45.9354C14.5456 45.8916 14.1118 45.7541 13.6924 45.6217C13.5645 45.5814 13.4372 45.5408 13.3094 45.503C12.385 45.2283 11.6672 44.6429 11.2877 43.8544C10.9131 43.0763 10.9041 42.1698 11.262 41.301C11.7864 40.0261 12.3342 38.736 12.8641 37.4882C13.39 36.2497 13.9335 34.9692 14.4547 33.7036C15.2925 31.6667 15.6899 29.5525 15.6356 27.4197C15.4816 21.3647 17.5078 15.3319 21.34 10.4328C25.2164 5.47707 30.6906 2.02749 36.7546 0.71948C38.9676 0.242156 41.1509 0 43.2452 0C50.3136 0 56.6694 2.72236 62.136 8.09111C67.4779 13.3379 70.1222 19.906 69.9957 27.6134C69.9107 32.7459 68.4176 37.5093 65.5581 41.7706C63.9419 44.1787 63.171 46.763 63.201 49.671C63.2339 52.7335 63.2241 55.8484 63.2149 58.8605C63.2116 60.1032 63.2074 61.3463 63.2062 62.5888C63.2056 63.4586 62.768 63.9994 62.0636 64Z" fill="#343D42"/>
<path fill-rule="evenodd" clip-rule="evenodd" d="M45.9533 43.9997C45.2141 43.9997 44.786 43.4867 44.7777 42.5923C44.7725 41.984 44.7745 41.3765 44.7767 40.7684C44.7777 40.2139 44.7797 39.6604 44.776 39.1064C44.7632 37.0373 43.1959 35.5105 41.0491 35.4754C40.8603 35.4726 40.671 35.4717 40.4811 35.4717C40.2964 35.4717 39.5574 35.4754 39.3733 35.4754C38.6394 35.4754 37.8556 35.4604 37.0946 35.353C34.8836 35.0414 33.3455 33.7781 32.5227 31.5994C32.3594 31.1681 32.1529 30.9107 31.5789 30.8709C27.6093 30.5944 24.2144 27.2114 24.0109 23.3298C23.7978 19.2548 26.7352 15.564 30.6982 14.9274C32.0254 14.7141 32.6712 14.2503 33.2583 13.089C34.8463 9.94993 38.0737 8 41.6811 8C44.8819 8 47.7615 9.48674 49.5809 12.0794C49.9361 12.5843 50.3318 12.8005 50.9477 12.8251C55.3637 13.0027 58.9137 16.626 58.8598 20.902C58.8496 21.7502 59.0924 22.2932 59.7254 22.8378C61.9445 24.746 62.6272 27.9541 61.3852 30.6391C60.2085 33.1829 57.6674 34.7632 54.7548 34.7632C54.5211 34.7632 54.2832 34.7533 54.0485 34.7328C51.1642 34.4813 48.6214 32.3278 47.8651 29.4951C47.8418 29.4067 47.8222 29.3173 47.7988 29.2138L47.7139 28.8412L47.5184 28.836C45.7229 28.7887 44.3467 28.1859 43.3118 26.9932C42.7629 26.361 42.7543 25.6671 43.2894 25.2258C43.4995 25.0523 43.7354 24.9644 43.9906 24.9644C44.3501 24.9644 44.7259 25.1455 45.0477 25.4741C45.7375 26.1774 46.5522 26.5491 47.4048 26.5491C47.7829 26.5491 48.1586 26.4742 48.5209 26.3266C49.7502 25.8261 50.3665 24.7942 50.3041 23.3416C50.2765 22.7151 50.4295 21.9519 51.3129 21.8738C51.3591 21.8698 51.4048 21.8676 51.4493 21.8676C52.0996 21.8676 52.5147 22.3095 52.6179 23.1121C52.8585 24.9874 52.1731 26.5535 50.5801 27.7666C50.1566 28.0893 50.0251 28.4437 50.1416 28.952C50.5381 30.6882 52.2101 32.177 54.0302 32.4146C54.2981 32.4496 54.5652 32.4674 54.8254 32.4674C56.6652 32.4674 58.2125 31.5876 59.0708 30.054C59.9767 28.4338 59.7569 26.2743 58.5478 24.9189C58.4924 24.8571 58.4337 24.8099 58.3709 24.76C58.3435 24.7384 58.3154 24.7156 58.2853 24.6898L58.0733 24.5089L57.7987 24.8921C57.7299 24.9897 57.6666 25.0806 57.5978 25.1682C57.3349 25.5037 56.9701 25.6961 56.5961 25.6961C56.3987 25.6961 56.2065 25.6445 56.0258 25.5431C55.4529 25.2215 55.2758 24.5776 55.6052 24.0112C56.2722 22.8652 56.5627 21.6861 56.4939 20.4059C56.3377 17.538 53.5576 15.0221 50.5454 15.0221C50.3138 15.0221 50.0814 15.0373 49.8539 15.0671C49.6688 15.0915 49.5129 15.1033 49.3791 15.1033C48.8123 15.1033 48.5475 14.9052 48.1469 14.1819C46.7077 11.5848 44.5106 10.2681 41.6157 10.2681L41.4695 10.2692C37.7709 10.3254 34.6116 13.4168 34.5704 17.0195C34.5685 17.2117 34.5778 17.404 34.587 17.5962C34.5971 17.8055 34.6065 18.0034 34.6016 18.2025C34.5879 18.7937 34.1486 19.2569 33.5577 19.3036C33.5248 19.3063 33.4921 19.3075 33.4598 19.3075C32.8843 19.3075 32.4003 18.8968 32.3084 18.331C32.2709 18.1005 32.2458 17.8685 32.2208 17.6403C32.2094 17.5381 32.1628 17.1376 32.1628 17.1376L31.9561 17.1222C31.866 17.1158 31.7758 17.1124 31.6853 17.1124C29.2099 17.1124 26.5942 19.6117 26.4042 22.1583C26.2736 23.9192 26.8061 25.5538 27.9044 26.7609C28.9072 27.8629 30.3112 28.518 31.8584 28.6062L31.9989 28.6141L32.0792 28.503C32.3071 28.1875 32.5195 27.8719 32.7282 27.5623C33.1797 26.8914 33.6061 26.2576 34.129 25.7184C35.0807 24.737 36.3578 24.2394 37.9256 24.2394H37.9649C38.6979 24.2433 39.1698 24.642 39.1968 25.2802C39.2318 26.128 38.6127 26.3865 38.0873 26.4537C35.8066 26.7454 34.4911 28.07 34.5683 29.9968C34.6371 31.6991 36.1254 33.1212 37.8861 33.1675C38.1717 33.1746 38.4575 33.1765 38.744 33.1765L39.6097 33.1746C40.4236 33.1746 41.1038 33.1913 41.7778 33.2743C44.9594 33.6643 47.0699 35.9464 47.154 39.0881C47.1854 40.2405 47.1696 41.3774 47.1472 42.6377C47.1322 43.4851 46.6908 43.9944 45.9665 44H45.9533V43.9997Z" fill="#0677EC"/>
<path fill-rule="evenodd" clip-rule="evenodd" d="M46.4183 22.9441C46.0681 22.9248 45.7534 22.7714 45.5547 22.5234C45.334 22.248 45.2569 21.8703 45.3257 21.401L45.3284 21.3838V21.3659C45.3379 19.9655 44.6654 18.8981 43.4814 18.4373C43.1403 18.3045 42.7958 18.2372 42.457 18.2372C41.6343 18.2372 40.8507 18.6349 40.1915 19.3875C39.8473 19.7806 39.4548 19.9968 39.0857 19.9968C38.8529 19.9968 38.6335 19.913 38.4333 19.7474C37.7052 19.1447 38.0292 18.3945 38.4289 17.8715C39.372 16.6377 40.89 15.9011 42.4893 15.9011C43.1163 15.9011 43.7226 16.0148 44.2905 16.2393C46.3796 17.0639 47.8202 19.2909 47.6418 21.4196C47.6029 21.8785 47.4138 22.946 46.4888 22.946C46.4885 22.946 46.4418 22.9453 46.4183 22.9441Z" fill="#0677EC"/>
</svg>
