<svg width="80" height="64" viewBox="0 0 80 64" fill="none" xmlns="http://www.w3.org/2000/svg">
<g clip-path="url(#clip0)">
<path d="M59.7278 57.4897C57.8374 57.4897 56.392 56.8859 55.4324 55.6952L54.7577 54.8951C54.3044 54.3572 53.6347 54.0486 52.9216 54.0486C52.4742 54.0486 52.0384 54.1722 51.6615 54.4062C50.0695 55.3933 48.5776 56.0189 46.9659 56.3758C46.5156 56.4752 46.0612 56.5238 45.5764 56.5238C44.6309 56.5238 43.7576 56.3385 42.9124 56.1591C42.1427 55.9957 41.4237 55.8428 40.7223 55.8428C39.7937 55.8428 38.4409 56.1116 37.0085 56.3955C35.1516 56.7637 33.0555 57.1787 31.1225 57.1787C27.0359 57.1787 25.6609 54.6253 25.6609 53.4603C25.6609 52.7849 25.6609 50.9904 35.6789 46.944C47.9128 42.0028 52.0871 37.9209 51.1398 24.8422C51.1116 24.4575 51.281 24.0922 51.5932 23.865C51.7841 23.7262 52.0099 23.6526 52.2463 23.6526C52.3897 23.6526 52.5302 23.68 52.6634 23.7336L56.485 25.2826L59.8775 23.2266C60.0512 23.1217 60.2506 23.066 60.4535 23.066C60.6462 23.066 60.8365 23.1167 61.0034 23.2122C61.3536 23.4123 61.5678 23.7871 61.5625 24.1898L61.3811 38.3225C61.3494 40.8185 62.0589 43.2387 63.4325 45.321L64.4862 46.9183L64.4999 46.9342C65.5166 48.0879 66.0764 49.5897 66.0764 51.1623C66.0764 53.5917 64.7898 55.816 62.7187 56.9666C62.6958 56.9796 62.6754 56.9898 62.6546 56.9997L62.2886 57.173C62.1991 57.2153 62.104 57.2456 62.0061 57.2632C61.1271 57.4179 60.4032 57.4897 59.7278 57.4897ZM52.9139 51.8338C54.2896 51.8338 55.58 52.4284 56.454 53.4649L57.135 54.2723C57.4887 54.7137 58.1207 55.271 59.7278 55.271C60.2274 55.271 60.7692 55.2196 61.4332 55.1097L61.4745 55.1026L61.6591 55.0153C63.0221 54.2395 63.8563 52.767 63.8563 51.1623C63.8563 50.103 63.4758 49.1032 62.7853 48.3472C62.7459 48.3042 62.7103 48.2584 62.6786 48.2101L61.5791 46.5431C59.9596 44.0877 59.1233 41.2352 59.161 38.294L59.3167 26.1608L57.1582 27.4689C56.9849 27.5739 56.7859 27.6295 56.5829 27.6295C56.4396 27.6295 56.299 27.602 56.1658 27.5485L53.4525 26.4487L53.4656 26.9066C53.8228 39.7267 48.2824 44.2458 36.5093 49.0017C32.6144 50.5747 29.0711 52.4087 28.0833 53.363L27.9075 53.5328L28.0389 53.7393C28.3285 54.1948 29.1151 54.9593 31.1218 54.9593C32.8413 54.9593 34.8253 54.5658 36.5762 54.218C38.1189 53.9123 39.5763 53.6234 40.7216 53.6234C41.6555 53.6234 42.5242 53.8076 43.3644 53.9859C44.1338 54.1497 44.8599 54.3044 45.5754 54.3044C45.8981 54.3044 46.1954 54.273 46.485 54.2089C47.8452 53.908 49.1183 53.3711 50.4912 52.52C51.2159 52.0712 52.0536 51.8338 52.9139 51.8338ZM76.9027 31.6519C76.741 31.6519 76.5839 31.6171 76.4356 31.5484L70.8008 28.9274C70.2463 28.6691 70.005 28.0079 70.2632 27.4534C70.4446 27.0634 70.8399 26.8112 71.2697 26.8112C71.4317 26.8112 71.5888 26.8464 71.7368 26.9151L77.372 29.5361C77.9265 29.7943 78.1678 30.4556 77.9096 31.0101C77.7285 31.4001 77.3332 31.6519 76.9027 31.6519ZM33.6811 31.6519C33.2506 31.6519 32.855 31.4001 32.6743 31.0101C32.4164 30.4552 32.6574 29.794 33.2122 29.5358L38.8467 26.9147C38.995 26.8457 39.1521 26.8108 39.3138 26.8108C39.7443 26.8108 40.1396 27.0627 40.321 27.453C40.5789 28.0075 40.3376 28.6688 39.7831 28.927L34.1479 31.548C34.0003 31.6171 33.8432 31.6519 33.6811 31.6519ZM72.7419 22.3544C72.1303 22.3544 71.6325 21.8566 71.6325 21.245C71.6325 20.6335 72.1303 20.1357 72.7419 20.1357H78.9552C79.5667 20.1357 80.0645 20.6335 80.0645 21.245C80.0645 21.8566 79.5667 22.3544 78.9552 22.3544H72.7419ZM31.629 22.3544C31.0175 22.3544 30.5197 21.8566 30.5197 21.245C30.5197 20.6335 31.0175 20.1357 31.629 20.1357H37.8423C38.4539 20.1357 38.9517 20.6335 38.9517 21.245C38.9517 21.8566 38.4539 22.3544 37.8423 22.3544H31.629ZM56.9352 21.4162C56.7957 21.4162 56.6583 21.3902 56.5276 21.3387L52.073 19.5805C51.6576 19.4167 51.3825 19.0224 51.3712 18.5761L50.9449 1.65293C50.9294 1.04136 51.4145 0.531248 52.0261 0.515747C52.6518 0.515747 53.1485 1.00085 53.1633 1.59692L53.5709 17.7856L56.8609 19.0841L59.911 17.4283L59.5027 2.00592C59.4865 1.39435 59.9712 0.883535 60.5825 0.86733C61.218 0.86733 61.7052 1.34151 61.7207 1.94709L62.1473 18.0498C62.1579 18.469 61.9356 18.8541 61.5671 19.0545L57.4644 21.2817C57.3027 21.3701 57.1198 21.4162 56.9352 21.4162ZM71.27 15.6785C70.8395 15.6785 70.4443 15.4267 70.2632 15.0367C70.0053 14.4818 70.2463 13.8206 70.8008 13.5623L76.4356 10.9413C76.5839 10.8723 76.741 10.8374 76.9031 10.8374C77.3332 10.8374 77.7285 11.0893 77.9096 11.4796C78.1674 12.0341 77.9265 12.6954 77.372 12.9536L71.7372 15.5746C71.5888 15.6437 71.4317 15.6785 71.27 15.6785ZM39.3142 15.6785C39.1525 15.6785 38.9954 15.6437 38.8471 15.575L33.2126 12.9539C32.6577 12.6957 32.4164 12.0345 32.6746 11.48C32.8557 11.09 33.2513 10.8378 33.6811 10.8378C33.8428 10.8378 34.0003 10.873 34.1482 10.9417L39.7834 13.5627C40.3379 13.8209 40.5796 14.4822 40.3214 15.0367C40.1396 15.4267 39.7443 15.6785 39.3142 15.6785Z" fill="#343D42"/>
<path d="M6.10831 64C4.32926 64 2.90249 63.6167 1.86747 62.8607C1.01564 62.2375 0 61.0411 0 58.8777C0 57.8008 0.413937 56.8302 1.19742 56.0718C2.87537 54.4446 5.85219 54.1028 8.05399 54.1028C8.29848 54.1028 8.53697 54.1071 8.76843 54.1141C8.88997 54.1183 9.0115 54.1201 9.13269 54.1201C11.4 54.1201 13.5884 53.4451 15.4626 52.1684C16.7763 51.2726 17.9057 50.692 19.2134 50.0198C20.4559 49.3815 21.8594 48.6611 23.7618 47.4876C28.8093 44.2758 32.9001 41.8052 37.7014 39.4082C43.0977 36.7143 46.2511 31.09 45.735 25.08L43.7026 1.41796C43.6773 1.12274 43.7685 0.835273 43.9594 0.6084C44.1504 0.381527 44.4181 0.242726 44.7137 0.217361C44.7447 0.214895 44.776 0.213486 44.8067 0.213486C45.3788 0.213486 45.8653 0.659129 45.9139 1.22807L47.9463 24.8901C48.5409 31.8129 44.9089 38.2911 38.6927 41.3941C33.9763 43.7484 29.9342 46.1905 24.9402 49.3681C22.9554 50.5927 21.5089 51.3356 20.2322 51.9912C18.9375 52.6567 17.9152 53.182 16.7129 54.001C14.4691 55.5307 11.8492 56.3388 9.13621 56.3392C8.99072 56.3392 8.84558 56.3367 8.69973 56.3321C8.48942 56.3254 8.28262 56.3223 8.07971 56.3223C5.5679 56.3223 3.62257 56.8116 2.74256 57.6648C2.38569 58.0101 2.21976 58.3955 2.21976 58.8774C2.21976 59.8807 2.5333 60.5973 3.17763 61.0686C3.83288 61.5474 4.80837 61.7905 6.0773 61.7905C7.51534 61.7905 9.28312 61.4692 11.19 60.8611C12.3079 60.5046 13.4655 60.3239 14.6315 60.3239C15.0663 60.3239 15.508 60.3493 15.9449 60.3993C19.6354 60.8203 22.0609 60.9922 24.3177 60.9922C28.6152 60.9922 32.2466 60.35 39.4037 59.0141C40.246 58.857 41.1084 58.777 41.9669 58.777C42.5824 58.777 43.2066 58.8179 43.8213 58.8992L44.7049 59.0158C49.7803 59.6873 55.5331 60.4479 60.2355 60.4479C65.7533 60.4479 68.8785 59.3773 69.7902 57.1744C72.3538 50.9791 70.4077 46.3483 68.3472 41.4455C66.9074 38.0195 65.4187 34.4776 65.4426 30.3073C65.443 30.2805 65.444 30.2523 65.4461 30.2245L67.791 1.02128C67.8361 0.448461 68.3208 0 68.8936 0C68.9236 0 68.9539 0.00105686 68.9842 0.00387516C69.2804 0.0274784 69.5489 0.16487 69.7409 0.390686C69.9329 0.616502 70.0259 0.903616 70.0019 1.19883L67.661 30.3488C67.6518 34.0658 68.9827 37.2329 70.3919 40.5856C72.538 45.6927 74.7567 50.9728 71.8391 58.0227C70.5265 61.1951 66.8074 62.6726 60.1344 62.6726C55.4303 62.6729 49.8307 61.9321 44.4157 61.2162L43.53 61.0993C43.0114 61.0309 42.4858 60.9964 41.9673 60.9964C41.244 60.9964 40.5179 61.0633 39.8088 61.1954C32.7218 62.5183 28.8143 63.2084 24.3233 63.2084C21.988 63.2084 19.4064 63.0277 15.6919 62.6042C15.3396 62.5641 14.9828 62.5436 14.6322 62.5436C13.6927 62.5436 12.7609 62.6884 11.8626 62.9748C9.73017 63.6551 7.7947 63.9996 6.11007 63.9996H6.10831V64Z" fill="#0677EC"/>
</g>
<defs>
<clipPath id="clip0">
<rect width="80" height="64" fill="white"/>
</clipPath>
</defs>
</svg>
