<svg width="24" height="24" viewBox="0 0 24 24" fill="none" xmlns="http://www.w3.org/2000/svg">
<path d="M23.9279 7.05254C23.8694 5.77519 23.6666 4.90287 23.3699 4.13968C23.0687 3.33895 22.5963 2.61367 21.9858 2.01418C21.3865 1.4037 20.6611 0.931098 19.8604 0.629705C19.097 0.333254 18.2249 0.130555 16.9475 0.0725103C15.6678 0.0139161 15.2589 0 12 0C8.74109 0 8.33221 0.0139161 7.05249 0.0721441C5.77515 0.130555 4.90302 0.333438 4.13965 0.630071C3.33893 0.931282 2.61365 1.4037 2.01416 2.01418C1.40369 2.61348 0.931091 3.33877 0.6297 4.1395C0.333252 4.90287 0.130554 5.77519 0.0725098 7.05236C0.013916 8.33228 0 8.74097 0 11.9999C0 15.259 0.013916 15.6679 0.0725098 16.9476C0.130737 18.2248 0.333618 19.0971 0.630249 19.8605C0.931458 20.661 1.40387 21.3865 2.01434 21.9858C2.61365 22.5963 3.33911 23.0687 4.13983 23.3699C4.90302 23.6667 5.77533 23.8694 7.05267 23.9279C8.33258 23.9863 8.74127 24 12.0002 24C15.2591 24 15.668 23.9863 16.9477 23.9279C18.225 23.8694 19.0972 23.6667 19.8605 23.3699C21.4724 22.7466 22.7466 21.4724 23.3699 19.8605C23.6667 19.0971 23.8694 18.2248 23.9279 16.9476C23.9861 15.6677 24 15.259 24 12.0001C24 8.74097 23.9861 8.33228 23.9279 7.05254ZM21.7678 16.8493C21.7145 18.0194 21.5189 18.6547 21.3547 19.0775C20.9509 20.1242 20.1238 20.9513 19.0772 21.355C18.6544 21.5193 18.019 21.7148 16.849 21.7681C15.5839 21.826 15.2043 21.8381 12 21.8381C8.79547 21.8381 8.41608 21.826 7.15082 21.7681C5.98096 21.7148 5.34558 21.5193 4.92261 21.355C4.40149 21.1626 3.92999 20.8559 3.54291 20.4572C3.14429 20.0702 2.83759 19.5988 2.64514 19.0775C2.4809 18.6547 2.28534 18.0194 2.23206 16.8493C2.17438 15.584 2.16211 15.2045 2.16211 12.0003C2.16211 8.7959 2.17438 8.41651 2.23206 7.15106C2.28552 5.981 2.4809 5.34562 2.64514 4.92283C2.83759 4.40152 3.14447 3.93002 3.54291 3.54293C3.92999 3.14431 4.40149 2.83761 4.92279 2.64534C5.34558 2.48091 5.98096 2.28554 7.151 2.23207C8.41626 2.17439 8.79584 2.16213 12 2.16213H11.9998C15.204 2.16213 15.5836 2.17439 16.849 2.23226C18.019 2.28554 18.6542 2.4811 19.0772 2.64534C19.5983 2.83779 20.0698 3.14449 20.4569 3.54293C20.8555 3.93002 21.1622 4.40152 21.3545 4.92283C21.5189 5.34562 21.7145 5.981 21.7678 7.15106C21.8254 8.41632 21.8377 8.7959 21.8377 12.0001C21.8377 15.2045 21.8256 15.5839 21.7678 16.8493Z" fill="#0677EC"/>
<path d="M11.9999 6C8.68626 6 6 8.68644 6 12.0001C6 15.3137 8.68626 18 11.9999 18C15.3137 18 18 15.3137 18 12.0001C18 8.68644 15.3137 6 11.9999 6ZM11.9999 15.8948C9.84905 15.8946 8.10522 14.151 8.1054 11.9999C8.1054 9.84905 9.84905 8.10522 12.0001 8.10522C14.1511 8.1054 15.8948 9.84905 15.8948 11.9999C15.8948 14.151 14.151 15.8948 11.9999 15.8948Z" fill="#0677EC"/>
<path d="M20 5.5001C20 6.32844 19.3284 7 18.5001 7C17.6716 7 17 6.32844 17 5.5001C17 4.67156 17.6716 4 18.5001 4C19.3284 4 20 4.67156 20 5.5001Z" fill="#0677EC"/>
</svg>
