<svg viewBox="0 0 144 135" fill="none" xmlns="http://www.w3.org/2000/svg" id="kid-big">
<path d="M8.72829 52.9233C11.0687 59.0835 14.8674 64.402 19.6436 68.5393C9.50964 70.4198 1.80725 79.3495 1.80725 90.0567V120.721C1.80725 122.06 2.8887 123.146 4.22255 123.146C5.5564 123.146 6.63785 122.06 6.63785 120.721V90.0567C6.63785 80.661 14.2539 73.0172 23.6156 73.0172H26.0037C31.6942 76.2315 38.2179 78.0339 45.0502 78.0339C51.8825 78.0339 58.4062 76.2309 64.0966 73.0172H66.4848C75.8459 73.0172 83.4625 80.661 83.4625 90.0567V101.086C83.4625 102.425 84.544 103.51 85.8778 103.51C87.2117 103.51 88.2931 102.425 88.2931 101.086V90.0567C88.2931 79.3495 80.5907 70.4198 70.4567 68.5393C75.2324 64.402 79.0316 59.0835 81.3721 52.9233C86.5692 50.9235 90.0997 45.8619 90.0997 40.1969C90.0997 34.9099 87.0178 30.1096 82.3122 27.8752C77.4345 11.4023 62.2827 0 45.0496 0C27.8164 0 12.6652 11.4023 7.78814 27.8758C3.08192 30.1102 0 34.9105 0 40.1975C0 45.8619 3.53057 50.9235 8.72829 52.9233ZM10.6183 31.9392L11.8102 31.5071L12.1333 30.2775C16.069 15.3051 29.6043 4.84818 45.0496 4.84818C60.4954 4.84818 74.0308 15.3051 77.9665 30.2775L78.2895 31.5071L79.4815 31.9392C82.9432 33.1943 85.2691 36.5128 85.2691 40.1969C85.2691 44.1257 82.6322 47.6049 78.8559 48.6563L77.6344 48.9969L77.2196 50.1992C72.4753 63.9481 59.5474 73.1857 45.0502 73.1857C30.5529 73.1857 17.625 63.9481 12.8808 50.1992L12.466 48.9969L11.2444 48.6563C7.46811 47.6049 4.8306 44.1263 4.8306 40.1975C4.8306 36.5128 7.15653 33.1943 10.6183 31.9392ZM21.1707 39.0169C21.1707 35.2396 24.2327 32.1665 27.9963 32.1665C31.76 32.1665 34.822 35.2396 34.822 39.0169C34.822 40.3556 33.7405 41.441 32.4067 41.441C31.0728 41.441 29.9914 40.3556 29.9914 39.0169C29.9914 37.9128 29.0965 37.0146 27.9963 37.0146C26.8962 37.0146 26.0013 37.9128 26.0013 39.0169C26.0013 40.3556 24.9199 41.441 23.586 41.441C22.2522 41.441 21.1707 40.3556 21.1707 39.0169ZM56.16 39.0169C56.16 35.2396 59.222 32.1665 62.9856 32.1665C66.7492 32.1665 69.8112 35.2396 69.8112 39.0169C69.8112 40.3556 68.7298 41.441 67.3959 41.441C66.0621 41.441 64.9806 40.3556 64.9806 39.0169C64.9806 37.9128 64.0858 37.0146 62.9856 37.0146C61.8854 37.0146 60.9906 37.9128 60.9906 39.0169C60.9906 40.3556 59.9091 41.441 58.5753 41.441C57.2414 41.441 56.16 40.3556 56.16 39.0169ZM45.0496 58.0654C50.8469 58.0654 56.1871 55.4056 59.702 50.7677C60.5087 49.7017 62.0249 49.4944 63.0864 50.3059C64.148 51.1162 64.3545 52.6373 63.5465 53.7027C59.1108 59.5562 52.3691 62.9136 45.0496 62.9136C37.7306 62.9136 30.9883 59.5562 26.5532 53.7027C25.7459 52.6373 25.9518 51.1162 27.0133 50.3059C28.0754 49.4951 29.591 49.7023 30.3978 50.7677C33.9126 55.4056 39.2529 58.0654 45.0496 58.0654Z" fill="white"/>
<path opacity="0.5" d="M44.9996 103.809C40.037 103.809 35.9999 107.828 35.9999 112.769C35.9999 117.71 40.037 121.728 44.9996 121.728C49.9622 121.728 53.9998 117.71 53.9998 112.769C53.9998 107.828 49.9627 103.809 44.9996 103.809ZM44.9996 117.523C42.3657 117.523 40.2234 115.39 40.2234 112.768C40.2234 110.147 42.3662 108.013 44.9996 108.013C47.6329 108.013 49.7763 110.147 49.7763 112.768C49.7763 115.39 47.6335 117.523 44.9996 117.523Z" fill="white"/>
<path opacity="0.5" d="M143.127 27.2867L138.222 23.1997C137.196 22.3446 135.674 22.4864 134.821 23.516C133.969 24.5463 134.11 26.0747 135.136 26.9298L138.183 29.4684L122.454 48.4836C119.201 52.416 113.368 52.9596 109.449 49.695C107.55 48.1133 106.38 45.8843 106.151 43.4196C105.924 40.9543 106.666 38.5472 108.242 36.6425L123.97 17.6273L127.018 20.166C128.044 21.0211 129.567 20.8792 130.419 19.8496C131.271 18.8194 131.13 17.291 130.103 16.4359L125.198 12.3489C124.706 11.938 124.072 11.741 123.432 11.8004C122.795 11.8598 122.206 12.1713 121.797 12.6658L104.525 33.5463C102.125 36.448 100.994 40.1132 101.343 43.8681C101.61 46.7691 102.743 49.4489 104.575 51.6318C97.8554 60.904 101.254 70.7021 104.552 80.1906C107.33 88.1828 110.202 96.4472 108.236 105.576C106.718 112.618 101.416 116.632 97.2341 118.76C88.2564 123.327 76.0881 123.621 65.6281 119.649C66.3907 117.424 66.811 115.041 66.811 112.561C66.811 100.518 57.0489 90.7209 45.0503 90.7209C33.0517 90.7209 23.2897 100.518 23.2897 112.561C23.2897 124.603 33.0517 134.4 45.0503 134.4C52.8566 134.4 59.713 130.251 63.5539 124.037C69.0542 126.176 75.0049 127.252 80.8318 127.252C87.4775 127.252 93.9583 125.862 99.4175 123.084C106.651 119.405 111.46 113.55 112.957 106.601C115.211 96.1387 111.971 86.8175 109.113 78.5944C105.892 69.3259 103.314 61.8978 108.28 54.7638C110.469 56.0425 112.906 56.6758 115.337 56.6758C119.379 56.6758 123.395 54.9401 126.172 51.5821L143.444 30.7016C144.295 29.6702 144.154 28.1424 143.127 27.2867ZM45.0497 129.55C35.7146 129.55 28.1197 121.928 28.1197 112.559C28.1197 103.189 35.7146 95.5672 45.0497 95.5672C54.3849 95.5672 61.9798 103.189 61.9798 112.559C61.9804 121.928 54.3855 129.55 45.0497 129.55Z" fill="white"/>
</svg>
