<svg width="58" height="22" viewBox="0 0 58 22" fill="none" xmlns="http://www.w3.org/2000/svg">
<g clip-path="url(#clip0)">
<path d="M5.69998 11.9893L2.44 19.3108H0.0617676L3.64241 11.4814C1.95898 10.6264 0.836706 9.07654 0.836706 6.21737C0.836706 2.20918 3.37521 0.205078 6.39472 0.205078H9.46761V19.3108H7.41013V11.9893H5.69998ZM7.41013 1.94197H6.31451C4.65783 1.94197 3.05453 3.03752 3.05453 6.21737C3.05453 9.29026 4.52423 10.2789 6.31451 10.2789H7.41013V1.94197Z" fill="#FF0000"/>
<path d="M19.3813 5.84325V19.3109H17.3237V13.2718H14.224V19.3109H12.1398V5.84325H14.224V11.5616H17.3237V5.84325H19.3813ZM30.0965 21.9563H28.226V19.3109H22.4542V21.9563H20.5837V17.6007H21.4121C22.6412 14.7415 22.7748 10.5729 22.7748 6.99227V5.84325H29.0277V17.6007H30.0965V21.9563ZM26.9701 7.52676H24.6453V7.76721C24.6453 10.5997 24.5117 14.7415 23.3894 17.6007H26.9701V7.52676ZM35.8416 19.4978C33.0626 19.4978 31.3524 17.28 31.3524 13.1383C31.3524 8.80937 32.5549 5.65625 35.4141 5.65625C37.6587 5.65625 39.1283 7.33967 39.1283 11.9091V13.0581H33.5168C33.5168 16.1043 34.3719 17.7076 36.0285 17.7076C37.2043 17.7076 38.1396 17.1732 38.674 16.7991L39.1551 18.4023C38.2058 19.1308 37.038 19.5169 35.8416 19.4978ZM33.5435 11.3479H36.9906C36.9906 9.04982 36.6164 7.36642 35.4141 7.36642C34.1314 7.36642 33.6772 8.94297 33.5435 11.3479ZM43.3502 12.6039V19.3109H41.266V5.84325H43.3502V12.0693L46.5834 5.84325H48.6945L45.3543 12.1763L49.1754 19.3109H46.9041L43.3502 12.6039ZM49.4426 12.5772C49.4426 8.3551 51.0727 5.65625 54.2258 5.65625C55.4281 5.65625 56.123 5.97693 56.7108 6.35099L56.4169 8.32835C55.8557 7.84734 55.0541 7.39314 54.1991 7.39314C52.7026 7.39314 51.6338 9.07657 51.6338 12.4702C51.6338 15.8371 52.4354 17.7609 54.1189 17.7609C54.9518 17.7721 55.76 17.4774 56.3902 16.9326L56.8711 18.4825C56.0978 19.1633 55.0953 19.5261 54.0654 19.4978C51.1795 19.4978 49.4426 17.1732 49.4426 12.5772Z" fill="black"/>
</g>
<defs>
<clipPath id="clip0">
<rect width="57.037" height="22" fill="white"/>
</clipPath>
</defs>
</svg>
