<svg width="65" height="22" viewBox="0 0 65 22" fill="none" xmlns="http://www.w3.org/2000/svg">
<g clip-path="url(#clip0)">
<path d="M27.4881 11.1272C27.4881 14.1693 25.1083 16.4109 22.1877 16.4109C19.2671 16.4109 16.8873 14.1693 16.8873 11.1272C16.8873 8.0637 19.2671 5.84351 22.1877 5.84351C25.1083 5.84351 27.4881 8.0637 27.4881 11.1272ZM25.1678 11.1272C25.1678 9.22621 23.7885 7.92554 22.1877 7.92554C20.5869 7.92554 19.2076 9.22621 19.2076 11.1272C19.2076 13.0091 20.5869 14.3289 22.1877 14.3289C23.7885 14.3289 25.1678 13.0067 25.1678 11.1272Z" fill="#EA4335"/>
<path d="M38.9226 11.1272C38.9226 14.1693 36.5428 16.4109 33.6222 16.4109C30.7016 16.4109 28.3218 14.1693 28.3218 11.1272C28.3218 8.06609 30.7016 5.84351 33.6222 5.84351C36.5428 5.84351 38.9226 8.0637 38.9226 11.1272ZM36.6023 11.1272C36.6023 9.22621 35.223 7.92554 33.6222 7.92554C32.0214 7.92554 30.6421 9.22621 30.6421 11.1272C30.6421 13.0091 32.0214 14.3289 33.6222 14.3289C35.223 14.3289 36.6023 13.0067 36.6023 11.1272Z" fill="#FBBC05"/>
<path d="M49.8806 6.16272V15.6486C49.8806 19.5506 47.5794 21.1443 44.8589 21.1443C42.2981 21.1443 40.7568 19.4315 40.1756 18.0308L42.1957 17.1899C42.5554 18.0498 43.4368 19.0646 44.8566 19.0646C46.5979 19.0646 47.6771 17.9903 47.6771 15.9678V15.2079H47.5961C47.0768 15.8487 46.0762 16.4085 44.8137 16.4085C42.1718 16.4085 39.7515 14.1073 39.7515 11.1463C39.7515 8.16376 42.1718 5.84351 44.8137 5.84351C46.0739 5.84351 47.0744 6.40332 47.5961 7.02507H47.6771V6.1651H49.8806V6.16272ZM47.8415 11.1463C47.8415 9.28577 46.6003 7.92554 45.0209 7.92554C43.4201 7.92554 42.0789 9.28577 42.0789 11.1463C42.0789 12.9877 43.4201 14.3289 45.0209 14.3289C46.6003 14.3289 47.8415 12.9877 47.8415 11.1463Z" fill="#4285F4"/>
<path d="M53.5135 0.602539V16.0868H51.2504V0.602539H53.5135Z" fill="#34A853"/>
<path d="M62.3324 12.8661L64.1333 14.0668C63.552 14.9267 62.1513 16.4085 59.731 16.4085C56.7294 16.4085 54.4878 14.0882 54.4878 11.1248C54.4878 7.98265 56.7485 5.84106 59.4713 5.84106C62.2132 5.84106 63.5544 8.02315 63.9927 9.20233L64.2333 9.80264L57.1701 12.728C57.7109 13.788 58.5518 14.3288 59.731 14.3288C60.9126 14.3288 61.732 13.7475 62.3324 12.8661ZM56.789 10.9652L61.5105 9.00461C61.2508 8.34474 60.4695 7.88498 59.55 7.88498C58.3708 7.88498 56.7294 8.926 56.789 10.9652Z" fill="#EA4335"/>
<path d="M8.32098 9.75268V7.51104H15.8749C15.9487 7.90172 15.9869 8.36386 15.9869 8.86412C15.9869 10.5459 15.5271 12.6256 14.0454 14.1073C12.6042 15.6081 10.7627 16.4085 8.32336 16.4085C3.80197 16.4085 0 12.7256 0 8.20426C0 3.68286 3.80197 0 8.32336 0C10.8247 0 12.6065 0.981462 13.9453 2.2607L12.3636 3.84247C11.4035 2.942 10.1029 2.24164 8.32098 2.24164C5.01927 2.24164 2.43698 4.90254 2.43698 8.20426C2.43698 11.506 5.01927 14.1669 8.32098 14.1669C10.4626 14.1669 11.6822 13.3069 12.4636 12.5255C13.0973 11.8919 13.5142 10.9867 13.6785 9.7503L8.32098 9.75268Z" fill="#4285F4"/>
</g>
<defs>
<clipPath id="clip0">
<rect width="64.2333" height="22" fill="white"/>
</clipPath>
</defs>
</svg>
