<svg width="170" height="20" viewBox="0 0 170 20" fill="none" xmlns="http://www.w3.org/2000/svg">
<g clip-path="url(#clip0)">
<path fill-rule="evenodd" clip-rule="evenodd" d="M111.557 9.71528C111.557 5.93825 109.073 3.68258 105.349 3.66577C101.576 3.66577 99.1406 6.15352 99.1406 9.68171C99.1406 13.4755 101.624 15.7319 105.349 15.7319C109.122 15.7319 111.557 13.2412 111.557 9.71528ZM109.373 9.69849C109.373 12.1549 107.832 13.8099 105.365 13.8099V13.8076C102.716 13.7908 101.325 11.9863 101.325 9.69849C101.325 7.2588 102.85 5.60392 105.333 5.58711C107.982 5.60392 109.373 7.40843 109.373 9.69849Z" fill="#FF0D65"/>
<path fill-rule="evenodd" clip-rule="evenodd" d="M136.67 9.71528C136.67 5.93825 134.187 3.68258 130.462 3.66577C126.688 3.66577 124.255 6.15352 124.253 9.68171C124.253 13.4755 126.737 15.7319 130.462 15.7319C134.236 15.7319 136.67 13.2412 136.67 9.71528ZM134.486 9.69849C134.486 12.1549 132.945 13.8099 130.478 13.8099L130.479 13.8076C127.83 13.7908 126.439 11.9863 126.439 9.69849C126.439 7.2588 127.963 5.60392 130.447 5.58711C133.095 5.60392 134.486 7.40843 134.486 9.69849Z" fill="#FF0D65"/>
<path fill-rule="evenodd" clip-rule="evenodd" d="M138.839 15.5459V3.84766H143.871C146.455 3.84766 147.779 4.81633 147.779 6.75526C147.779 8.09186 147.249 8.9781 146.057 9.44604C147.481 9.69641 148.127 10.6155 148.127 12.136C148.127 14.5597 146.405 15.5459 143.59 15.5459H138.839ZM143.574 8.7941C144.882 8.7941 145.709 8.20944 145.709 7.20635C145.709 6.27053 145.096 5.76899 143.624 5.76899H140.909V8.7941H143.574ZM143.725 13.6238C145.313 13.6238 146.042 13.1055 146.042 11.9857C146.042 10.8659 145.215 10.4315 143.758 10.4315H140.911V13.6238H143.725Z" fill="#FF0D65"/>
<path fill-rule="evenodd" clip-rule="evenodd" d="M154.119 7.49035H152.546V3.84766H150.478V15.5459H154.139C157.516 15.5459 159.337 14.175 159.337 11.4513C159.337 8.81095 157.794 7.49035 154.119 7.49035ZM152.546 13.6238V9.41241H154.301C156.321 9.41241 157.198 9.96362 157.198 11.401C157.198 12.9887 156.205 13.6238 154.268 13.6238H152.546Z" fill="#FF0D65"/>
<path d="M163.572 10.4819H168.903L168.905 8.5598H163.575V5.76899H169.518V3.84766H161.502V15.5459H169.697V13.6238H163.572V10.4819Z" fill="#FF0D65"/>
<path fill-rule="evenodd" clip-rule="evenodd" d="M115.792 11.9025V15.5459H113.722V3.84766H117.579C121.237 3.84766 122.796 5.16748 122.796 7.80786C122.796 10.5323 120.976 11.9025 117.579 11.9025H115.792ZM115.792 5.76899V9.98035H117.728C119.649 9.98035 120.642 9.34526 120.642 7.75829C120.642 6.32089 119.782 5.76899 117.762 5.76899H115.792Z" fill="#FF0D65"/>
<path fill-rule="evenodd" clip-rule="evenodd" d="M87.4031 13.6238C88.0649 12.036 88.5449 9.82998 88.5952 6.27053L88.6279 3.84766H96.7728V13.6238H98.1134V17.7184H96.177V15.5459H88.0813V17.7184H86.1449V13.6238H87.4031ZM89.4231 13.6238H94.7031V5.76899H90.5158V6.32089C90.4491 9.37883 90.0825 11.7857 89.4231 13.6238Z" fill="#FF0D65"/>
<path d="M80.1849 3.68042C78.3473 3.68042 77.0067 4.23157 76.3443 4.71627L76.3425 7.6239C77.0219 6.58797 78.4292 5.56896 80.1831 5.60176C81.4085 5.63534 82.3685 6.06966 82.3685 7.1559C82.3685 8.02536 81.8552 8.74372 80.3655 8.74372H78.6261V10.4651H80.3813C82.1855 10.4651 82.9473 10.9498 82.9473 11.9856C82.9473 13.1726 81.8219 13.7741 80.4146 13.7909C78.2782 13.8077 76.7722 12.8719 76.0607 11.6849V14.2589C76.6764 14.9604 78.2782 15.7298 80.3813 15.7131C83.494 15.6963 85.0994 14.1421 85.0994 12.12C85.0994 10.5818 84.2407 9.64597 82.4528 9.37881C83.794 8.89409 84.5055 7.99178 84.5055 6.6216C84.5055 4.56591 82.7837 3.69723 80.1849 3.68042Z" fill="#FF0D65"/>
<path d="M31.4256 13.4533C32.178 13.4576 32.9193 13.271 33.5807 12.9109L34.134 12.6102L35.7493 13.8048C34.6835 14.9503 33.1126 15.5798 31.3132 15.5798C29.5929 15.5798 28.0206 14.9669 26.8959 13.8632C25.7712 12.7594 25.1515 11.2254 25.1515 9.55874C25.1515 7.89213 25.7803 6.3808 26.9027 5.31648C28.0251 4.25213 29.5967 3.66577 31.329 3.66577C32.9262 3.66577 34.3227 4.15289 35.3681 5.07482L35.4866 5.17558L33.6962 6.49977C33.0346 6.02494 32.2389 5.77515 31.4256 5.78691C29.1755 5.78691 27.542 7.39898 27.542 9.62013C27.542 11.8413 29.1755 13.4533 31.4256 13.4533Z" fill="#21A038"/>
<path fill-rule="evenodd" clip-rule="evenodd" d="M43.3988 8.34076H40.3614V5.74841H45.2096L47.8229 3.81592H37.8651V15.4254H43.0735C45.9969 15.4254 47.6734 14.0959 47.6734 11.7785C47.6764 9.56197 46.1569 8.34076 43.3988 8.34076ZM42.964 13.4921H40.3614V10.274H42.964C44.5492 10.274 45.2858 10.8126 45.2858 11.8831C45.2858 12.977 44.5016 13.4921 42.964 13.4921Z" fill="#21A038"/>
<path d="M58.7467 3.81592L56.1335 5.74841H52.4967V8.587H57.8281V10.5203H52.4967V13.4921H58.7467V15.4254H50.0005V3.81592H58.7467Z" fill="#21A038"/>
<path fill-rule="evenodd" clip-rule="evenodd" d="M61.0709 3.81592H65.8333C68.8715 3.81592 70.7576 5.40752 70.7576 7.97034C70.7576 10.5331 68.8697 12.1368 65.8315 12.1368H63.5673V15.4254H61.0709V3.81592ZM63.5673 10.2035H65.7794C67.3788 10.2035 68.2588 9.4127 68.2588 7.9764C68.2588 6.54009 67.3788 5.74841 65.7794 5.74841H63.5673V10.2035Z" fill="#21A038"/>
<path d="M17.2549 3.76855C17.7095 4.36035 18.0983 5.007 18.4092 5.69629L9.63288 12.2099L5.96594 9.89525V7.1107L9.63288 9.42531L17.2549 3.76855Z" fill="#21A038"/>
<path d="M2.22528 9.69896C2.22528 9.57405 2.22831 9.44993 2.23436 9.32654L0.0121024 9.2146C0.00453858 9.37527 0 9.53678 0 9.69896C0 12.377 1.07785 14.8021 2.82131 16.5576L4.39686 14.9711C3.05654 13.6199 2.22528 11.7554 2.22528 9.69896Z" fill="url(#paint0_linear)"/>
<path d="M9.63264 2.24001C9.7567 2.24001 9.87998 2.24458 10.0025 2.25067L10.1137 0.0121867C9.9541 0.00457017 9.79373 0 9.63264 0C6.97319 0 4.56488 1.08535 2.82141 2.84095L4.39696 4.42747C5.73879 3.0763 7.5904 2.24001 9.63264 2.24001Z" fill="url(#paint1_linear)"/>
<path d="M9.63234 17.1577C9.50828 17.1577 9.385 17.1546 9.26246 17.1485L9.15125 19.3863C9.31082 19.3939 9.47118 19.3985 9.63234 19.3985C12.2917 19.3985 14.7001 18.3131 16.4435 16.5575L14.868 14.9709C13.5262 16.3206 11.6745 17.1577 9.63234 17.1577Z" fill="url(#paint2_linear)"/>
<path d="M13.8085 3.54167L15.6821 2.15166C14.0286 0.805824 11.9244 0 9.63257 0V2.24078C11.1809 2.24001 12.6188 2.72138 13.8085 3.54167Z" fill="url(#paint3_linear)"/>
<path d="M19.2645 9.699C19.2645 9.10566 19.2116 8.5253 19.1102 7.96094L17.0369 9.49942C17.0385 9.56573 17.04 9.63197 17.04 9.69821C17.04 11.888 16.0975 13.8606 14.5999 15.2263L16.0952 16.8905C18.0414 15.1166 19.2645 12.5514 19.2645 9.699Z" fill="#21A038"/>
<path d="M9.63254 17.1575C7.45793 17.1575 5.49889 16.2085 4.14269 14.7004L2.48999 16.2062C4.25237 18.1667 6.79987 19.3983 9.63254 19.3983V17.1575Z" fill="url(#paint4_linear)"/>
<path d="M4.66538 4.1708L3.17001 2.50659C1.22307 4.28123 0 6.84649 0 9.69886H2.22528C2.22604 7.50837 3.16773 5.53643 4.66538 4.1708Z" fill="url(#paint5_linear)"/>
</g>
<defs>
<linearGradient id="paint0_linear" x1="3.27201" y1="16.2767" x2="0.810441" y2="9.2106" gradientUnits="userSpaceOnUse">
<stop offset="0.1444" stop-color="#F2E913"/>
<stop offset="0.3037" stop-color="#E7E518"/>
<stop offset="0.5823" stop-color="#CADB26"/>
<stop offset="0.891" stop-color="#A3CD39"/>
</linearGradient>
<linearGradient id="paint1_linear" x1="3.45739" y1="3.23706" x2="9.73028" y2="0.863121" gradientUnits="userSpaceOnUse">
<stop offset="0.0592" stop-color="#0FA8E0"/>
<stop offset="0.5385" stop-color="#0099F9"/>
<stop offset="0.9234" stop-color="#0291EB"/>
</linearGradient>
<linearGradient id="paint2_linear" x1="9.0044" y1="18.0461" x2="16.0903" y2="16.4557" gradientUnits="userSpaceOnUse">
<stop offset="0.1226" stop-color="#A3CD39"/>
<stop offset="0.2846" stop-color="#86C339"/>
<stop offset="0.8693" stop-color="#21A038"/>
</linearGradient>
<linearGradient id="paint3_linear" x1="9.16699" y1="0.750521" x2="15.2285" y2="2.60784" gradientUnits="userSpaceOnUse">
<stop offset="0.0566" stop-color="#0291EB"/>
<stop offset="0.79" stop-color="#0C8ACB"/>
</linearGradient>
<linearGradient id="paint4_linear" x1="3.04814" y1="15.9331" x2="9.64938" y2="18.3825" gradientUnits="userSpaceOnUse">
<stop offset="0.1324" stop-color="#F2E913"/>
<stop offset="0.2977" stop-color="#EBE716"/>
<stop offset="0.5306" stop-color="#D9E01F"/>
<stop offset="0.8023" stop-color="#BBD62D"/>
<stop offset="0.9829" stop-color="#A3CD39"/>
</linearGradient>
<linearGradient id="paint5_linear" x1="0.829345" y1="9.97025" x2="3.50679" y2="3.05339" gradientUnits="userSpaceOnUse">
<stop offset="0.0698" stop-color="#A3CD39"/>
<stop offset="0.2599" stop-color="#81C55F"/>
<stop offset="0.9216" stop-color="#0FA8E0"/>
</linearGradient>
<clipPath id="clip0">
<rect width="169.697" height="20" fill="white"/>
</clipPath>
</defs>
</svg>
