<svg width="132" height="40" viewBox="0 0 132 40" fill="none" xmlns="http://www.w3.org/2000/svg">
<path fill-rule="evenodd" clip-rule="evenodd" d="M132 12.9651C132 16.0153 131.065 18.6209 129.195 20.7887H129.202C128.014 22.1645 126.552 23.1998 124.802 23.8879C123.094 24.5617 121.147 24.8951 118.947 24.8951H113.569C112.866 24.8951 112.297 24.3323 112.297 23.6374V2.28594C112.297 1.59104 112.866 1.02825 113.569 1.02825H118.947C120.95 1.02825 122.757 1.32019 124.366 1.8967C126.004 2.48031 127.431 3.36273 128.633 4.53707C129.758 5.6418 130.601 6.89948 131.163 8.31674C131.719 9.72026 132 11.2699 132 12.9651ZM107.897 24.8948H96.3272C95.6242 24.8948 95.0549 24.332 95.0549 23.6371V2.28594C95.0549 1.59104 95.6242 1.02825 96.3272 1.02825H107.897C108.6 1.02825 109.169 1.59104 109.169 2.28594V3.99512C109.169 4.69002 108.6 5.2528 107.897 5.2528H99.7011V9.56756H107.553C108.256 9.56756 108.832 10.1303 108.832 10.825V12.5344C108.832 13.2362 108.256 13.799 107.553 13.799H99.7011V20.6705H107.897C108.6 20.6705 109.169 21.2333 109.169 21.9282V23.6374C109.169 24.3323 108.6 24.8948 107.897 24.8948ZM91.0834 24.8948H89.1435C88.4546 24.8948 87.8991 24.3597 87.8711 23.693L86.3739 12.2565L80.2867 25.0201C79.9916 25.6525 79.2323 25.9162 78.5994 25.6245C78.3182 25.4926 78.1077 25.2772 77.9879 25.0201L71.9149 12.2565L70.4035 23.7972C70.3261 24.4296 69.7781 24.8951 69.1453 24.8951H67.2054C66.5026 24.8951 65.9333 24.3323 65.9333 23.6374C65.9333 23.5472 65.9402 23.4567 65.9613 23.3734L68.8715 1.26455C68.9628 0.576509 69.6025 0.0973098 70.2983 0.180649C70.7623 0.243153 71.1278 0.541948 71.3034 0.930945L79.141 17.5022L87.0065 0.896138C87.3018 0.263988 88.0541 -6.70552e-07 88.6936 0.291686C89.1016 0.479443 89.3542 0.854469 89.4108 1.26455L92.3418 23.4778C92.4331 24.1658 91.9413 24.7909 91.245 24.8813C91.1962 24.8882 91.1396 24.8948 91.0834 24.8948ZM127.234 12.9651C127.234 11.7562 127.045 10.6863 126.665 9.75507C126.292 8.83785 125.737 8.03902 124.992 7.35099C124.233 6.65633 123.347 6.13522 122.335 5.78764C121.288 5.43345 120.086 5.2528 118.729 5.2528H116.951V20.6705H118.729C120.233 20.6705 121.534 20.4761 122.638 20.08C123.699 19.6979 124.585 19.1351 125.301 18.3846L125.308 18.3777C125.948 17.7108 126.426 16.9394 126.742 16.0641C127.073 15.1677 127.234 14.1323 127.234 12.9651Z" fill="#31A128"/>
<path fill-rule="evenodd" clip-rule="evenodd" d="M64.3517 3.24458L60.2465 9.88007C59.8952 10.4429 59.1641 10.6443 58.5737 10.3387L57.5474 9.88007C56.9148 9.58839 56.6408 8.85182 56.9148 8.21967L60.1622 1.12557C60.4506 0.493171 61.2027 0.215211 61.8422 0.50028C61.8705 0.507143 61.9055 0.527978 61.9337 0.541949L63.8315 1.46603C64.464 1.77169 64.7172 2.52909 64.408 3.14752C64.3939 3.18208 64.3728 3.21688 64.3517 3.24458Z" fill="#009EE0"/>
<path fill-rule="evenodd" clip-rule="evenodd" d="M55.5021 20.0452C55.5021 21.3794 55.0731 22.5398 54.2017 23.5263C54.1946 23.5403 54.1804 23.5472 54.1735 23.5614C53.5972 24.2002 52.8942 24.6799 52.0508 24.9995C51.2424 25.3049 50.3356 25.4578 49.3164 25.4578C48.7962 25.4578 48.2901 25.4022 47.7981 25.2983C47.292 25.1872 46.828 25.0203 46.3852 24.798H46.3782C45.7246 24.4573 45.1411 23.9989 44.6419 23.4084C44.1641 22.8523 43.7634 22.1856 43.4469 21.4073C43.201 20.782 43.4752 20.0734 44.0798 19.7955L45.5418 19.0312C46.1674 18.7044 46.9406 18.9407 47.264 19.5523C47.3061 19.6356 47.3411 19.7121 47.3622 19.7955C47.4537 20.0526 47.5591 20.2818 47.6855 20.4832C47.8122 20.6779 47.9528 20.8448 48.1215 20.9904C48.1495 21.0112 48.1706 21.0321 48.1916 21.0529C48.3533 21.185 48.5222 21.2892 48.7119 21.3588C48.9368 21.4421 49.2039 21.4769 49.5061 21.4769C50.0685 21.4769 50.4762 21.3448 50.7153 21.0735C50.7222 21.0598 50.7363 21.0526 50.7433 21.0389C50.9402 20.8166 51.0386 20.5036 51.0386 20.1077C51.0386 19.5729 50.6379 19.1559 49.8295 18.8572C49.1337 18.6417 48.7471 18.5307 48.6628 18.5027C48.4448 18.4334 48.1778 18.35 47.8755 18.2456C47.3272 18.0721 46.8491 17.8635 46.4345 17.6343C45.9634 17.3843 45.5768 17.0992 45.2676 16.7935C45.2465 16.7727 45.2254 16.7519 45.2043 16.731C44.8036 16.3212 44.4944 15.8555 44.2905 15.3344C44.0726 14.7995 43.9672 14.2159 43.9672 13.5835C43.9672 12.8541 44.1078 12.1731 44.389 11.5547C44.6702 10.9294 45.0848 10.3804 45.6403 9.92175C46.1674 9.47711 46.7718 9.14375 47.4395 8.92143C48.0863 8.70598 48.7893 8.6018 49.5342 8.6018C50.0123 8.6018 50.4832 8.65034 50.933 8.74765C51.3969 8.84496 51.8257 8.99766 52.2123 9.19915C52.2405 9.21312 52.2686 9.22709 52.2968 9.24082C52.8379 9.53275 53.316 9.90802 53.7447 10.3735C54.1735 10.839 54.539 11.388 54.8482 12.027C55.1435 12.6386 54.8976 13.3681 54.2999 13.6808L52.9153 14.4174C52.2896 14.7439 51.5236 14.5076 51.1931 13.8963C51.172 13.8615 51.1581 13.8267 51.144 13.7919L51.1368 13.799C51.0456 13.5767 50.9402 13.3889 50.8206 13.2499C50.7081 13.1041 50.5747 12.9859 50.4269 12.8818C50.2865 12.7776 50.1248 12.708 49.949 12.6526C49.7804 12.6038 49.5905 12.5761 49.3797 12.5761C49.0422 12.5761 48.7821 12.6594 48.6065 12.8332C48.5222 12.9094 48.4659 12.9859 48.4307 13.0764C48.3885 13.1666 48.3744 13.2847 48.3744 13.4306C48.3744 13.5904 48.3955 13.7156 48.4448 13.799C48.4939 13.8823 48.5713 13.9517 48.6839 14.0213C48.7399 14.0421 48.9088 14.1046 49.2039 14.2019C49.5905 14.3409 50.1176 14.5216 50.7924 14.737C51.4041 14.9314 51.9593 15.1537 52.4444 15.3969C52.9716 15.654 53.4072 15.932 53.7589 16.2308C53.7799 16.2447 53.7938 16.2585 53.808 16.2724C54.3632 16.7379 54.785 17.2938 55.0662 17.9191C55.3615 18.5652 55.5021 19.2741 55.5021 20.0452Z" fill="#FFCB00"/>
<path fill-rule="evenodd" clip-rule="evenodd" d="M40.1293 24.9019H38.4002C37.9504 24.9019 37.5496 24.6659 37.3175 24.3114C37.1769 24.3948 37.0363 24.4784 36.896 24.5617C36.3616 24.8534 35.8064 25.0688 35.2229 25.2216C34.6394 25.3745 34.0562 25.4512 33.4586 25.4512C32.369 25.4512 31.3498 25.2774 30.408 24.9367C29.466 24.5894 28.5944 24.0752 27.8212 23.3805C27.8143 23.3734 27.8001 23.3665 27.7932 23.3526C26.9357 22.5675 26.2818 21.6365 25.8531 20.5666C25.4243 19.5035 25.2135 18.3223 25.2135 17.023C25.2135 15.8418 25.4032 14.7439 25.7829 13.7433C26.1695 12.7288 26.7529 11.8118 27.5189 11.0128C28.2993 10.2068 29.1989 9.60212 30.2253 9.19229C31.2234 8.79618 32.3269 8.5947 33.5218 8.5947C34.5271 8.5947 35.455 8.76848 36.2984 9.12292L36.3053 9.12978V9.12292C36.5444 9.22709 36.7765 9.34524 37.0014 9.47025V1.25744C37.0014 0.562783 37.5777 0 38.2807 0H40.1293C40.8323 0 41.4016 0.562783 41.4016 1.25744V23.6445C41.4016 24.3391 40.8323 24.9019 40.1293 24.9019ZM37.1209 17.023C37.1209 16.3558 37.0294 15.7444 36.8466 15.2025C36.6708 14.6674 36.4038 14.188 36.0524 13.7642C35.7221 13.3612 35.3494 13.0624 34.9417 12.8678C34.5271 12.6734 34.0562 12.5761 33.5218 12.5761C32.8962 12.5761 32.3479 12.6871 31.8842 12.9166C31.4272 13.1389 31.0265 13.4722 30.6892 13.924C30.3728 14.3546 30.1338 14.8204 29.9793 15.3206C29.8176 15.8346 29.7403 16.4045 29.7403 17.023C29.7403 17.7036 29.8315 18.3221 30.0143 18.8711C30.1901 19.406 30.4571 19.8785 30.8016 20.2955C31.1249 20.6913 31.5046 20.9833 31.9333 21.1708C32.369 21.372 32.8823 21.4696 33.4586 21.4696C34.021 21.4696 34.513 21.3723 34.9417 21.1916C35.3566 21.011 35.736 20.7333 36.0665 20.358C36.4109 19.9687 36.6708 19.5172 36.8466 18.9893C37.0294 18.4262 37.1209 17.7733 37.1209 17.023Z" fill="#E30079"/>
<path fill-rule="evenodd" clip-rule="evenodd" d="M23.3297 5.91976C23.3297 6.28793 23.2593 6.6355 23.1187 6.96885C22.9783 7.30245 22.7673 7.60125 22.4933 7.85127C21.952 8.33757 21.3333 8.58097 20.6305 8.58097C20.293 8.58097 19.9627 8.52533 19.6394 8.40032C19.316 8.28218 19.0209 8.10153 18.7608 7.86524C18.4796 7.60811 18.2758 7.30932 18.1352 6.96885C18.0015 6.64236 17.9383 6.29503 17.9383 5.91976C17.9383 5.58616 17.9946 5.25967 18.1211 4.94004C18.2406 4.62041 18.4233 4.33559 18.6624 4.07846C18.9225 3.8005 19.2248 3.59902 19.5762 3.46004C19.9065 3.32817 20.2578 3.26566 20.6305 3.26566C20.996 3.26566 21.3405 3.32106 21.6566 3.44631C22.0083 3.58505 22.3033 3.77281 22.5565 4.02993C22.8167 4.27995 23.0064 4.57188 23.14 4.91234C23.2665 5.22486 23.3297 5.56533 23.3297 5.91976ZM21.5584 24.909H19.7096C18.9996 24.909 18.4303 24.3463 18.4303 23.6514V11.0753C18.4303 10.3804 18.9996 9.81758 19.7096 9.81758H21.5584C22.2684 9.81758 22.8377 10.3804 22.8377 11.0753V23.6516C22.8377 24.3463 22.2684 24.909 21.5584 24.909Z" fill="#F07C00"/>
<path fill-rule="evenodd" clip-rule="evenodd" d="M15.8503 24.9019H13.0457C12.645 24.9019 12.2867 24.7213 12.0546 24.4365L4.65289 16.4947V23.6445C4.65289 24.3391 4.08354 24.9019 3.38079 24.9019H1.28592C0.583168 24.9019 0.0138245 24.3391 0.0138245 23.6445V2.2928C0.0138245 1.5979 0.583168 1.03512 1.28592 1.03512H3.38079C4.08354 1.03512 4.65289 1.5979 4.65289 2.2928V9.08811L12.125 1.41725C12.378 1.16724 12.7083 1.03512 13.0457 1.03512H15.6326C16.3353 1.03512 16.9047 1.5979 16.9047 2.2928C16.9047 2.66807 16.7361 3.00143 16.4759 3.23772L7.14823 12.6526L16.7713 22.7898C17.2563 23.2901 17.228 24.0891 16.7219 24.5617C16.4759 24.7909 16.1598 24.9019 15.8503 24.9019Z" fill="#009EE0"/>
<path fill-rule="evenodd" clip-rule="evenodd" d="M130.229 34.1778V32.8716H129.533C128.872 32.8716 128.542 33.0939 128.542 33.5246C128.542 33.9623 128.872 34.1778 129.533 34.1778H130.229ZM130.229 35.2757H129.842L128.261 37.2905C128.141 37.4503 128.036 37.5545 127.951 37.6033C127.839 37.6724 127.691 37.7003 127.508 37.7003C127.276 37.7003 127.087 37.6307 126.946 37.4849C126.805 37.3319 126.742 37.2001 126.742 37.0819C126.742 36.8388 126.827 36.6164 127.009 36.4145L128.113 35.1779C127.22 34.9975 126.77 34.4482 126.77 33.5312C126.77 32.3637 127.6 31.7664 129.258 31.7664H130.974C131.367 31.7664 131.641 31.8566 131.782 32.0303C131.909 32.1831 131.965 32.4681 131.965 32.8711V36.5816C131.965 37.3248 131.677 37.7001 131.093 37.7001C130.798 37.7001 130.573 37.5822 130.425 37.3457C130.292 37.1444 130.229 36.8939 130.229 36.5816V35.2757H130.229ZM122.525 35.206V36.5054H123.228C123.888 36.5054 124.219 36.2899 124.219 35.8593C124.219 35.5813 124.113 35.4007 123.902 35.2965C123.769 35.234 123.544 35.206 123.228 35.206H122.525ZM122.525 34.0945C123.516 34.0945 124.142 34.1153 124.401 34.157C125.196 34.282 125.688 34.5876 125.885 35.0813C125.969 35.2967 126.011 35.5539 126.011 35.8595C126.011 36.5613 125.744 37.0476 125.203 37.3116C124.816 37.5202 124.219 37.6172 123.417 37.6172H121.78C121.112 37.6172 120.782 37.2422 120.782 36.5056V32.8718C120.782 32.1353 121.077 31.7671 121.66 31.7671C122.237 31.7671 122.525 32.1353 122.525 32.8718V34.0945ZM116.332 35.2686V36.5679H117.035C117.696 36.5679 118.026 36.3525 118.026 35.9218C118.026 35.6507 117.921 35.4632 117.71 35.3659C117.576 35.2965 117.352 35.2686 117.035 35.2686H116.332ZM115.587 37.6797C114.919 37.6797 114.589 37.3045 114.589 36.5679V32.8716C114.589 32.135 114.919 31.7668 115.587 31.7668H117.147C117.935 31.7668 118.518 31.871 118.891 32.0725C119.397 32.3505 119.65 32.8299 119.65 33.5246C119.65 34.0182 119.404 34.3933 118.926 34.6433C119.523 34.9558 119.819 35.3798 119.819 35.9218C119.819 36.6235 119.552 37.1099 119.01 37.381C118.624 37.5824 118.026 37.6797 117.225 37.6797H115.587ZM116.332 32.8713V34.1709H117.035C117.316 34.1709 117.52 34.1359 117.647 34.0663C117.822 33.9692 117.907 33.7886 117.907 33.5243C117.907 33.0937 117.598 32.8713 116.965 32.8713H116.332ZM109.577 34.7058C109.577 35.095 109.668 35.4355 109.844 35.7203C110.062 36.061 110.357 36.2274 110.73 36.2274C111.102 36.2274 111.398 36.0608 111.615 35.7203C111.798 35.4355 111.889 35.095 111.889 34.7058C111.889 34.3307 111.791 33.9971 111.608 33.7192C111.39 33.3927 111.095 33.2331 110.73 33.2331C110.357 33.2331 110.062 33.3927 109.844 33.7192C109.668 33.9903 109.577 34.3236 109.577 34.7058ZM107.771 34.7266C107.771 33.865 108.044 33.1356 108.6 32.5519C109.148 31.9544 109.858 31.6624 110.73 31.6624C111.615 31.6624 112.333 31.9544 112.867 32.5448C113.408 33.129 113.682 33.8582 113.682 34.7266C113.682 35.5953 113.415 36.3179 112.881 36.8944C112.326 37.492 111.609 37.7839 110.73 37.7839C109.858 37.7839 109.141 37.4851 108.579 36.8807C108.045 36.3037 107.771 35.5879 107.771 34.7266ZM103.089 34.8379C103.089 35.22 103.181 35.5397 103.363 35.7826C103.574 36.0674 103.869 36.2064 104.249 36.2064C104.635 36.2064 104.931 36.0534 105.141 35.7409C105.324 35.47 105.416 35.1364 105.416 34.7472C105.416 34.3722 105.317 34.0454 105.128 33.7814C104.924 33.4692 104.628 33.3162 104.249 33.3162C103.933 33.3162 103.658 33.4204 103.433 33.6287C103.202 33.8373 103.089 34.2401 103.089 34.8379ZM103.131 37.2905H103.089V38.7774C103.089 39.5902 102.815 40 102.259 40C101.669 40 101.374 39.5833 101.374 38.7565V33.0106C101.374 32.1767 101.669 31.7668 102.259 31.7668C102.604 31.7668 102.885 31.9475 103.089 32.3157C103.441 31.9196 103.926 31.7252 104.53 31.7252C105.332 31.7252 105.992 32.0377 106.491 32.663C106.955 33.2397 107.187 33.9275 107.187 34.7266C107.187 35.3242 107.047 35.873 106.765 36.3733C106.477 36.9015 106.07 37.2905 105.542 37.5545C105.212 37.7143 104.868 37.7976 104.509 37.7976C103.982 37.7976 103.525 37.6307 103.131 37.2905ZM96.3483 34.7058C96.3483 35.095 96.4396 35.4355 96.6223 35.7203C96.8403 36.061 97.1354 36.2274 97.5078 36.2274C97.8805 36.2274 98.1756 36.0608 98.3936 35.7203C98.5692 35.4355 98.6607 35.095 98.6607 34.7058C98.6607 34.3307 98.5692 33.9971 98.3794 33.7192C98.1687 33.3927 97.8733 33.2331 97.5076 33.2331C97.1351 33.2331 96.84 33.3927 96.6221 33.7192C96.4396 33.9903 96.3483 34.3236 96.3483 34.7058ZM94.5488 34.7266C94.5488 33.865 94.823 33.1356 95.3713 32.5519C95.9263 31.9544 96.6365 31.6624 97.5078 31.6624C98.3936 31.6624 99.1107 31.9544 99.6518 32.5448C100.193 33.129 100.46 33.8582 100.46 34.7266C100.46 35.5953 100.193 36.3179 99.6657 36.8944C99.1107 37.492 98.3867 37.7839 97.5078 37.7839C96.6362 37.7839 95.9196 37.4851 95.3569 36.8807C94.8158 36.3037 94.5488 35.5879 94.5488 34.7266ZM92.7845 37.617H88.806C88.806 38.1104 88.7993 38.3952 88.7849 38.4717C88.7217 38.8122 88.532 38.9786 88.2225 38.9786C87.6812 38.9786 87.4144 38.7006 87.4144 38.1452V37.0474C87.4144 36.6929 87.4987 36.4706 87.6742 36.3941C87.822 36.3596 87.9765 36.3316 88.1382 36.3039C88.314 36.2274 88.3983 36.0122 88.3983 35.6578V33.5037C88.3983 32.8716 88.567 32.4198 88.9186 32.135C89.2347 31.8919 89.7198 31.7668 90.3876 31.7668H92.5598C92.9112 31.7668 93.1502 31.885 93.2767 32.1284C93.3749 32.3019 93.4173 32.5728 93.4173 32.9341V36.3456C93.9234 36.3456 94.1766 36.5887 94.1766 37.0753V38.1455C94.1766 38.7011 93.9095 38.9789 93.3682 38.9789C93.0659 38.9789 92.8831 38.8053 92.813 38.4577C92.7916 38.3673 92.7845 38.0896 92.7845 37.617ZM89.8252 36.3453H91.7021V33.1353H90.3945C90.1274 33.1353 89.994 33.2674 89.994 33.5243V35.6576C89.994 35.873 89.9377 36.1024 89.8252 36.3453ZM83.3164 34.7266C83.3164 34.3584 83.5973 34.1709 84.1456 34.1709C84.5394 34.1709 84.7923 34.1501 84.9052 34.1079C85.1298 34.0317 85.2421 33.8373 85.2421 33.5243C85.2421 33.2187 85.1439 33.0032 84.9612 32.8922C84.8208 32.8157 84.5885 32.7809 84.2651 32.7809C84.0119 32.7809 83.759 32.8228 83.4991 32.913C83.2177 33.0103 83.0069 33.0657 82.8661 33.0657C82.4373 33.0657 82.2268 32.8713 82.2268 32.4821C82.2268 31.9333 82.9509 31.6622 84.3988 31.6622C85.2072 31.6622 85.8045 31.7735 86.1983 32.0026C86.7183 32.2946 86.9784 32.802 86.9784 33.5243C86.9784 34.018 86.7394 34.393 86.2544 34.643C86.8309 34.9487 87.119 35.3727 87.119 35.9215C87.119 37.1584 86.2122 37.7837 84.3988 37.7837C82.845 37.7837 82.0721 37.492 82.0721 36.9013C82.0721 36.5468 82.2757 36.3662 82.6766 36.3662C82.8031 36.3662 83.028 36.4145 83.3513 36.5257C83.675 36.6299 84.0191 36.6787 84.399 36.6787C85.0175 36.6787 85.327 36.4284 85.327 35.9213C85.327 35.6919 85.2704 35.5252 85.1511 35.4279C85.0386 35.3235 84.8136 35.2752 84.4762 35.2681C84.0544 35.2612 83.7942 35.2404 83.696 35.2127C83.4429 35.1502 83.3164 34.9906 83.3164 34.7266ZM73.7285 34.8379C73.7285 35.22 73.8198 35.5397 74.0026 35.7826C74.2136 36.0674 74.5087 36.2064 74.8953 36.2064C75.2749 36.2064 75.5772 36.0534 75.781 35.7409C75.9635 35.47 76.055 35.1364 76.055 34.7472C76.055 34.3722 75.9635 34.0454 75.7738 33.7814C75.5628 33.4692 75.2677 33.3162 74.895 33.3162C74.5719 33.3162 74.2976 33.4204 74.0727 33.6287C73.8483 33.8373 73.7285 34.2401 73.7285 34.8379ZM73.7776 37.2905H73.7285V38.7774C73.7285 39.5902 73.4543 40 72.8991 40C72.3087 40 72.0133 39.5833 72.0133 38.7565V33.0106C72.0133 32.1767 72.3087 31.7668 72.8991 31.7668C73.2435 31.7668 73.5245 31.9475 73.7285 32.3157C74.0871 31.9196 74.565 31.7252 75.1698 31.7252C75.9781 31.7252 76.6318 32.0377 77.1379 32.663C77.5949 33.2397 77.8268 33.9275 77.8268 34.7266C77.8268 35.3242 77.6862 35.873 77.405 36.3733C77.1168 36.9015 76.7089 37.2905 76.1817 37.5545C75.8517 37.7143 75.507 37.7976 75.1484 37.7976C74.6212 37.7976 74.1642 37.6307 73.7776 37.2905ZM67.9084 33.2395H67.1632C66.4322 33.2395 66.0665 32.9966 66.0665 32.51C66.0665 32.0098 66.4322 31.7666 67.1632 31.7666H70.3824C71.1134 31.7666 71.4789 32.0098 71.4789 32.51C71.4789 32.9963 71.1134 33.2395 70.3757 33.2395H69.6236V36.4498C69.6236 37.2765 69.3352 37.7006 68.7659 37.7006C68.1896 37.7006 67.9084 37.2768 67.9084 36.4498V33.2395ZM61.9266 35.2686V36.4429C61.9266 37.2765 61.6454 37.7006 61.076 37.7006C60.4856 37.7006 60.1905 37.2768 60.1905 36.4498V33.0106C60.1905 32.1767 60.4856 31.7668 61.076 31.7668C61.6454 31.7668 61.9266 32.1767 61.9266 33.0106V34.0665H63.8526V33.0106C63.8526 32.1767 64.1407 31.7668 64.7101 31.7668C65.2866 31.7668 65.5678 32.1767 65.5678 33.0106V36.4498C65.5678 37.2765 65.2866 37.7006 64.7101 37.7006C64.1407 37.7006 63.8526 37.2768 63.8526 36.4429V35.2686H61.9266ZM55.3474 34.0871H57.6458C57.6247 33.7886 57.5124 33.5452 57.2944 33.3576C57.0837 33.1701 56.8305 33.0728 56.5282 33.0728C56.219 33.0728 55.9589 33.163 55.7481 33.3508C55.5371 33.5385 55.4037 33.7814 55.3474 34.0871ZM55.3684 35.206C55.4037 35.5325 55.5443 35.7897 55.7902 35.9635C56.0362 36.1372 56.3316 36.2274 56.6899 36.2274C56.9852 36.2274 57.3366 36.1372 57.7584 35.9495C58.173 35.7617 58.4331 35.6713 58.5316 35.6713C58.9955 35.6713 59.2274 35.887 59.2274 36.3314C59.2274 36.5052 59.1642 36.6718 59.0307 36.8388C58.7986 37.151 58.4331 37.3876 57.927 37.5542C57.5052 37.693 57.0626 37.7628 56.5986 37.7628C55.734 37.7628 55.0171 37.4712 54.4405 36.8875C53.8643 36.3037 53.5761 35.5879 53.5761 34.7403C53.5761 33.8927 53.8501 33.177 54.4056 32.5796C54.9538 31.9752 55.6566 31.6762 56.5143 31.6762C56.9359 31.6762 57.3225 31.7529 57.6669 31.9058C58.1661 32.1281 58.5737 32.4686 58.8901 32.913C59.2063 33.3576 59.368 33.8373 59.368 34.3582C59.368 34.643 59.2626 34.8585 59.0518 35.0043C58.876 35.1364 58.637 35.2058 58.3419 35.2058H55.3684V35.206ZM48.8736 36.3453H50.7854V33.0174C50.7854 32.1835 51.0736 31.7666 51.6429 31.7666C52.2195 31.7666 52.5006 32.1833 52.5006 33.0174V36.3453C53.0068 36.3453 53.2597 36.5885 53.2597 37.075V38.1452C53.2597 38.7009 52.9926 38.9786 52.4513 38.9786C52.149 38.9786 51.9663 38.8051 51.8961 38.4575C51.875 38.3673 51.8681 38.0893 51.8681 37.6168H48.2338C47.8894 37.6168 47.6223 37.4849 47.4257 37.2209C47.2429 36.9777 47.1583 36.6858 47.1583 36.3453V33.0174C47.1583 32.1835 47.4395 31.7666 48.0161 31.7666C48.5854 31.7666 48.8736 32.1833 48.8736 33.0174V36.3453ZM39.6584 31.2734C39.1662 31.2734 38.7657 31.1484 38.4493 30.9053C38.1542 30.6756 38.0064 30.4258 38.0064 30.1545C38.0064 29.7932 38.1753 29.6196 38.5197 29.6196C38.7164 29.6196 38.8852 29.7238 39.0328 29.9322C39.1803 30.1405 39.3914 30.2518 39.6584 30.2518C39.9396 30.2518 40.1435 30.1408 40.2841 29.9322C40.4175 29.7236 40.5791 29.6196 40.7688 29.6196C41.1205 29.6196 41.296 29.7932 41.296 30.1545C41.296 30.516 41.1063 30.8011 40.7267 31.0092C40.4105 31.1832 40.052 31.2734 39.6584 31.2734ZM36.8677 36.4498V33.0106C36.8677 32.6353 36.9171 32.3505 37.0083 32.1558C37.1489 31.8987 37.3949 31.7668 37.7535 31.7668C38.1049 31.7668 38.3509 31.8919 38.4776 32.1492C38.5619 32.3296 38.611 32.6145 38.611 33.0108V34.9075L40.7056 32.3019C40.9868 31.9477 41.275 31.7668 41.5703 31.7668C41.9289 31.7668 42.1748 31.8919 42.3013 32.1492C42.3926 32.3296 42.435 32.6145 42.435 33.0108V36.45C42.435 36.8392 42.3926 37.1241 42.3013 37.3045C42.1748 37.5685 41.9289 37.7006 41.5772 37.7006C41.2189 37.7006 40.9727 37.5685 40.8462 37.3045C40.755 37.1241 40.7128 36.8392 40.7128 36.4429V34.6989L38.611 37.1724C38.3159 37.5268 38.0347 37.7006 37.7535 37.7006C37.1631 37.7006 36.8677 37.2765 36.8677 36.4498ZM32.0318 34.9073L34.1334 33.0106C34.1334 32.6145 34.1755 32.3296 34.2601 32.149C34.3935 31.8916 34.6395 31.7666 34.998 31.7666C35.3566 31.7666 35.6026 31.8916 35.7291 32.149C35.8206 32.3294 35.8627 32.6142 35.8627 33.0106V36.4498C35.8627 36.839 35.8206 37.1238 35.7291 37.3042C35.6026 37.5682 35.3635 37.7003 35.005 37.7003C34.6467 37.7003 34.4007 37.5682 34.274 37.3042C34.1896 37.1238 34.1475 36.839 34.1475 36.4427V34.7751L32.0387 36.4427C32.0387 36.8316 31.9896 37.1165 31.9053 37.3042C31.7717 37.5682 31.5326 37.7003 31.1813 37.7003C30.5836 37.7003 30.2885 37.2765 30.2885 36.4495V33.0103C30.2885 32.635 30.3376 32.3502 30.4291 32.1556C30.5697 31.8985 30.8157 31.7666 31.1743 31.7666C31.5326 31.7666 31.7717 31.8916 31.8981 32.149C31.9896 32.3294 32.0318 32.6142 32.0318 33.0106V34.9073ZM26.5067 35.234L26.2469 35.4284V36.4429C26.2469 37.2765 25.9585 37.7006 25.3822 37.7006C24.7987 37.7006 24.5106 37.2768 24.5106 36.4498V33.024C24.5106 32.1833 24.7987 31.7666 25.3822 31.7666C25.8251 31.7666 26.0921 32.0098 26.1906 32.5029C26.2327 32.6493 26.2469 33.0591 26.2469 33.7258L27.7369 32.2389C28.0461 31.9267 28.3484 31.7666 28.6366 31.7666C28.8406 31.7666 29.0093 31.8291 29.1568 31.9473C29.2974 32.0652 29.3676 32.2321 29.3676 32.4267C29.3676 32.7115 29.22 32.9824 28.925 33.2535L27.7511 34.3165L29.3817 36.1855C29.6138 36.4495 29.7261 36.7275 29.7261 37.0192C29.7261 37.2206 29.6418 37.3876 29.4732 37.5194C29.3043 37.6373 29.1147 37.7001 28.9039 37.7001C28.5594 37.7001 28.2572 37.5332 27.997 37.1858L26.5067 35.234ZM18.6835 34.7266C18.6835 33.8373 18.9575 33.1079 19.5057 32.538C20.054 31.9681 20.7781 31.6835 21.6849 31.6835C22.1628 31.6835 22.5776 31.7529 22.929 31.8919C23.4071 32.0933 23.6389 32.3921 23.6389 32.7882C23.6389 32.9897 23.5757 33.1633 23.4351 33.3025C23.3017 33.4486 23.1259 33.5179 22.9149 33.5179C22.7814 33.5179 22.6056 33.4694 22.3807 33.3858C22.1628 33.2956 21.9309 33.254 21.6849 33.254C21.2911 33.254 20.9819 33.3998 20.7711 33.6983C20.5742 33.9623 20.4758 34.2959 20.4758 34.6989C20.4758 35.1227 20.5742 35.4563 20.7781 35.7134C21.0102 35.9914 21.3333 36.1301 21.7481 36.1301C21.9941 36.1301 22.226 36.0885 22.4301 36.0051C22.6408 35.9218 22.8167 35.8801 22.9501 35.8801C23.1539 35.8801 23.3156 35.9495 23.442 36.0956C23.5688 36.2414 23.632 36.415 23.632 36.6167C23.632 36.964 23.386 37.2557 22.8938 37.4991C22.5424 37.6726 22.1067 37.7562 21.5795 37.7562C20.7007 37.7562 19.9908 37.4645 19.4636 36.8736C18.9436 36.3108 18.6835 35.5953 18.6835 34.7266ZM14.8877 33.2395H14.1426C13.4185 33.2395 13.053 32.9966 13.053 32.51C13.053 32.0098 13.4185 31.7666 14.1426 31.7666H17.362C18.1 31.7666 18.4655 32.0098 18.4655 32.51C18.4655 32.9963 18.093 33.2395 17.3548 33.2395H16.6027V36.4498C16.6027 37.2765 16.3215 37.7006 15.7452 37.7006C15.1759 37.7006 14.8877 37.2768 14.8877 36.4498V33.2395ZM8.89897 34.0871H11.2044C11.1833 33.7886 11.0638 33.5452 10.853 33.3576C10.635 33.1701 10.3821 33.0728 10.0798 33.0728C9.7706 33.0728 9.51047 33.163 9.29945 33.3508C9.08867 33.5385 8.95502 33.7814 8.89897 34.0871ZM8.92005 35.206C8.95502 35.5325 9.09562 35.7897 9.3416 35.9635C9.58784 36.1372 9.88987 36.2274 10.2415 36.2274C10.5366 36.2274 10.8952 36.1372 11.3098 35.9495C11.7246 35.7617 11.9847 35.6713 12.0901 35.6713C12.5469 35.6713 12.779 35.887 12.779 36.3314C12.779 36.5052 12.7158 36.6718 12.5821 36.8388C12.3572 37.151 11.9847 37.3876 11.4856 37.5542C11.0568 37.693 10.6139 37.7628 10.1572 37.7628C9.29251 37.7628 8.56843 37.4712 7.99214 36.8875C7.41585 36.3037 7.12746 35.5879 7.12746 34.7403C7.12746 33.8927 7.40172 33.177 7.95693 32.5796C8.50519 31.9752 9.2082 31.6762 10.0657 31.6762C10.4944 31.6762 10.881 31.7529 11.2254 31.9058C11.7177 32.1281 12.1253 32.4686 12.4415 32.913C12.7579 33.3576 12.9196 33.8373 12.9196 34.3582C12.9196 34.643 12.8142 34.8585 12.6032 35.0043C12.4276 35.1364 12.1886 35.2058 11.8932 35.2058H8.92005V35.206ZM5.36314 37.617H1.39187C1.39187 38.1104 1.38468 38.3952 1.37079 38.4717C1.30037 38.8122 1.11761 38.9786 0.808389 38.9786C0.267066 38.9786 0 38.7006 0 38.1452V37.0474C0 36.6929 0.0843105 36.4706 0.252932 36.3941C0.407666 36.3596 0.562401 36.3316 0.716887 36.3039C0.8927 36.2274 0.97701 36.0122 0.97701 35.6578V33.5037C0.97701 32.8716 1.15282 32.4198 1.49726 32.135C1.81342 31.8919 2.30564 31.7668 2.96624 31.7668H5.13823C5.48985 31.7668 5.73584 31.885 5.86231 32.1284C5.95356 32.3019 6.00291 32.5728 6.00291 32.9341V36.3456C6.50902 36.3456 6.76195 36.5887 6.76195 37.0753V38.1455C6.76195 38.7011 6.48794 38.9789 5.94662 38.9789C5.64434 38.9789 5.46159 38.8053 5.39835 38.4577C5.37727 38.3673 5.36314 38.0896 5.36314 37.617ZM2.40384 36.3453H4.28769V33.1353H2.98038C2.71331 33.1353 2.57965 33.2674 2.57965 33.5243V35.6576C2.57965 35.873 2.52336 36.1024 2.40384 36.3453Z" fill="#003288"/>
</svg>
