<svg width="181" height="16" viewBox="0 0 181 16" fill="none" xmlns="http://www.w3.org/2000/svg">
<g clip-path="url(#clip0)">
<path fill-rule="evenodd" clip-rule="evenodd" d="M35.7218 0.458336C33.4304 1.22083 32.768 2.05711 32.6829 4.95951C32.6403 6.54598 32.5431 11.2562 32.8045 12.5783C33.5885 16.3539 40.5354 16.483 44.024 15.4376C46.2667 14.7613 46.7043 13.8019 46.7468 11.0041C46.7893 8.93802 46.7468 7.0871 46.7893 5.53137C46.7893 2.45681 46.1026 0.56902 42.7902 0.193923C40.7055 -0.0581921 37.5694 -0.150429 35.7157 0.458336H35.7218ZM44.0604 11.6497V4.71354C44.1151 2.76426 41.2464 3.01638 39.806 3.01638C38.2258 3.01638 35.4665 2.85035 35.4665 4.71354V11.6497C35.4665 12.6214 36.682 12.9841 38.0617 13.0825C39.3269 13.1271 40.5936 13.0901 41.8542 12.9718C43.1427 12.8735 43.9814 12.5107 44.0361 11.6375L44.0604 11.6497Z" fill="#EC2327"/>
<path fill-rule="evenodd" clip-rule="evenodd" d="M18.4234 0.0629721C21.7783 0.0629721 25.5504 -0.168907 27.6235 0.25725C29.6967 0.683407 30.7823 1.99948 30.7823 4.64416C30.7823 9.0311 29.4084 10.2845 26.3601 10.6041C26.2723 10.6109 26.1841 10.6109 26.0963 10.6041C24.2931 10.7608 21.9133 10.6041 18.9018 10.6041V14.5335C18.9018 14.9224 18.7506 15.2954 18.4814 15.5705C18.2122 15.8455 17.8472 16 17.4666 16C17.0859 16 16.7209 15.8455 16.4516 15.5705C16.1825 15.2954 16.0313 14.9224 16.0313 14.5335V12.0267C15.9761 10.1842 16.0313 8.00327 16.0313 6.17958C16.0313 4.6943 16.0865 3.10248 16.0313 1.61719C16.0061 1.44598 16.0142 1.27136 16.0551 1.10335C16.0961 0.935332 16.1691 0.777231 16.27 0.638088C16.3708 0.498947 16.4975 0.381507 16.6428 0.292497C16.7882 0.203487 16.9493 0.144656 17.117 0.119375C17.5475 0.056309 17.983 0.0374137 18.4172 0.0629721H18.4234ZM26.1576 3.021H18.9079V7.70873H25.2867C27.1267 7.70873 28.0713 7.58337 28.151 5.44008C28.2308 3.29675 27.6113 3.06488 26.1576 3.021Z" fill="#EC2327"/>
<path d="M14.1597 14.5263V8.3584V5.61845C14.1718 2.49519 13.4569 0.578499 10.1426 0.195162C8.06446 -0.049923 4.91379 -0.163039 3.0537 0.465383C0.775543 1.23206 0.109061 2.08043 0.0242357 5.03402C0.0242357 6.17146 -0.0302946 8.88626 0.0242357 10.8595V14.5106C0.0250297 14.7037 0.0624885 14.8948 0.134474 15.0729C0.206458 15.251 0.311559 15.4127 0.443777 15.5486C0.575994 15.6846 0.732737 15.7922 0.905056 15.8653C1.07737 15.9384 1.2619 15.9757 1.44808 15.9748C1.82362 15.9749 2.18396 15.821 2.45064 15.5468C2.71731 15.2725 2.86874 14.9001 2.87193 14.5106V8.58463V8.47151V4.78264C2.87193 2.8911 5.64086 3.06077 7.2283 3.06077C8.64003 3.06077 11.4332 2.8094 11.3786 4.78264V13.4674V14.5358C11.3795 14.7289 11.4169 14.9199 11.4889 15.098C11.5609 15.2761 11.666 15.4378 11.7982 15.5737C11.9304 15.7097 12.0872 15.8173 12.2595 15.8904C12.4318 15.9636 12.6163 16.0008 12.8025 16C13.1769 16 13.536 15.8457 13.8008 15.5711C14.0655 15.2966 14.1597 14.9146 14.1597 14.5263Z" fill="#EC2327"/>
<path fill-rule="evenodd" clip-rule="evenodd" d="M48.6363 14.5318C48.6379 14.1395 48.7897 13.7638 49.0588 13.4864C49.3278 13.209 49.6922 13.0525 50.0727 13.0509H51.0263L57.2427 0.800675C57.3771 0.537749 57.5842 0.321906 57.8378 0.180541C58.0913 0.0391762 58.3799 -0.0213371 58.6669 0.00668108C58.9513 -0.0200035 59.2369 0.0412776 59.4873 0.182701C59.7377 0.324123 59.9415 0.53927 60.0728 0.800675L66.2892 13.0509H66.9005C67.281 13.0525 67.6454 13.209 67.9145 13.4864C68.1835 13.7638 68.3354 14.1395 68.337 14.5318C68.3361 14.7254 68.2984 14.9169 68.2257 15.0955C68.1531 15.2742 68.0471 15.4362 67.9137 15.5726C67.7803 15.7089 67.6221 15.8168 67.4483 15.8902C67.2745 15.9635 67.0883 16.0008 66.9005 16H50.0727C49.8848 16.0008 49.6987 15.9635 49.5249 15.8902C49.351 15.8168 49.1929 15.7089 49.0595 15.5726C48.9261 15.4362 48.8201 15.2742 48.7475 15.0955C48.6749 14.9169 48.6371 14.7254 48.6363 14.5318ZM58.6669 4.37995L54.2598 13.0509H63.0557L58.6669 4.37995Z" fill="#117DC1"/>
<path fill-rule="evenodd" clip-rule="evenodd" d="M87.7752 0.0558265C87.982 0.0566472 88.1874 0.0953663 88.3781 0.169773C88.5696 0.24418 88.7429 0.352818 88.8884 0.489483C89.0346 0.626148 89.1501 0.788167 89.2288 0.966282C89.3068 1.1444 89.3472 1.33513 89.3458 1.52758V5.84889L97.8486 0.268761C98.1918 0.0459614 98.6151 -0.0433818 99.0286 0.0198042C99.4414 0.0829906 99.8118 0.2937 100.06 0.606951C100.18 0.765155 100.266 0.943868 100.312 1.13283C100.358 1.3218 100.362 1.51731 100.327 1.70816C100.291 1.89901 100.216 2.08142 100.103 2.24495C99.9921 2.40849 99.8466 2.54992 99.676 2.66114L91.5846 7.99701L99.676 13.3329C100.019 13.5586 100.252 13.9014 100.324 14.2863C100.397 14.6713 100.301 15.0671 100.06 15.3871C99.8124 15.701 99.4435 15.9132 99.0307 15.9786C98.6178 16.0441 98.1939 15.9577 97.8486 15.7378L89.3458 10.1514V14.5354C89.3458 14.7267 89.3054 14.9162 89.226 15.0929C89.1474 15.2695 89.0311 15.43 88.8856 15.565C88.7394 15.7 88.5661 15.8069 88.376 15.8795C88.1853 15.9522 87.9813 15.9891 87.7752 15.9883C87.3582 15.9884 86.958 15.8359 86.6614 15.5639C86.3648 15.292 86.1957 14.9224 86.1908 14.5354V1.52758C86.1943 1.13826 86.3621 0.765809 86.6586 0.490509C86.9552 0.215208 87.3562 0.0590982 87.7752 0.0558265Z" fill="#117DC1"/>
<path fill-rule="evenodd" clip-rule="evenodd" d="M110.805 2.94803V14.5386C110.802 14.9263 110.64 15.297 110.356 15.5705C110.071 15.844 109.686 15.9983 109.284 16C109.085 16.0008 108.886 15.9636 108.702 15.8906C108.517 15.8175 108.349 15.71 108.208 15.5742C108.067 15.4384 107.955 15.277 107.878 15.0993C107.802 14.9216 107.762 14.731 107.762 14.5386V2.94803H103.733C103.327 2.94804 102.939 2.79382 102.651 2.51892C102.364 2.24403 102.201 1.87073 102.197 1.48031C102.201 1.08873 102.363 0.714115 102.651 0.437211C102.937 0.160309 103.326 0.00329081 103.733 0H114.835C115.036 0.000825461 115.234 0.0397698 115.42 0.114609C115.605 0.18945 115.772 0.298719 115.914 0.436179C116.055 0.57364 116.167 0.736598 116.243 0.91575C116.32 1.0949 116.358 1.28674 116.357 1.48031C116.357 1.86958 116.197 2.24289 115.912 2.51814C115.626 2.7934 115.239 2.94803 114.835 2.94803H110.805Z" fill="#117DC1"/>
<path fill-rule="evenodd" clip-rule="evenodd" d="M169.908 6.42514H175.706C177.753 6.42514 178.53 6.4943 178.53 4.74656C178.53 3.48919 178.062 2.95481 175.706 2.95481H169.908V6.42514ZM169.908 13.0577H177.219C178.275 12.8314 178.53 12.3033 178.53 11.3791C178.53 9.63144 177.753 9.70685 175.706 9.70685H169.908V13.0703V13.0577ZM177.356 16C174.323 16 171.267 16 168.235 16C167.868 16.0017 167.515 15.8491 167.253 15.5758C166.992 15.3024 166.844 14.9305 166.84 14.5414V1.47741C166.842 1.08717 166.988 0.71328 167.248 0.436749C167.509 0.160217 167.861 0.00330371 168.229 0C170.804 0 173.498 0 176.032 0C178.566 0 180.993 1.03733 180.993 4.16189C181.033 5.18195 180.903 6.20154 180.607 7.17329C180.545 7.34191 180.467 7.504 180.376 7.65739C180.305 7.79756 180.274 7.95645 180.287 8.11485C180.3 8.27332 180.355 8.42442 180.447 8.55012C180.523 8.71137 180.591 8.87722 180.648 9.04675C180.911 9.9824 181.027 10.9571 180.993 11.9324C180.973 12.9675 180.588 13.9572 179.913 14.7066C179.239 15.4559 178.325 15.9107 177.349 15.9811L177.356 16Z" fill="#117DC1"/>
<path fill-rule="evenodd" clip-rule="evenodd" d="M73.2758 0.458336C70.9847 1.22083 70.322 2.05711 70.237 4.95951C70.1946 6.54598 70.0971 11.2562 70.3589 12.5783C71.1427 16.3539 78.0959 16.483 81.5844 15.4376C83.8211 14.7613 84.2583 13.8019 84.3008 11.0041C84.3439 8.93802 84.3007 7.0871 84.3439 5.53137C84.3439 2.45681 83.6568 0.56902 80.3445 0.193923C78.2595 -0.0581921 75.1233 -0.150429 73.2702 0.458336H73.2758ZM81.615 11.6497V4.71354C81.6693 2.76426 78.8004 3.01638 77.3601 3.01638C75.7798 3.01638 73.021 2.85035 73.021 4.71354V11.6497C73.021 12.6214 74.2364 12.9841 75.6162 13.0825C76.8811 13.1268 78.1481 13.0899 79.4082 12.9718C80.6968 12.8735 81.5356 12.5107 81.5906 11.6375L81.615 11.6497Z" fill="#117DC1"/>
<path fill-rule="evenodd" clip-rule="evenodd" d="M121.299 0.458336C119.014 1.22083 118.338 2.05711 118.254 4.95951C118.211 6.54598 118.119 11.2562 118.393 12.5783C119.161 16.3539 126.14 16.483 129.622 15.4376C131.863 14.7613 132.308 13.8019 132.363 11.0041C132.363 8.93802 132.363 7.0871 132.363 5.53137C132.393 2.45681 131.675 0.56902 128.362 0.193923C126.28 -0.0581921 123.143 -0.150429 121.274 0.458336H121.299ZM129.641 11.6497V4.71354C129.696 2.76426 126.816 3.01638 125.378 3.01638C123.801 3.01638 121.031 2.85035 121.031 4.71354V11.6497C121.031 12.6214 122.248 12.9841 123.649 13.0825C124.91 13.1269 126.174 13.0899 127.43 12.9718C128.728 12.8735 129.562 12.5107 129.622 11.6375L129.641 11.6497Z" fill="#117DC1"/>
<path fill-rule="evenodd" clip-rule="evenodd" d="M153.922 0.458336C151.624 1.22083 150.967 2.05711 150.882 4.95951C150.845 6.54598 150.748 11.2562 151.01 12.5783C151.794 16.3539 158.743 16.483 162.233 15.4376C164.477 14.7613 164.915 13.8019 164.957 11.0041C164.993 8.93802 164.957 7.0871 164.993 5.53137C164.993 2.45681 164.306 0.56902 160.999 0.193923C158.908 -0.0581921 155.776 -0.150429 153.922 0.458336ZM162.288 11.6497V4.71354C162.342 2.76426 159.467 3.01638 158.032 3.01638C156.451 3.01638 153.684 2.85035 153.684 4.71354V11.6497C153.684 12.6214 154.901 12.9841 156.287 13.0825C157.551 13.1271 158.816 13.0902 160.075 12.9718C161.37 12.8735 162.209 12.5107 162.264 11.6375L162.288 11.6497Z" fill="#117DC1"/>
<path fill-rule="evenodd" clip-rule="evenodd" d="M136.817 0.0471753C140.18 0.0471753 143.742 -0.153496 145.812 0.272915C147.883 0.699325 148.987 2.01619 148.987 4.66246C148.987 9.05197 147.614 10.3062 144.569 10.6322C144.481 10.6387 144.393 10.6387 144.305 10.6322C142.467 10.789 140.108 10.6636 137.118 10.6636V14.5327C137.118 14.9218 136.967 15.295 136.698 15.5702C136.429 15.8454 136.065 16 135.685 16C135.304 16 134.94 15.8454 134.671 15.5702C134.402 15.295 134.25 14.9218 134.25 14.5327V12.0243C134.184 10.1807 134.214 7.99847 134.25 6.16744C134.25 4.68127 134.294 3.09476 134.25 1.60859C134.2 1.26186 134.285 0.908612 134.489 0.62643C134.692 0.344246 134.997 0.156202 135.335 0.103605C135.761 0.043883 136.192 0.0249804 136.622 0.0471593L136.817 0.0471753ZM144.318 3.03206H137.112V7.72257H143.472C145.31 7.72257 146.266 7.59715 146.352 5.45884C146.437 3.32051 145.807 3.07595 144.311 3.03206H144.318Z" fill="#117DC1"/>
</g>
<defs>
<clipPath id="clip0">
<rect width="181" height="16" fill="white"/>
</clipPath>
</defs>
</svg>
