<svg width="40" height="32" viewBox="0 0 40 32" fill="none" xmlns="http://www.w3.org/2000/svg">
<path d="M5.93963 11.8134C6.45972 13.1885 7.30387 14.3756 8.36527 15.2992C6.11326 15.7189 4.40161 17.7122 4.40161 20.1022V26.9471C4.40161 27.2459 4.64193 27.4882 4.93835 27.4882C5.23476 27.4882 5.47508 27.2459 5.47508 26.9471V20.1022C5.47508 18.0049 7.16754 16.2987 9.24793 16.2987H9.77862C11.0432 17.0162 12.4929 17.4185 14.0112 17.4185C15.5295 17.4185 16.9792 17.0161 18.2437 16.2987H18.7744C20.8547 16.2987 22.5473 18.0049 22.5473 20.1022V22.5642C22.5473 22.863 22.7876 23.1053 23.084 23.1053C23.3804 23.1053 23.6207 22.863 23.6207 22.5642V20.1022C23.6207 17.7122 21.9091 15.7189 19.6571 15.2992C20.7184 14.3756 21.5626 13.1885 22.0827 11.8134C23.2377 11.367 24.0222 10.2372 24.0222 8.97263C24.0222 7.7925 23.3374 6.72099 22.2917 6.22223C21.2077 2.54519 17.8407 0 14.011 0C10.1814 0 6.8145 2.54519 5.7307 6.22236C4.68487 6.72112 4 7.79263 4 8.97277C4 10.2372 4.78457 11.367 5.93963 11.8134ZM6.35962 7.12938L6.6245 7.03293L6.69629 6.75846C7.5709 3.41636 10.5788 1.0822 14.011 1.0822C17.4435 1.0822 20.4513 3.41636 21.3259 6.75846L21.3977 7.03293L21.6626 7.12938C22.4319 7.40953 22.9488 8.1503 22.9488 8.97263C22.9488 9.84962 22.3628 10.6262 21.5236 10.8609L21.2521 10.937L21.16 11.2053C20.1057 14.2743 17.2328 16.3363 14.0112 16.3363C10.7896 16.3363 7.91669 14.2743 6.86241 11.2053L6.77022 10.937L6.49877 10.8609C5.65958 10.6262 5.07347 9.84976 5.07347 8.97277C5.07347 8.1503 5.59035 7.40953 6.35962 7.12938ZM8.70462 8.70926C8.70462 7.86609 9.38506 7.18011 10.2214 7.18011C11.0578 7.18011 11.7382 7.86609 11.7382 8.70926C11.7382 9.00808 11.4979 9.25035 11.2015 9.25035C10.9051 9.25035 10.6648 9.00808 10.6648 8.70926C10.6648 8.46278 10.4659 8.26231 10.2214 8.26231C9.97695 8.26231 9.77809 8.46278 9.77809 8.70926C9.77809 9.00808 9.53776 9.25035 9.24135 9.25035C8.94494 9.25035 8.70462 9.00808 8.70462 8.70926ZM16.48 8.70926C16.48 7.86609 17.1605 7.18011 17.9968 7.18011C18.8332 7.18011 19.5137 7.86609 19.5137 8.70926C19.5137 9.00808 19.2733 9.25035 18.9769 9.25035C18.6805 9.25035 18.4402 9.00808 18.4402 8.70926C18.4402 8.46278 18.2413 8.26231 17.9968 8.26231C17.7524 8.26231 17.5535 8.46278 17.5535 8.70926C17.5535 9.00808 17.3132 9.25035 17.0168 9.25035C16.7204 9.25035 16.48 9.00808 16.48 8.70926ZM14.011 12.9612C15.2993 12.9612 16.4861 12.3675 17.2671 11.3322C17.4464 11.0943 17.7834 11.048 18.0192 11.2292C18.2551 11.41 18.301 11.7496 18.1215 11.9874C17.1358 13.294 15.6376 14.0434 14.011 14.0434C12.3846 14.0434 10.8863 13.294 9.90073 11.9874C9.72133 11.7496 9.76708 11.41 10.003 11.2292C10.239 11.0482 10.5758 11.0944 10.7551 11.3322C11.5362 12.3675 12.7229 12.9612 14.011 12.9612Z" fill="#343D42"/>
<path d="M13.9999 23.1719C12.8971 23.1719 12 24.069 12 25.1719C12 26.2749 12.8971 27.1719 13.9999 27.1719C15.1027 27.1719 16 26.2749 16 25.1719C16 24.069 15.1029 23.1719 13.9999 23.1719ZM13.9999 26.2332C13.4146 26.2332 12.9386 25.757 12.9386 25.1718C12.9386 24.5866 13.4148 24.1103 13.9999 24.1103C14.5851 24.1103 15.0614 24.5866 15.0614 25.1718C15.0614 25.757 14.5852 26.2332 13.9999 26.2332Z" fill="#FFD601"/>
<path d="M35.8064 6.09087L34.7164 5.17858C34.4885 4.98771 34.1501 5.01936 33.9606 5.24919C33.7713 5.47916 33.8027 5.82032 34.0306 6.01119L34.7077 6.57786L31.2124 10.8224C30.4894 11.7002 29.1932 11.8215 28.3223 11.0928C27.9003 10.7397 27.6403 10.2422 27.5895 9.69202C27.539 9.14172 27.7039 8.60441 28.0541 8.17924L31.5493 3.93473L32.2265 4.50139C32.4545 4.69227 32.7929 4.66061 32.9824 4.43078C33.1716 4.20081 33.1403 3.85965 32.9122 3.66878L31.8222 2.75649C31.7127 2.66477 31.572 2.62081 31.4298 2.63406C31.2881 2.64732 31.1574 2.71685 31.0664 2.82723L27.2282 7.48812C26.6948 8.13582 26.4435 8.95396 26.5209 9.79212C26.5804 10.4397 26.8322 11.0379 27.2393 11.5251C25.746 13.5948 26.5012 15.7819 27.2341 17.8999C27.8515 19.6839 28.4897 21.5287 28.0529 23.5663C27.7155 25.1383 26.5371 26.0343 25.6079 26.5092C23.6129 27.5287 20.9088 27.5944 18.5843 26.7077C18.7538 26.2111 18.8472 25.6792 18.8472 25.1255C18.8472 22.4375 16.6779 20.2505 14.0115 20.2505C11.3451 20.2505 9.17578 22.4375 9.17578 25.1255C9.17578 27.8135 11.3451 30.0004 14.0115 30.0004C15.7462 30.0004 17.2699 29.0743 18.1234 27.6872C19.3457 28.1647 20.6681 28.4048 21.963 28.4048C23.4398 28.4048 24.88 28.0945 26.0931 27.4745C27.7007 26.6532 28.7693 25.3464 29.1019 23.7952C29.6027 21.4598 28.8828 19.3792 28.2477 17.5436C27.5318 15.4747 26.959 13.8167 28.0625 12.2242C28.549 12.5097 29.0907 12.651 29.6309 12.651C30.5291 12.651 31.4214 12.2636 32.0385 11.514L35.8767 6.85314C36.0659 6.62291 36.0345 6.28188 35.8064 6.09087ZM14.0114 28.9178C11.9369 28.9178 10.2491 27.2164 10.2491 25.1251C10.2491 23.0336 11.9369 21.3323 14.0114 21.3323C16.0858 21.3323 17.7736 23.0336 17.7736 25.1251C17.7737 27.2164 16.086 28.9178 14.0114 28.9178Z" fill="#FFD601"/>
</svg>
