<svg width="80" height="64" viewBox="0 0 80 64" fill="none" xmlns="http://www.w3.org/2000/svg">
<g clip-path="url(#clip0)">
<path d="M43.2264 38.9923C40.2619 40.1018 38.4537 40.1018 35.4892 38.9923C34.8841 38.766 34.2097 39.0692 33.9819 39.6685C33.7538 40.2678 34.0591 40.9376 34.6633 41.1636C36.3963 41.8122 37.877 42.1365 39.3579 42.1365C40.8389 42.1365 42.3196 41.8125 44.0526 41.1636C44.6568 40.9376 44.9621 40.2678 44.734 39.6685C44.5059 39.0692 43.8312 38.7666 43.2264 38.9923Z" fill="#343D42"/>
<path d="M50.2759 49.019C55.4534 46.0213 58.9425 40.4549 58.9425 34.0914V32.0286C58.1968 32.5107 57.4157 32.9424 56.603 33.3186V34.0914C56.603 42.3376 49.8395 49.0463 41.5261 49.0463H37.1891C28.8757 49.0463 22.1123 42.3376 22.1123 34.0914V25.0089H23.8302V26.8234C23.8302 30.358 26.7292 33.2333 30.2927 33.2333H32.3217C34.1927 33.2333 35.9544 32.5336 37.3114 31.3623C36.6759 30.8932 36.0738 30.383 35.5026 29.8405C34.6057 30.517 33.4944 30.9127 32.3217 30.9127H30.2927C28.0195 30.9127 26.1697 29.0782 26.1697 26.8234V25.0089H31.8236C31.4268 24.2628 31.0758 23.4892 30.7813 22.6882H24.9999H22.1123V19.2258C22.1123 18.6129 22.1541 18.0095 22.227 17.4157H29.6785C29.6548 17.0316 29.639 16.6452 29.639 16.2554C29.639 15.8655 29.6551 15.4791 29.6785 15.095H22.7022C24.194 9.95623 28.3932 5.94584 33.6628 4.68746C34.4416 3.69944 35.3169 2.79061 36.2758 1.97461C27.0953 2.44744 19.7727 10.0041 19.7727 19.2258V22.6882H16.1698C15.5238 22.6882 15 23.2078 15 23.8486C15 24.4894 15.5238 25.0089 16.1698 25.0089H19.7727V34.0917C19.7727 40.4552 23.2619 46.0216 28.4394 49.0193C21.3291 49.672 15.7434 55.6198 15.7434 62.84C15.7434 63.4808 16.2672 64.0003 16.9132 64.0003C17.5592 64.0003 18.083 63.4808 18.083 62.84C18.083 56.4646 23.3122 51.2779 29.7393 51.2779H30.7342C30.7568 51.2779 30.7781 51.2727 30.8006 51.2715L38.5306 58.9393C38.7499 59.1568 39.0476 59.2789 39.3576 59.2789C39.6676 59.2789 39.9653 59.1568 40.1847 58.9393L47.9146 51.2715C47.9369 51.273 47.9582 51.2779 47.981 51.2779H48.9759C55.4033 51.2779 60.6323 56.4649 60.6323 62.84C60.6323 63.4808 61.1561 64.0003 61.8021 64.0003C62.4481 64.0003 62.9719 63.4808 62.9719 62.84C62.9719 55.6196 57.3861 49.6717 50.2759 49.019ZM39.3576 56.4767L33.888 51.0513C34.9575 51.2558 36.0606 51.3669 37.1891 51.3669H41.5261C42.6547 51.3669 43.7578 51.2558 44.8273 51.0513L39.3576 56.4767Z" fill="#343D42"/>
<path d="M48.6121 10.1993C45.2455 10.1993 42.5067 12.916 42.5067 16.2554C42.5067 19.5948 45.2455 22.3114 48.6121 22.3114C51.9788 22.3114 54.7176 19.5948 54.7176 16.2554C54.7176 12.916 51.9785 10.1993 48.6121 10.1993ZM48.6121 19.9908C46.5355 19.9908 44.8463 18.3153 44.8463 16.2554C44.8463 14.1955 46.5355 12.52 48.6121 12.52C50.6888 12.52 52.378 14.1955 52.378 16.2554C52.378 18.3153 50.6885 19.9908 48.6121 19.9908Z" fill="#42A53B"/>
<path d="M48.6121 -0.00201416C39.5746 -0.00201416 32.2222 7.29094 32.2222 16.2554C32.2222 25.2198 39.5746 32.5127 48.6121 32.5127C57.6496 32.5127 65.0021 25.2198 65.0021 16.2554C65.0021 7.29094 57.6496 -0.00201416 48.6121 -0.00201416ZM48.6121 30.19C40.8661 30.19 34.5639 23.9391 34.5639 16.2554C34.5639 8.57166 40.8658 2.32067 48.6121 2.32067C56.3585 2.32067 62.6604 8.57166 62.6604 16.2554C62.6604 23.9391 56.3582 30.19 48.6121 30.19Z" fill="#42A53B"/>
</g>
<defs>
<clipPath id="clip0">
<rect width="80" height="64" fill="white"/>
</clipPath>
</defs>
</svg>
