<svg width="80" height="64" viewBox="0 0 80 64" fill="none" xmlns="http://www.w3.org/2000/svg">
<path d="M71.0536 33.6159C71.0536 32.1127 70.6536 30.7131 69.9273 29.6751C69.0489 28.4196 67.7247 27.7283 66.1987 27.7283H64.2713L63.5432 21.0359C63.3044 18.8306 63.4706 18.5739 64.2123 17.8432C64.4917 17.5685 64.8055 17.2953 65.1378 17.006C66.9435 15.4337 69.1907 13.4768 69.4968 8.47282C69.5204 8.08598 69.3578 7.71104 69.059 7.46394C68.7603 7.21685 68.3615 7.12745 67.9858 7.22352C67.2686 7.40669 66.61 7.58403 66.0288 7.74063C61.8192 8.87445 60.6878 9.17929 56.6085 6.66444C55.2777 5.84504 53.971 5.13153 52.7245 4.54382C52.1183 4.25803 51.3956 4.51774 51.1099 5.12365C50.8243 5.72968 51.0839 6.45252 51.6898 6.73819C52.8551 7.28757 54.082 7.95789 55.3358 8.72986C60.3066 11.7945 62.1666 11.2935 66.6597 10.0831C66.7255 10.0654 66.7922 10.0475 66.8598 10.0293C66.3066 12.7709 64.9061 13.9908 63.5444 15.1764C63.1997 15.4767 62.8431 15.7871 62.5105 16.114C60.9227 17.6782 60.8709 18.8946 61.1311 21.2977L61.8122 27.5581C60.9554 27.4576 60.1384 27.3628 59.3545 27.2717C50.0881 26.1958 45.4368 25.6557 33.8255 22.6201C33.3177 22.4872 32.8685 22.3537 32.4342 22.2246C30.582 21.6742 29.1191 21.2393 26.5468 21.9621C23.2863 22.8781 20.8681 23.8772 18.0328 26.211C18.047 21.949 18.1359 20.2694 18.6944 16.5034C19.0127 14.3662 20.2136 12.4887 21.9071 11.4811C22.9619 10.8534 24.6861 10.2755 26.9103 11.0857C27.2929 11.2253 27.7198 11.1633 28.0472 10.921C28.4411 10.6295 28.842 10.3227 29.2666 9.99784C32.3805 7.61496 36.256 4.64947 41.7381 4.42506C42.4076 4.39765 42.9279 3.83286 42.9005 3.16339C42.8731 2.49405 42.3065 1.97475 41.639 2.00095C35.3907 2.25666 30.9989 5.61723 27.7923 8.07106C27.5547 8.2529 27.3246 8.42891 27.1006 8.59861C24.8712 7.96444 22.6092 8.24004 20.6666 9.39617C18.3537 10.7725 16.7194 13.2958 16.2948 16.1468C15.6489 20.5027 15.6071 22.1514 15.6045 27.7282H13.8014C12.2753 27.7282 10.9512 28.4196 10.0728 29.675C9.34647 30.7131 8.94653 32.1127 8.94653 33.6159C8.94653 36.5043 10.4541 39.5456 13.2825 40.4292C12.4211 42.3951 11.9695 44.537 11.9695 46.7158C11.9695 55.1094 18.5574 61.938 26.6549 61.938C28.4151 61.938 29.8214 61.4789 30.9512 61.11C32.2446 60.6879 33.0148 60.4632 33.8001 60.7546C36.0831 61.6042 38.0531 61.9999 40.0001 61.9999C41.947 61.9999 43.917 61.6042 46.1989 60.7549C46.9854 60.4628 47.7557 60.6877 49.049 61.1099C50.1788 61.4789 51.5851 61.9379 53.3453 61.9379C61.4429 61.9379 68.0307 55.1093 68.0307 46.7157C68.0307 44.5369 67.5791 42.395 66.7177 40.4291C69.546 39.5456 71.0536 36.5043 71.0536 33.6159ZM11.3726 33.6159C11.3726 32.6056 11.617 31.7 12.0606 31.0658C12.4898 30.4524 13.0592 30.1542 13.8014 30.1542H15.604V35.2477C15.604 36.7298 15.5651 36.7785 15.1929 37.2429C15.0049 37.4775 14.7669 37.7751 14.4748 38.2182C12.2109 37.8795 11.3726 35.3536 11.3726 33.6159ZM53.3452 59.5119C51.9709 59.5119 50.8683 59.1519 49.8019 58.8038C48.4112 58.3496 46.9731 57.8801 45.3539 58.4809C43.3502 59.2265 41.649 59.5738 40.0002 59.5738C38.3513 59.5738 36.6502 59.2265 34.6453 58.4804C33.0273 57.8801 31.589 58.3495 30.1983 58.8037C29.1319 59.1519 28.0292 59.5118 26.655 59.5118C19.8952 59.5118 14.3957 53.7715 14.3957 46.7157C14.3957 44.3582 15.017 42.0532 16.1923 40.0499C16.5736 39.4001 16.8579 39.0451 17.0866 38.7598C17.8406 37.8186 18.0303 37.3071 18.0303 35.2477V29.4574C21.2994 26.3512 23.6327 25.3008 27.2032 24.2977C29.1001 23.7646 30.039 24.0436 31.7433 24.5502C32.1754 24.6786 32.6651 24.8241 33.2117 24.9672C44.9881 28.046 49.6959 28.5926 59.0749 29.6816C59.991 29.788 60.9524 29.8996 61.9702 30.0194V35.2479C61.9702 37.3072 62.1599 37.8188 62.9139 38.7599C63.1424 39.0452 63.4269 39.4002 63.8082 40.05C64.9835 42.0533 65.6048 44.3584 65.6048 46.7158C65.6045 53.7715 60.105 59.5119 53.3452 59.5119ZM65.5252 38.2182C65.2331 37.7751 64.9951 37.4776 64.8071 37.2429C64.4349 36.7783 64.396 36.7298 64.396 35.2477V30.1542H66.1986C66.9408 30.1542 67.5102 30.4524 67.9394 31.0658C68.3831 31.7 68.6274 32.6056 68.6274 33.6159C68.6275 35.3536 67.7892 37.8795 65.5252 38.2182Z" fill="#343D42"/>
<path d="M33.6614 35.7732C33.1957 35.2915 32.4278 35.2787 31.9462 35.7444C30.431 37.2097 27.9634 37.2094 26.4453 35.7437C25.9633 35.2784 25.1953 35.2918 24.7301 35.7739C24.2648 36.2559 24.2783 37.0238 24.7603 37.4891C25.9844 38.6708 27.5908 39.2615 29.1975 39.2615C30.804 39.2615 32.4107 38.6702 33.6328 37.4884C34.1142 37.0227 34.1271 36.2547 33.6614 35.7732Z" fill="#343D42"/>
<path d="M55.7852 35.7731C55.3196 35.2914 54.5516 35.2787 54.07 35.7444C52.5536 37.2109 50.0863 37.2108 48.5699 35.7444C48.0885 35.2788 47.3205 35.2916 46.8547 35.7731C46.389 36.2547 46.4019 37.0227 46.8834 37.4883C48.1065 38.6713 49.7133 39.2628 51.3201 39.2628C52.9267 39.2628 54.5335 38.6713 55.7566 37.4883C56.2381 37.0227 56.2509 36.2547 55.7852 35.7731Z" fill="#343D42"/>
<path d="M48.7924 47.2014C48.1225 47.2014 47.5794 47.7445 47.5794 48.4144V48.4421C45.4344 47.6876 42.9028 47.2797 40.2583 47.2797C37.6143 47.2797 35.0835 47.6875 32.9397 48.4417V48.4144C32.9397 47.7445 32.3967 47.2014 31.7267 47.2014C31.0567 47.2014 30.5137 47.7445 30.5137 48.4144V52.111C30.5137 52.781 31.0567 53.3241 31.7267 53.3241C32.3967 53.3241 32.9397 52.781 32.9397 52.111V51.0413C37.1438 49.245 43.3725 49.2451 47.5794 51.0415V52.111C47.5794 52.781 48.1225 53.3241 48.7924 53.3241C49.4624 53.3241 50.0055 52.781 50.0055 52.111V48.4144C50.0055 47.7445 49.4624 47.2014 48.7924 47.2014Z" fill="#343D42"/>
<path d="M20.4097 45.5329C20.4097 44.8629 19.8632 44.3198 19.1933 44.3198C18.5233 44.3198 17.9802 44.8629 17.9802 45.5329C17.9802 46.2028 18.5233 46.7459 19.1933 46.7459H19.2002C19.87 46.7459 20.4097 46.2028 20.4097 45.5329Z" fill="#FF4D00"/>
<path d="M25.5202 53.1263C24.8502 53.1263 24.3071 53.6694 24.3071 54.3394C24.3071 55.0093 24.8502 55.5524 25.5202 55.5524H25.5271C26.197 55.5524 26.7367 55.0093 26.7367 54.3394C26.7367 53.6694 26.1901 53.1263 25.5202 53.1263Z" fill="#FF4D00"/>
<path d="M25.2588 47.5505H25.2657C25.9357 47.5505 26.4754 47.0074 26.4754 46.3375C26.4754 45.6675 25.9289 45.1245 25.2589 45.1245C24.589 45.1245 24.0459 45.6675 24.0459 46.3375C24.0459 47.0074 24.5888 47.5505 25.2588 47.5505Z" fill="#FF4D00"/>
<path d="M20.9297 49.8767C20.2597 49.8767 19.7167 50.4198 19.7167 51.0897C19.7167 51.7597 20.2597 52.3028 20.9297 52.3028H20.9366C21.6066 52.3028 22.1461 51.7597 22.1461 51.0897C22.1461 50.4198 21.5997 49.8767 20.9297 49.8767Z" fill="#FF4D00"/>
<path d="M61.3262 44.3198H61.3193C60.6493 44.3198 60.1097 44.8629 60.1097 45.5329C60.1097 46.2028 60.6562 46.7459 61.3262 46.7459C61.9961 46.7459 62.5392 46.2028 62.5392 45.5329C62.5392 44.8629 61.9961 44.3198 61.3262 44.3198Z" fill="#FF4D00"/>
<path d="M54.9958 53.1263H54.9889C54.319 53.1263 53.7793 53.6694 53.7793 54.3394C53.7793 55.0093 54.3258 55.5524 54.9957 55.5524C55.6657 55.5524 56.2087 55.0093 56.2087 54.3394C56.2087 53.6694 55.6658 53.1263 54.9958 53.1263Z" fill="#FF4D00"/>
<path d="M55.2571 45.1245H55.2502C54.5802 45.1245 54.0405 45.6675 54.0405 46.3375C54.0405 47.0074 54.587 47.5505 55.2569 47.5505C55.9269 47.5505 56.47 47.0074 56.47 46.3375C56.47 45.6675 55.927 45.1245 55.2571 45.1245Z" fill="#FF4D00"/>
<path d="M59.5862 49.8767H59.5793C58.9093 49.8767 58.3696 50.4198 58.3696 51.0897C58.3696 51.7597 58.9161 52.3028 59.586 52.3028C60.256 52.3028 60.7991 51.7597 60.7991 51.0897C60.7991 50.4198 60.2561 49.8767 59.5862 49.8767Z" fill="#FF4D00"/>
<path d="M47.1248 5.01059H47.1282C47.7981 5.01059 48.3395 4.46752 48.3395 3.79756C48.3395 3.12761 47.7947 2.58453 47.1248 2.58453C46.4548 2.58453 45.9117 3.12761 45.9117 3.79756C45.9117 4.46752 46.4548 5.01059 47.1248 5.01059Z" fill="#343D42"/>
</svg>
