<svg width="80" height="64" viewBox="0 0 80 64" fill="none" xmlns="http://www.w3.org/2000/svg">
<path d="M65.6624 38.2435C68.0541 38.2435 70 36.2992 70 33.9092V6.3343C70 3.94443 68.0542 2 65.6624 2H14.3342C11.9443 2 10 3.94443 10 6.3343V33.9091C10 36.2991 11.9443 38.2434 14.3342 38.2434H18.9488V55.1027C18.9488 55.75 19.4736 56.2746 20.1207 56.2746H37.0858V59.069C37.0858 60.686 38.3999 62.0015 40.015 62.0015H47.7813C49.3964 62.0015 50.7105 60.6859 50.7105 59.069V51.1364C50.7105 49.5194 49.3964 48.2039 47.7813 48.2039H40.015C38.3999 48.2039 37.0858 49.5195 37.0858 51.1364V53.9308H21.2926V38.2435H31.5517V42.566V43.2237C31.5517 43.8709 32.0765 44.3956 32.7236 44.3956H60.9329V48.2039H58.2216C56.6065 48.2039 55.2925 49.5195 55.2925 51.1364V59.069C55.2925 60.686 56.6065 62.0015 58.2216 62.0015H65.9845C67.5997 62.0015 68.9137 60.6859 68.9137 59.069V51.1364C68.9137 49.5194 67.5997 48.2039 65.9845 48.2039H63.2767V43.2237C63.2767 42.5764 62.752 42.0518 62.1048 42.0518H33.8955V38.2435H65.6624ZM39.4296 56.2747H43.8981C44.5452 56.2747 45.07 55.7501 45.07 55.1028C45.07 54.4556 44.5452 53.9309 43.8981 53.9309H39.4296V51.1365C39.4296 50.8174 39.6976 50.5479 40.015 50.5479H47.7813C48.0987 50.5479 48.3667 50.8174 48.3667 51.1365V59.0691C48.3667 59.3938 48.1041 59.6578 47.7813 59.6578H40.015C39.6922 59.6578 39.4296 59.3938 39.4296 59.0691V56.2747ZM62.1048 56.2747C62.752 56.2747 63.2767 55.7501 63.2767 55.1028V50.5477H65.9845C66.3019 50.5477 66.5699 50.8173 66.5699 51.1364V59.069C66.5699 59.3881 66.3019 59.6577 65.9845 59.6577H58.2216C57.9044 59.6577 57.6363 59.3881 57.6363 59.069V51.1364C57.6363 50.8173 57.9044 50.5477 58.2216 50.5477H60.9329V55.1028C60.9329 55.7501 61.4577 56.2747 62.1048 56.2747ZM20.1207 30.6346C18.9829 30.6346 18.0573 29.7074 18.0573 28.5677C18.0573 27.4299 18.9829 26.5041 20.1207 26.5041C21.2604 26.5041 22.1876 27.4298 22.1876 28.5677C22.1876 29.7074 21.2604 30.6346 20.1207 30.6346ZM31.5517 35.8997H21.2926V32.8191C23.1575 32.3044 24.5314 30.594 24.5314 28.5677C24.5314 26.1374 22.5528 24.1603 20.1207 24.1603C17.6906 24.1603 15.7135 26.1374 15.7135 28.5677C15.7135 30.5937 17.0859 32.3039 18.9488 32.8189V35.8998H14.3342C13.2367 35.8998 12.3438 35.0069 12.3438 33.9094V6.3343C12.3438 5.2368 13.2367 4.34381 14.3342 4.34381H65.6624C66.7617 4.34381 67.6561 5.2368 67.6561 6.3343V33.9091C67.6561 35.0067 66.7617 35.8996 65.6624 35.8996H33.8955V32.8187C35.7585 32.3036 37.1309 30.5935 37.1309 28.5675C37.1309 26.1372 35.1538 24.16 32.7236 24.16C30.2916 24.16 28.3129 26.1372 28.3129 28.5675C28.3129 30.5938 29.6869 32.3042 31.5517 32.8189V35.8997ZM32.7236 30.6346C31.5839 30.6346 30.6567 29.7074 30.6567 28.5677C30.6567 27.4299 31.5839 26.5041 32.7236 26.5041C33.8614 26.5041 34.7871 27.4298 34.7871 28.5677C34.7872 29.7074 33.8614 30.6346 32.7236 30.6346Z" fill="#343D42"/>
<path d="M45.1703 26.9949H45.177C45.8241 26.9949 46.3456 26.4702 46.3456 25.823C46.3456 25.1757 45.8176 24.6511 45.1704 24.6511C44.5233 24.6511 43.9985 25.1757 43.9985 25.823C43.9985 26.4702 44.5232 26.9949 45.1703 26.9949Z" fill="#869AA5"/>
<path d="M51.412 24.6511C50.7649 24.6511 50.2401 25.1757 50.2401 25.823C50.2401 26.4702 50.7649 26.9949 51.412 26.9949H51.422C52.0691 26.9949 52.589 26.4702 52.589 25.823C52.589 25.1757 52.0591 24.6511 51.412 24.6511Z" fill="#869AA5"/>
<path d="M57.6569 24.6511C57.0098 24.6511 56.485 25.1757 56.485 25.823C56.485 26.4702 57.0098 26.9949 57.6569 26.9949H57.6636C58.3107 26.9949 58.8322 26.4702 58.8322 25.823C58.8322 25.1757 58.304 24.6511 57.6569 24.6511Z" fill="#869AA5"/>
<path d="M63.8986 24.6511C63.2515 24.6511 62.7267 25.1757 62.7267 25.823C62.7267 26.4702 63.2515 26.9949 63.8986 26.9949H63.9054C64.5525 26.9949 65.074 26.4702 65.074 25.823C65.074 25.1757 64.5457 24.6511 63.8986 24.6511Z" fill="#869AA5"/>
<path d="M45.1703 32.3531H45.177C45.8241 32.3531 46.3456 31.8284 46.3456 31.1812C46.3456 30.5339 45.8176 30.0093 45.1704 30.0093C44.5233 30.0093 43.9985 30.5339 43.9985 31.1812C43.9985 31.8284 44.5232 32.3531 45.1703 32.3531Z" fill="#869AA5"/>
<path d="M51.412 30.0093C50.7649 30.0093 50.2401 30.5339 50.2401 31.1812C50.2401 31.8284 50.7649 32.3531 51.412 32.3531H51.422C52.0691 32.3531 52.589 31.8284 52.589 31.1812C52.589 30.5339 52.0591 30.0093 51.412 30.0093Z" fill="#869AA5"/>
<path d="M57.6569 30.0093C57.0098 30.0093 56.485 30.5339 56.485 31.1812C56.485 31.8284 57.0098 32.3531 57.6569 32.3531H57.6636C58.3107 32.3531 58.8322 31.8284 58.8322 31.1812C58.8322 30.5339 58.304 30.0093 57.6569 30.0093Z" fill="#869AA5"/>
<path d="M63.8986 30.0093C63.2515 30.0093 62.7267 30.5339 62.7267 31.1812C62.7267 31.8284 63.2515 32.3531 63.8986 32.3531H63.9054C64.5525 32.3531 65.074 31.8284 65.074 31.1812C65.074 30.5339 64.5457 30.0093 63.8986 30.0093Z" fill="#869AA5"/>
<path d="M45.177 21.2348H63.8986C64.5457 21.2348 65.0705 20.7101 65.0705 20.0628V14.0768C65.0705 13.4295 64.5457 12.9048 63.8986 12.9048H45.177C44.5299 12.9048 44.0051 13.4295 44.0051 14.0768V20.0628C44.0051 20.7101 44.5298 21.2348 45.177 21.2348ZM46.3489 15.2488H62.7267V18.8911H46.3489V15.2488Z" fill="#869AA5"/>
<path d="M45.177 9.26605H63.8986C64.5457 9.26605 65.0705 8.74139 65.0705 8.09415C65.0705 7.4469 64.5457 6.92224 63.8986 6.92224H45.177C44.5299 6.92224 44.0051 7.4469 44.0051 8.09415C44.0051 8.74139 44.5298 9.26605 45.177 9.26605Z" fill="#343D42"/>
<path d="M40.9011 18.4883V9.66872C40.9011 8.15427 39.6691 6.92224 38.1546 6.92224H33.1719C32.5248 6.92224 32 7.4469 32 8.09415C32 8.74139 32.5248 9.26605 33.1719 9.26605H38.1546C38.3728 9.26605 38.5573 9.45051 38.5573 9.66872V18.4883C38.5573 18.7065 38.3729 18.8909 38.1546 18.8909H17.6693C17.4511 18.8909 17.2665 18.7065 17.2665 18.4883V9.66872C17.2665 9.45051 17.451 9.26605 17.6693 9.26605H22.6486C23.2958 9.26605 23.8205 8.74139 23.8205 8.09415C23.8205 7.4469 23.2958 6.92224 22.6486 6.92224H17.6693C16.1549 6.92224 14.9227 8.15427 14.9227 9.66872V18.4883C14.9227 20.0027 16.1549 21.2347 17.6693 21.2347H38.1547C39.6692 21.2347 40.9011 20.0027 40.9011 18.4883Z" fill="#869AA5"/>
<path d="M27.9103 9.26605H27.917C28.5641 9.26605 29.0856 8.74139 29.0856 8.09415C29.0856 7.4469 28.5576 6.92224 27.9104 6.92224C27.2633 6.92224 26.7385 7.4469 26.7385 8.09415C26.7385 8.74139 27.2631 9.26605 27.9103 9.26605Z" fill="#869AA5"/>
</svg>
