<svg width="323" height="378" viewBox="0 0 323 378" fill="none" xmlns="http://www.w3.org/2000/svg">
<path d="M232.463 18.8509C276.385 41.7182 310.004 81.3344 319.627 129.881C329.494 179.661 317.919 233.611 282.178 269.663C248.403 303.731 197.052 305.073 149.172 301.817C102.755 298.659 54.4031 289.17 26.1327 252.246C-2.99253 214.207 -5.56893 162.981 7.61501 116.932C20.7168 71.1702 51.04 31.8163 94.6947 12.7736C139.018 -6.56058 189.573 -3.47894 232.463 18.8509Z" fill="#E3EEF4"/>
<path d="M157.817 168.545C188.917 179.869 205.89 210.581 217.429 241.511C228.964 272.428 237.485 307.45 220.116 335.527C202.905 363.348 167.652 370.005 135.168 374.488C102.354 379.016 65.6319 383.079 41.8138 360.134C18.0419 337.233 20.7262 300.537 24.4122 267.792C27.9789 236.107 35.9189 203.827 61.556 184.754C88.992 164.343 125.659 156.835 157.817 168.545Z" fill="url(#paint0_linear)"/>
<defs>
<linearGradient id="paint0_linear" x1="126" y1="163" x2="126" y2="378" gradientUnits="userSpaceOnUse">
<stop stop-color="#F2F6F9"/>
<stop offset="1" stop-color="#F2F6F9" stop-opacity="0"/>
</linearGradient>
</defs>
</svg>
