<svg width="334" height="356" viewBox="0 0 334 356" fill="none" xmlns="http://www.w3.org/2000/svg">
<path d="M207.679 17.0386C235.704 27.449 260.032 44.1601 280.893 65.5054C302.551 87.6657 322.674 112.087 329.951 142.148C337.564 173.596 334.105 206.756 322.393 236.929C310.321 268.032 289.377 294.611 262.866 314.984C234.929 336.454 202.851 357.829 167.615 355.875C132.909 353.951 105.292 327.734 79.2555 304.802C56.5435 284.799 40.9904 259.584 27.5536 232.517C13.8839 204.982 -3.39747 176.783 0.580511 146.323C4.55971 115.854 29.5737 93.8671 48.7997 69.8348C68.6177 45.0623 84.4704 13.7735 114.641 3.74757C144.975 -6.33229 177.718 5.90897 207.679 17.0386Z" fill="url(#paint0_linear)"/>
<defs>
<linearGradient id="paint0_linear" x1="167" y1="0" x2="167" y2="356" gradientUnits="userSpaceOnUse">
<stop stop-color="#E3EEF4"/>
<stop offset="1" stop-color="#E3EEF4" stop-opacity="0"/>
</linearGradient>
</defs>
</svg>
