<svg width="312" height="546" viewBox="0 0 312 546" fill="none" xmlns="http://www.w3.org/2000/svg">
<path d="M229.311 -11.7667C269.426 9.13841 300.131 45.3552 308.919 89.7359C317.931 135.245 307.36 184.565 274.717 217.523C243.87 248.668 196.97 249.896 153.241 246.918C110.847 244.032 66.687 235.356 40.8673 201.601C14.2669 166.826 11.9138 119.995 23.9549 77.8982C35.9209 36.0632 63.6154 0.0861702 103.486 -17.3225C143.967 -34.9976 190.139 -32.1804 229.311 -11.7667Z" fill="#E3EEF4"/>
<path d="M184.661 291.449C218.802 310.117 232.099 350.25 238.339 388.736C244.413 426.2 241.116 465.172 217.655 494.959C192.692 526.654 154.823 548.177 114.613 545.824C74.9018 543.502 41.528 516.801 19.8088 483.386C-0.529974 452.094 -4.99568 413.717 5.44066 377.863C15.6914 342.646 40.6078 314.548 73.5815 298.649C108.762 281.686 150.389 272.71 184.661 291.449Z" fill="#E3EEF4"/>
</svg>
