<svg width="23" height="25" viewBox="0 0 23 25" fill="none" xmlns="http://www.w3.org/2000/svg">
<path d="M14.3013 23.8035C16.2311 23.0724 17.9064 21.8989 19.3429 20.3999C20.8344 18.8437 22.2201 17.1287 22.7212 15.0177C23.2455 12.8093 23.0072 10.4806 22.2007 8.36173C21.3694 6.17752 19.9272 4.31102 18.1016 2.88032C16.1777 1.3726 13.9688 -0.128473 11.5424 0.00874519C9.15244 0.143902 7.25066 1.985 5.45772 3.59536C3.89371 5.0001 2.82269 6.7708 1.8974 8.67153C0.956078 10.6052 -0.233958 12.5855 0.0399753 14.7245C0.313992 16.8642 2.03651 18.4082 3.36046 20.0959C4.72517 21.8355 5.81682 24.0328 7.89447 24.7368C9.98328 25.4447 12.2381 24.585 14.3013 23.8035Z" fill="#FFD601"/>
</svg>
