<svg width="413" height="531" viewBox="0 0 413 531" fill="none" xmlns="http://www.w3.org/2000/svg">
<path d="M207.679 -26.9614C235.704 -16.551 260.032 0.160141 280.893 21.5054C302.551 43.6657 322.674 68.0874 329.951 98.1483C337.564 129.596 334.105 162.756 322.393 192.929C310.321 224.032 289.377 250.611 262.866 270.984C234.929 292.454 202.851 313.829 167.615 311.875C132.909 309.951 105.292 283.734 79.2555 260.802C56.5435 240.799 40.9904 215.584 27.5536 188.517C13.8839 160.982 -3.39747 132.783 0.580511 102.323C4.55971 71.8539 29.5737 49.8671 48.7997 25.8348C68.6177 1.06232 84.4704 -30.2265 114.641 -40.2524C144.975 -50.3323 177.718 -38.091 207.679 -26.9614Z" fill="#E3EEF4"/>
<path d="M243.647 200.326C296.206 198.581 354.064 202.605 387.289 243.409C420.849 284.624 416.944 343.431 401.628 394.345C387.662 440.774 353.249 475.34 310.604 498.335C264.634 523.122 211.854 542.861 163.706 522.635C113.064 501.362 80.1536 451.172 69.8025 397.18C59.855 345.295 76.9695 292.136 111.926 252.552C144.834 215.289 193.988 201.975 243.647 200.326Z" fill="#E3EEF4"/>
</svg>
