<svg width="14" height="14" viewBox="0 0 14 14" fill="none" xmlns="http://www.w3.org/2000/svg">
<path d="M2.41258 6.61947C2.41258 6.61947 2.78491 6.57825 3.48962 5.38635C3.48962 5.38635 3.50559 5.36551 3.532 5.32546C3.88169 6.95509 5.56492 6.69137 5.56492 6.69137L5.72645 6.05947C4.59572 6.30586 4.58107 4.96525 4.58107 4.96525L6.31378 5.56623C6.46755 5.39643 6.5654 5.18564 6.60667 4.95892C6.62309 5.50182 6.57427 6.08711 6.41674 6.69137C6.41674 6.69137 7.46404 6.2904 8.18849 6.98928C8.18849 6.98928 8.11927 5.77561 7.75715 4.52072C7.96483 4.3926 8.40883 4.2036 8.48715 4.87273C8.59011 5.75125 9.76455 6.96867 10.866 5.45826C10.866 5.45826 10.1759 5.85899 9.79406 5.02684C9.43682 4.24833 9.29814 3.22788 8.33272 3.52743C8.88544 3.08759 9.40243 2.37536 8.75142 1.71325C7.8834 0.830279 6.53012 1.88446 6.29181 2.08283C6.13583 1.98072 5.96742 1.90179 5.78525 1.8519C5.78525 1.8519 6.34351 2.8138 6.54144 4.20289C6.41474 3.84362 6.14936 3.51151 5.74109 3.30072C5.25516 3.04941 4.60948 3.09485 4.13131 3.43117C4.23249 2.59036 4.20875 1.46452 3.86172 0.0231934L2.17783 0.906865C2.17783 0.906865 3.48962 3.53704 2.29521 5.28377C2.29521 5.28377 0.767968 4.31789 1.7274 2.36576L0.748664 2.18073C0.748664 2.18073 0.243873 2.7782 0.307998 3.71691C0.38233 4.80177 1.10324 6.26956 2.41258 6.61947ZM8.09086 2.29526C8.47251 2.78733 7.90137 3.22835 7.40546 3.32391C7.40546 3.32391 7.31449 2.74283 6.98454 2.36458C6.98454 2.36458 7.70922 1.80295 8.09086 2.29526ZM5.57779 3.74689C5.89508 3.86025 6.06837 4.23498 6.00736 4.62752L4.74039 4.14387C4.92411 3.81083 5.26892 3.63658 5.57779 3.74689ZM11.6541 5.11912H11.6754C11.4875 5.79716 11.152 6.18384 10.734 6.46512C9.97024 6.97898 8.97175 6.69137 8.97175 6.69137C9.19696 7.3488 11.6541 8.58167 12.4176 6.40353C13.1811 4.22538 11.801 2.73557 11.801 2.73557C11.872 3.63728 11.8441 4.31953 11.7396 4.84791C11.5381 4.87859 10.4695 4.94183 10.9492 2.69459L9.85286 2.26294C9.85286 2.26294 9.30458 5.34537 11.6541 5.11912Z" fill="white"/>
<path d="M12.4469 8.29418C11.1451 7.96535 10.3128 8.38669 10.3128 8.38669C10.3128 8.38669 11.0961 8.64339 11.2332 9.96901C11.3701 11.2944 9.98973 12.2088 9.98973 12.2088C9.98973 12.2088 11.517 12.5067 12.6623 12.0031C13.8077 11.4998 13.8372 10.2669 13.8372 10.0922C13.8372 9.91749 13.7489 8.62301 12.4469 8.29418ZM12.1174 11.0895C12.0943 11.0906 12.0717 11.0899 12.0488 11.0885C12.2481 10.8731 12.3701 10.5337 12.3546 10.1564C12.336 9.69663 12.1187 9.31065 11.8234 9.14553C11.8909 9.12071 11.9621 9.10478 12.0364 9.10127C12.4955 9.08066 12.8858 9.50903 12.9082 10.058C12.9306 10.6072 12.5767 11.0691 12.1174 11.0895ZM10.631 10.1273C10.631 9.13195 9.85194 8.32486 8.89095 8.32486C8.79577 8.32486 8.70235 8.33329 8.6116 8.34852C8.35976 7.70187 7.75468 7.24609 7.04797 7.24609C6.18883 7.24609 5.4799 7.91991 5.37362 8.79141C4.62853 8.93521 3.82242 9.43221 3.55305 10.837L4.44902 11.0529C4.44902 11.0529 4.62764 10.5299 5.10669 10.0594L5.12444 10.1128C5.12444 10.1128 5.24204 11.6539 4.05251 11.8389C2.86298 12.024 2.14341 10.6522 2.51063 9.743C2.87785 8.83357 3.62671 9.07504 3.62671 9.07504L5.07541 7.64683L4.53201 7.41051C2.99989 6.84536 1.02754 7.89345 0.909945 10.1896C0.792568 12.4861 3.24485 13.8887 4.94827 12.7175C5.87087 12.083 6.05237 11.1501 6.02508 10.4283C6.30909 10.6557 6.66322 10.7909 7.04797 10.7909C7.12253 10.7909 7.19553 10.7852 7.26742 10.7756C7.51881 11.4504 8.15074 11.9293 8.89095 11.9293C9.85194 11.9293 10.631 11.1225 10.631 10.1273ZM7.42229 9.16099C7.40565 9.18839 7.38945 9.21603 7.37392 9.24437C7.26342 9.40597 7.08325 9.5116 6.87912 9.5116C6.73045 9.5116 6.59422 9.45563 6.48815 9.36264C6.60975 9.3432 6.73711 9.33009 6.87179 9.32681L6.82786 8.86448C6.82786 8.86448 6.60753 8.79492 6.2798 8.76002C6.33039 8.46047 6.57913 8.23258 6.87912 8.23258C7.21572 8.23258 7.48864 8.51879 7.48864 8.87221C7.48864 8.9762 7.46445 9.0741 7.42229 9.16099ZM8.51641 10.6522C8.33491 10.6522 8.17204 10.5693 8.0591 10.4381C8.38106 10.1852 8.61382 9.8142 8.69991 9.38677C8.95109 9.46874 9.13325 9.71466 9.13325 10.0048C9.13325 10.3623 8.85701 10.6522 8.51641 10.6522Z" fill="white"/>
</svg>
