<svg width="24" height="24" viewBox="0 0 24 24" fill="none" xmlns="http://www.w3.org/2000/svg">
<g clip-path="url(#clip0)">
<path d="M23.7861 17.3671C23.7216 17.2591 23.3225 16.392 21.4024 14.6099C19.3923 12.7438 19.6623 13.0468 22.0835 9.82005C23.5581 7.8549 24.1476 6.65481 23.9631 6.14178C23.7876 5.65274 22.703 5.78175 22.703 5.78175L19.0967 5.80275C19.0967 5.80275 18.8297 5.76675 18.6302 5.88526C18.4367 6.00227 18.3122 6.27229 18.3122 6.27229C18.3122 6.27229 17.7406 7.7934 16.9786 9.0865C15.372 11.8152 14.7284 11.9592 14.4659 11.7897C13.8553 11.3952 14.0084 10.2026 14.0084 9.35652C14.0084 6.71182 14.4089 5.60924 13.2268 5.32422C12.8338 5.22971 12.5458 5.1667 11.5422 5.1562C10.2551 5.1427 9.16451 5.1607 8.54796 5.46223C8.13693 5.66324 7.82041 6.11177 8.01392 6.13728C8.25244 6.16878 8.79248 6.28279 9.079 6.67282C9.44953 7.17535 9.43602 8.30644 9.43602 8.30644C9.43602 8.30644 9.64904 11.4192 8.93949 11.8062C8.45195 12.0717 7.7844 11.5302 6.3518 9.05349C5.61825 7.7859 5.06321 6.3833 5.06321 6.3833C5.06321 6.3833 4.9567 6.12228 4.76618 5.98277C4.53517 5.81325 4.21114 5.75925 4.21114 5.75925L0.781892 5.78025C0.781892 5.78025 0.267354 5.79525 0.0783406 6.01877C-0.0896717 6.21828 0.0648396 6.62931 0.0648396 6.62931C0.0648396 6.62931 2.75004 12.9103 5.78926 16.077C8.57796 18.9797 11.7432 18.7892 11.7432 18.7892H13.1773C13.1773 18.7892 13.6108 18.7412 13.8313 18.5027C14.0354 18.2837 14.0279 17.8726 14.0279 17.8726C14.0279 17.8726 13.9994 15.948 14.8934 15.6645C15.774 15.3855 16.9051 17.5246 18.1037 18.3482C19.0097 18.9707 19.6983 18.8342 19.6983 18.8342L22.904 18.7892C22.904 18.7892 24.5811 18.6857 23.7861 17.3671Z" fill="#0677EC"/>
</g>
<defs>
<clipPath id="clip0">
<rect width="24" height="24" fill="white"/>
</clipPath>
</defs>
</svg>
